/* XPM */
static char *_670781616873[] = {
/* columns rows colors chars-per-pixel */
"50 50 256 2 ",
"   c #020102",
".  c #0B0201",
"X  c #0C0903",
"o  c #030308",
"O  c #0A040A",
"+  c #0D0B0B",
"@  c #050806",
"#  c #140202",
"$  c #1B0402",
"%  c #130B02",
"&  c #1B0B02",
"*  c #130C0B",
"=  c #1C0E0B",
"-  c #1A130C",
";  c #050513",
":  c #130D10",
">  c #1A1717",
",  c #280704",
"<  c #39080B",
"1  c #271609",
"2  c #361907",
"3  c #251816",
"4  c #381817",
"5  c #320D15",
"6  c #2C2117",
"7  c #37261C",
"8  c #32210E",
"9  c #191A30",
"0  c #3B1A26",
"q  c #29182B",
"w  c #1E2230",
"e  c #292625",
"r  c #362926",
"t  c #39322A",
"y  c #3B3636",
"u  c #2F263B",
"i  c #481818",
"p  c #561718",
"a  c #4C0C0E",
"s  c #59241B",
"d  c #4E2B18",
"f  c #4A1925",
"g  c #591D24",
"h  c #561B34",
"j  c #572527",
"k  c #46352A",
"l  c #573329",
"z  c #532B35",
"x  c #463935",
"c  c #5B3337",
"v  c #4A2431",
"b  c #642C32",
"n  c #683538",
"m  c #733433",
"M  c #732E27",
"N  c #662320",
"B  c #4A423C",
"V  c #574936",
"C  c #76433A",
"Z  c #6A503F",
"A  c #18175A",
"S  c #281659",
"D  c #2E264C",
"F  c #19166A",
"G  c #190C79",
"H  c #0C1378",
"J  c #1A117B",
"K  c #171578",
"L  c #150F6A",
"P  c #26156A",
"I  c #241576",
"U  c #2D146C",
"Y  c #292668",
"T  c #342F72",
"R  c #1B2064",
"E  c #552E4A",
"W  c #6E344A",
"Q  c #553A7B",
"!  c #51326C",
"~  c #673C73",
"^  c #3E4440",
"/  c #474645",
"(  c #574B47",
")  c #575548",
"_  c #5A5958",
"`  c #514F52",
"'  c #774545",
"]  c #67564B",
"[  c #764451",
"{  c #645B58",
"}  c #785954",
"|  c #6F5247",
" . c #776A58",
".. c #6B6159",
"X. c #594873",
"o. c #73496B",
"O. c #686667",
"+. c #756966",
"@. c #787777",
"#. c #76736E",
"$. c #5F6160",
"%. c #982D2D",
"&. c #873736",
"*. c #903432",
"=. c #A23132",
"-. c #91221B",
";. c #844A3D",
":. c #9B3C41",
">. c #884947",
",. c #974749",
"<. c #885447",
"1. c #854656",
"2. c #865756",
"3. c #985456",
"4. c #AB4E51",
"5. c #85655A",
"6. c #9A6559",
"7. c #946D50",
"8. c #A56359",
"9. c #975A64",
"0. c #88536E",
"q. c #896865",
"w. c #8A786A",
"e. c #977C67",
"r. c #887B74",
"t. c #916D76",
"y. c #AB6B64",
"u. c #B07671",
"i. c #79877A",
"p. c #87837D",
"a. c #958773",
"s. c #B9896A",
"d. c #B18F74",
"f. c #B38A58",
"g. c #CA9A7A",
"h. c #D2AC7C",
"j. c #C1945B",
"k. c #0C0E8C",
"l. c #160E88",
"z. c #0B1388",
"x. c #131383",
"c. c #14148C",
"v. c #1A148C",
"b. c #181785",
"n. c #110C96",
"m. c #161594",
"M. c #0E1193",
"N. c #221489",
"B. c #333087",
"V. c #2527A6",
"C. c #563C85",
"Z. c #49368A",
"A. c #3C438B",
"S. c #484789",
"D. c #4F4C90",
"F. c #714D8C",
"G. c #5250A7",
"H. c #6958A5",
"J. c #716FB1",
"K. c #646A9C",
"L. c #6C6DC3",
"P. c #855986",
"I. c #906D8E",
"U. c #AB7B8B",
"Y. c #8E75AE",
"T. c #A479A7",
"R. c #7F8383",
"E. c #7F81CC",
"W. c #878786",
"Q. c #928985",
"!. c #99938A",
"~. c #9D9B9A",
"^. c #8E9396",
"/. c #A89887",
"(. c #B89C8A",
"). c #A49895",
"_. c #AC8B8F",
"`. c #B9A587",
"'. c #B7A798",
"]. c #B3A99C",
"[. c #9490A9",
"{. c #A78EAD",
"}. c #ACAAAA",
"|. c #A9A7A4",
" X c #B7B7B7",
".X c #B3AFAF",
"XX c #C89985",
"oX c #CB998C",
"OX c #C7A788",
"+X c #D5AC8A",
"@X c #CAAB99",
"#X c #D9B598",
"$X c #D2B192",
"%X c #E6B997",
"&X c #E8AE8F",
"*X c #C39BB9",
"=X c #C7A6A4",
"-X c #C9BCAC",
";X c #DCBBA3",
":X c #C7BAB5",
">X c #D0B2B5",
",X c #E5BCA5",
"<X c #ECB9B5",
"1X c #E79F93",
"2X c #DCC29B",
"3X c #E3C19B",
"4X c #D7C6B9",
"5X c #D3C8B4",
"6X c #E7C3A7",
"7X c #E9D3BB",
"8X c #FFDCBC",
"9X c #F8DDB7",
"0X c #EFCFB4",
"qX c #FFE1BB",
"wX c #9392CE",
"eX c #B9AAC8",
"rX c #B2AED2",
"tX c #8E8EE9",
"yX c #AEB0F3",
"uX c #A099C2",
"iX c #CAB7C7",
"pX c #C3B8FF",
"aX c #CBCBCB",
"sX c #C7C5C5",
"dX c #D5CAC8",
"fX c #D4D3D3",
"gX c #DCDBD7",
"hX c #D5CFCF",
"jX c #E9DACA",
"kX c #F9DBC4",
"lX c #E4DAD4",
"zX c #F4D3D2",
"xX c #FBE3CA",
"cX c #ECE3D7",
"vX c #F6E7D7",
"bX c #EAE2C9",
"nX c #DBDCFF",
"mX c #D1D3F5",
"MX c #E9DDE3",
"NX c #E4E4E3",
"BX c #ECE9E8",
"VX c #F6EBE7",
"CX c #FFFAEC",
"ZX c #FAF5EB",
"AX c #E8E7FC",
"SX c #F5EBFD",
"DX c #F4F4F4",
"FX c #FEF6F5",
"GX c #FEFBF5",
"HX c #F3F3FE",
"JX c #FDF5FE",
"KX c #F6FCFE",
"LX c #FDFDFD",
"PX c #F4F8F6",
"IX c #EEF1F2",
"UX c #DFE5E3",
/* pixels */
"n.m.b.E.KXLXJ.k.z.G.KXuXb.z.F AXLXLXKXKXKX[.z.n.M.m.n.n.N.Z.JXLXLXAXG.L D.GXLXLXKXi.B r p.GXLXLXKXeX",
"m.n.b.G.GXKXG.c.z.J.JXJ.H H S.HXJXLXLXJXLX{.G l.l.b.N.I G H.eX{.wXD.H L rXGXLXLXKXW.O./ ).LXKXLXLXDX",
"n.M.M.K LXLXS.c.H tXKXX.R H E.nXrXSXMX>X*XT.U U U Q ~ ~ I.T.I.{.Z.H H I JXLXLXLXKX X$.$.}.LXLXKXKXGX",
"V.m.m.b.AXKXB.K R yXHXnXyXL.J.F Y rXU.2.9.0.! F.0.W W W E 0 ~ T K z.K D.JXGXLXKXKXKX@.PXLXLXLXLXGXGX",
"L.H m.H rXKXT A A nXKXKXyXN.c.G L Y.0.>.b f E W h a < 0 v ! ! J l.c.L K.LXLXGXLXLXW.w ^ W.CXLXLXLXGX",
"yXK z.K J.KXnXrXJ.AXmXA.H v.k.l.P Q W a < a g a g v f 0 D ! G l.m.G C.{.JXLXGXLXHX XR.UXKXGXGXLXLXLX",
"SXI m.z.D.KXLXKXHXwXI x.z.l.l.I Q o.5 , i a 5 4 $ # O w S.L v.m.x.Z.o.U.GXGXLXGXLX@..X` R.KXLXJXLXPX",
"SXG.z.M.F SXHXmXS.K x.v.J L C.F.E h 4 4 , 2 6 O   ; w S.K v.k.l.I F.[ 2.FXGXLXLXGXGXr.BXgXKXLXLXLXMX",
"LXwXH M.J pXtXJ x.x.c.J T P.o.W v , 4 1 & = . o o ; T R b.c.m.J F.h g m zXSXKXLXLX@.e ) $.KXLXKXKX[.",
"KXnXH M.v.N.l.k.l.J U D.o.c a g 4 # 1 & . .   o ; D Y J c.v.J Q E b p f 0.JXGXKXLX}.|._ NXKXKXKXAXY ",
"LXKXA.z.z.k.m.N.I C.P.h 5 2 i 4 5 O # O     o ; A B.b.k.M.G X.*Xb 3.s i 0 {.PXGXLX@.~.@.KXKXKXKXJ.K ",
"LXKXE.z.l.m.N.N.Y.T.h g i 5 $ . # .         @ ; u Y G v.b.Q iX>Xy.;.6.i 0 r p.VXLXLXLXLXJXLXHXK.H K ",
"GXKXmXH c.G Z.F.*X0.p p 0 > = * .         @ @ o ; X.I K R rXVX7XXXN XXl i k 3 ( Q.].-XVXGXeXQ L F J.",
"GXLXKXT x.x.F.o.U.g m j +.r 3 + o .     o     o # 3 S.R rX|.jXkX;X<.u.7.i f c r | 5.} q.).[.Z.S S rX",
"LXLXKXJ.H v.U o.&.*.f t.>X4 k 3   @         o + O . u E ).jX'.xXkXOX<.y.b i z z c 9.u.0.iXeX*XP.{.>X",
"LXJXLXyXJ l.U F.U.*.< t.4X2 k 7             o > X   > 7 e.xX(.zXkXkX6.8.m f z 2.n 9.t.{.F.rX_.t.=X=X",
"LXLXKXHXI l.l.H.0.C , ( jX# k t           @   o > X . x } vX0X/.:X/.u.8.a s z c 9.9.I.F.G U ~ U.9.y.",
"IXLXLXJXH.x.k.I t.j = r vX& 7 t X   o           > > . = +.vXzX} r } 6.6.M N p j [ 0.Y.P N.G ! 9.4.4.",
"LXGXKXLXtXK l.U P.f f q vX3 > y :     @     .   o /   # ] /.V = k # , ' M s M a c P.Z.G N.N.T.9.y.,.",
"KXKXKXKXnXP P C.P.h E 5 4Xt   e >   o       X . o q e O e k = . V k # l ;.M a ;.5 ~ U G N.C.1.4.4.4.",
"LXLXKXKXLXY.{.o.9.>.a j dXx . : e O         .   @ @ #.* # y r ) I..X.Xz y.8.j < ' E P G U P.1.4.%.4.",
"GXBXLXLXJXLXzX} >.,.a n 4XE   + 3 * o   . . . = o o > E E { e KXLXLX{.5 ;.1X<.f v o.F.U P.1.4.=.=.4.",
"LXLXLXLXFXLXzX2.<.3.a m (.x .   + + o     . % t > + O #.FXBXfXKXJXMX+.q.M 1X1Xd i f W 0.1.,.:.=.%.%.",
"FXhXLXLXLXFXvX9.' <.m m  .x . .   X o     . 1 ) y o e NXFXLXIXiX).1  .d.N y.#Xs.< s p m :.:.*.:.=.-.",
"FXDXKXLXKXLXFXt.n U.>.' 3 Q.t > e > > + * % % !.{ X * t ( @.> : ] ] jXd.6.' +X&Xi p %.N &.M 3.4.=.%.",
"LXLXKXLXLXLXJX).[ _.2.} = a.( t / t ^ O.B - . lXB X   . - { .   B `.8XkXoX5.<.+X<.p *.%.u.kX<X3.4.=.",
"FXGXKXLXLXLXLX5X} @X| e.$ k -Xw.|..X@.GXaXr # lX].X . .   > y O 7 5X`.qXkXOXd.g.7.N &.g.,Xd.OXXX,.:.",
"LXGXLXLXLXLXGXZXt.=X(.r.1 4 =X:XCXGXCX).r B   cXcXr .     + 3 r + !.7X5XvX7X$X$Xu.s y.kX6X7Xa.6Xm m ",
"FXLXLXLXBXfXLXLXzX+.dX'.k z +.=Xa.r.V ] -X( + cXvXa..       . > O . r ) w.`.,X&Xj.a ,XXX2X@Xa.7X7 $ ",
"LXLXLXLXLXGXLXFXLXI.Q.lXq.l i @Xt -X7XvXbX3 X ZXvXbX6   @ o O   o o   . X V 6X&XXXm 0X@Xd.'.#.k .   ",
"GXGXLXKXLXLXGXJXJXsXaX X/.} 4 t.V bXxXxX'.. - CXvXvX5X%   o   . *   3  .B  .%X%Xs.s.$X2Xa. .= . .   ",
"GXKXKXKXLXLXGXLXLXHXeXMX4Xq.q.7  .`.xXkX] % e VXdX!.p.> o o . . x .XGX.X7 `.%Xh.j.#X2XbX] .   O O   ",
"LXKXLXLXLXLXLXLXLXLXfXNXdXw.r.k a.V jX5X>     e +       @ > @.fXJXlXsX#.V +X%Xh.g.6X2Xa.    @ o     ",
"LXLXLXLXLXLXLXLXLXLXDXiXGXBX{ { V  .w.x . .           / }.BXBXgX X:X].% d.3X3Xh.g.j.$X5X%     o     ",
"PXPX X X X}.aXJXFXLXLXVXiXFX].r.w.!.- * .   . * B !.fXlXgXcXZXlXcX5X6 8 OX3X&X+Xg.+X,X#X7 .       @ ",
"gX XLXLXLXKXgX}.DXLXGXLXGXdXdXQ./.)...  * $. XNXgXgXlXCXCXbXdXcX:X1   a.6X3X#Xf.&X<Xu.m l # .       ",
"sXLXLXLXLXLXKXKX|.BXLXLXGXLXLX:X.X/.!.- @ t W.5XZXCXbX5X5XVXbX/.1 . 8 `.#X#XOXd 7.d.s ' n # #       ",
"PXLXLXLXLXPXLXLXKX).LXKXLXGXBXcXGX X~.Q.  @ 6 +.~.-XcXcX5Xa.k . . # a.@X;XOXj e.3X#Xs.[ ' 5         ",
"LXLXLXGXLXLXLXLXKXBXsXGXLXLXDXLXLXLXaXI._   + O y ) _ x @   . #   6 -Xd./.1 d `.qX$X#XoXb 4 .       ",
"GXGXLXBXi.W.LXLXLXLX.XLXIXLXGXLXKXKXGX XO.y o + @   .     @     .  .'.a.X X | 2XqXOX3XxX5.4         ",
"LXLXLXUX$.#.}.PXKXLXNXfXPXLXLXPXLXaXB @   / e   O               6 ).+.% . . w.8X8XOX3XxXOX} .       ",
"GXLXLX}.W._ ` KXLXLXKX XLXLXDXgX`           t e .               ..B #     & d.8XxXg.2XqX6Xa..       ",
"PXLXLXW.UX_ aXLXLXLXLX XLXKX@.+ o             > > @     @     6 r X . . . 5 #XqX8Xh.g.qXxXd.. o     ",
"LXLXLX~._ _ W.KXLXLXLXsXaXe   o     o       @   e >           X . .   . $ V 2XqXqXs.f.+Xd.5..     . ",
"LXLXPXLXDXNX$.LXLXLXKXgXO.+                       > @   X X % % & $ & , , 7.6X9X9Xh.j.f.7.$X8 1 2 d ",
"LXLXLXLXIX#. XKXLXLXLXKX/                           . X x  ./.`.`.`.`.`.`.g.+XOXh.h.g.h.OXOX`.h.OX`.",
"LXLXLXDXO..XLXLXLXPXLXgX                        o o @ Q.r r.jXCXZXZXZXZXZXZXCXvXZXbXCXcXCXIXGXCXCX0X",
"LXKXLXLXLXaX|.LXLXLXGX X                        o o #.( # w.vXCXKXsX^.}.|..X}. X X!. X X}.~.cXGXCX7X",
"LXLXLXDXQ.u IXLXGXLXLXW.                        o / R.X . w.cXGXGX}.O.$.` i.O.` @.@.^.i.W./ fXGXFXjX",
"LXLXLXLXaXO.KXGXIXDXKX@.                        + }.+   # w.vXGXBXaX X.X XfXaXgXfX XaXIXfXfXIXKXCXjX"
};
