/* XPM */
static char *result[] = {
/* columns rows colors chars-per-pixel */
"50 50 136 2 ",
"   c #3A2E2A",
".  c #6E1F3C",
"X  c #701F3E",
"o  c #473A34",
"O  c #4A3C37",
"+  c #71203F",
"@  c #51423A",
"#  c #794C25",
"$  c #7F5028",
"%  c #742140",
"&  c #7D2D44",
"*  c #644E40",
"=  c #705743",
"-  c #6F6F6F",
";  c gray45",
":  c #83542A",
">  c #88572C",
",  c #8C592D",
"<  c #925C2F",
"1  c #9C5437",
"2  c #945E30",
"3  c #9F5D37",
"4  c #A65B3B",
"5  c #A95A3C",
"6  c #966032",
"7  c #996132",
"8  c #843745",
"9  c #8B3F49",
"0  c #C7314E",
"q  c #CA334F",
"w  c #C63451",
"e  c #CB3552",
"r  c #C63956",
"t  c #CC3955",
"y  c #D63D56",
"u  c #D83F57",
"i  c #8E414B",
"p  c #91474A",
"a  c #994D4F",
"s  c #9D554F",
"d  c #9D5450",
"f  c #B75643",
"g  c #B75A44",
"h  c #BD5948",
"j  c #8D6C4D",
"k  c #9A704C",
"l  c #9D7451",
"z  c #9B795D",
"x  c #A86253",
"c  c #BF655D",
"v  c #B26A5A",
"b  c #C7534A",
"n  c #C8564D",
"m  c #CD4C58",
"M  c #DB4157",
"N  c #DD445A",
"B  c #DB485F",
"V  c #D25654",
"C  c #E1465C",
"Z  c #E3495E",
"A  c #EA4C5F",
"S  c #E4515B",
"D  c #EE4F60",
"F  c #EE5263",
"G  c #EF5B65",
"H  c #F05264",
"J  c #C76E6D",
"K  c #C37D63",
"L  c #F06566",
"P  c #F1766A",
"I  c #BE8F62",
"U  c #AB937A",
"Y  c #B09578",
"T  c #CC815C",
"R  c #C3915F",
"E  c #CF935A",
"W  c #D2975F",
"Q  c #D88E65",
"!  c #D18D68",
"~  c #D79D64",
"^  c #D99E63",
"/  c #D59368",
"(  c #DD9D68",
")  c #EB8A6A",
"_  c #F3956E",
"`  c #DDA266",
"'  c #DEA469",
"]  c #DEA372",
"[  c #D7AC7D",
"{  c #E2A66A",
"}  c #E5A96C",
"|  c #EBAD6E",
" . c #F5A16D",
".. c #F1AD6F",
"X. c #EBAE71",
"o. c #F4A070",
"O. c #F5AE72",
"+. c #ECB072",
"@. c #F4B575",
"#. c #F6B877",
"$. c #F6B979",
"%. c #B07D8E",
"&. c #A78F9C",
"*. c #A9A8A9",
"=. c #A3A1AB",
"-. c #AAAEB1",
";. c #B0B6BB",
":. c #BDBABF",
">. c #F7B583",
",. c #F7BE82",
"<. c #F7C28D",
"1. c #F8CB9B",
"2. c #F8CDA0",
"3. c #F9D5AE",
"4. c #FAD7B3",
"5. c #FBDBBD",
"6. c #BEBCC2",
"7. c #C0BEC4",
"8. c #C2C1C6",
"9. c #C6C5CA",
"0. c #C8C7CD",
"q. c #C9C8CE",
"w. c #CDCCD3",
"e. c #CFD0D6",
"r. c #D0D1D7",
"t. c #D5D6DD",
"y. c #D7D8DE",
"u. c #D8D9DF",
"i. c #FCE5CF",
"p. c #FAE8D6",
"a. c #FCECDB",
"s. c #D8D9E0",
"d. c #EBE7E3",
"f. c #F1ECE5",
"g. c #FAEDE0",
"h. c None",
/* pixels */
"h.h.h.h.h.h.h.h.h.h.h.h.h.h.h.h.h.h.h.h.h.h.h.h.h.h.h.h.h.h.h.h.h.h.h.h.h.h.h.h.h.h.h.h.h.h.h.h.h.h.",
"h.h.h.h.h.h.h.h.h.h.h.h.h.h.h.h.h.h.h.h.h.h.h.h.h.h.h.h.h.h.h.h.h.h.h.h.h.h.h.h.h.h.h.h.h.h.h.h.h.h.",
"h.h.h.t.t.y.t.y.s.6.e.t.s.t.t.t.y.t.w.9.y.y.t.t.0.9.y.y.t.7.h.h.h.h.h.h.h.h.h.h.h.h.h.h.h.h.h.h.h.h.",
"h.h.h.t.y.t.y.y.s.6.r.s.t.y.y.y.t.t.w.8.y.t.t.t.q.9.t.y.t.6.h.h.h.h.h.h.h.h.h.h.h.h.h.h.h.h.h.h.h.h.",
"h.h.h.y.t.t.y.t.t.6.t.s.s.s.t.s.t.t.w.8.t.t.t.e.9.9.t.t.t.6.h.h.h.h.h.h.h.h.h.h.h.h.h.h.h.h.h.h.h.h.",
"h.h.h.q.q.9.9.9.7.6.6.6.6.7.6.7.8.:.:.:.6.:.6.6.7.0.y.t.t.6.w h.h.h.h.h.h.h.h.2 < < 7 , h.h.h.h.h.h.",
"h.h.h.9.8.6.q.w.q.q.w.w.e.t.q.8.r.t.e.t.r.t.t.t.q.9.t.t.t.6.w Z H F h.h.h.h.h.2 2 $ 2 : , h.h.h.h.h.",
"h.h.h.t.t.6.t.t.t.t.s.t.t.t.w.8.y.t.t.y.y.y.t.t.q.9.t.t.t.7.t Z h 1 2 < h.h.h.2 6 $ < , , 6 h.h.h.h.",
"h.h.h.y.t.6.t.y.t.y.y.t.s.t.q.8.t.t.t.t.y.y.t.t.q.9.t.u.t.:.w Z 4 $ , 2 h.h.h.6 2 > , 2 $ 2 h.h.h.h.",
"h.h.h.t.w.8.w.w.w.w.w.w.e.w.0.6.e.t.t.t.t.t.y.t.q.9.y.t.t.7.t C g , : 6 h.h.h.7 2 > : 2 $ 7 h.h.h.h.",
"h.h.h.7.8.8.8.8.8.7.8.8.7.7.6.6.7.:.:.7.7.7.7.7.8.0.t.t.t.7.w C V , # 2 2 h.h.h.2 , > 2 > 2 h.h.h.h.",
"h.h.h.t.y.s.s.y.t.6.t.y.t.s.s.t.t.t.t.w.7.r.t.e.q.9.u.t.e.6.w C F 4 > : 2 h.h.h.2 , 2 2 7 2 h.h.h.h.",
"h.h.h.t.s.s.s.t.t.:.t.t.t.t.t.t.t.t.t.e.7.t.y.t.0.0.t.t.t.:.0 u F n 2 > 2 2 7 2 < 2 2 2 2 h.h.h.h.h.",
"h.h.h.y.t.y.t.t.t.:.t.t.t.t.t.t.t.t.y.e.7.t.t.y.0.8.t.r.t.:.0 C F F 5 2 2 6 6 6 2 < < < 7 h.h.h.h.h.",
"h.h.h.t.t.t.t.t.t.:.e.t.s.t.s.t.y.t.t.e.7.t.t.t.0.9.t.t.t.:.w N F F S 4 6 2 6 2 2 < < h.h.h.h.h.h.h.",
"h.h.h.t.t.t.t.y.t.6.r.t.t.t.t.t.t.t.t.e.7.t.t.t.0.0.t.t.t.7.e u D D H F c z k l 7 h.h.h.h.h.h.h.h.h.",
"h.h.h.t.t.s.t.s.s.8.w.t.t.t.t.t.t.t.t.e.7.t.t.t.q.9.t.t.t.6.&.B H F A H J *.-.;.h.h.h.h.h.h.h.h.h.h.",
"h.h.h.q.9.9.0.q.q.7.8.q.0.q.q.w.0.w.w.q.7.w.w.w.9.7.t.t.r.7.=.N H H H A S g b h.h.h.h.h.h.h.h.h.h.h.",
"h.h.h.q.9.q.q.q.q.9.0.0.9.8.6.8.9.7.7.9.8.8.7.7.7.9.s.t.t.7.%.y H Z y q q e A H F H F h.h.h.h.h.h.h.",
"h.h.h.t.t.s.t.t.t.s.t.s.t.r.:.t.y.t.t.y.y.y.s.t.9.9.s.t.t.6.r 0 q y Z H D H H H F F F H h.h.h.h.h.h.",
"h.h.h.y.t.t.t.s.t.t.t.s.y.t.6.t.t.t.t.t.y.t.t.t.0.0.r.s.r.6.w D D H D A N N e q w e e C h.h.h.h.h.h.",
"h.h.h.t.s.t.t.t.t.t.t.t.t.t.6.e.t.s.y.t.t.t.y.t.0.7.s.s.s.6.u D C u q q N C A F H H D F h.h.h.h.h.h.",
"h.h.h.y.t.t.t.t.t.t.t.s.t.y.7.e.t.y.y.y.t.t.t.t.0.0.r.s.s.6.r 0 u C A D G L H F F F F h.h.h.h.h.h.h.",
"h.h.h.t.t.t.s.t.t.t.t.t.y.y.7.w.t.t.t.t.t.y.t.y.0.0.s.s.r.6.t F H P _ @.#.#.o.D F h.h.h.h.h.h.h.h.h.",
"h.h.h.8.8.8.8.7.8.6.6.8.6.6.6.6.6.7.6.6.6.7.6.6.6.q.t.t.e.6.m ) @.@.#.$.#.3.,.P h.h.h.h.h.h.h.h.h.h.",
"h.h.h.w.w.w.0.8.w.w.w.e.e.r.t.t.t.t.t.t.t.r.r.e.7.0.s.t.s.6.( X.' X.p.g.<.i.4.@.h.h.h.h.h.h.h.h.h.h.",
"h.h.h.t.t.s.w.8.t.t.t.t.t.t.y.t.t.t.t.t.t.t.y.y.q.q.s.s.t.6.' } +.4.; - 5.>.>.| h.h.h.h.h.h.h.h.h.h.",
"h.h.h.t.t.s.w.7.y.t.t.t.s.t.y.t.t.t.t.t.t.t.y.t.q.q.s.s.t.6.' X.$.<.d.f.<. . .@.h.h.h.h.h.h.h.h.h.h.",
"h.h.h.t.t.t.w.6.t.y.t.t.t.t.t.t.t.t.t.t.t.t.t.y.0.q.u.t.w.6.' U >.+.+.$.@.O.@.@.h.h.h.h.h.h.h.h.h.h.",
"h.h.h.s.s.t.t.6.s.t.t.t.t.t.t.t.t.t.y.t.t.t.y.t.0.0.t.r.t.:.' Y { Q X.] { { { | h.h.h.h.h.h.h.h.h.h.",
"h.h.h.y.t.t.e.6.t.t.t.t.t.t.t.t.t.t.t.t.y.t.t.t.0.0.t.t.r.:.( K T ( X.@.@.@.X.h.h.h.h.h.h.h.h.h.h.h.",
"h.h.h.y.t.t.t.6.t.t.y.t.t.t.t.t.t.t.t.t.t.t.t.t.q.0.t.t.t.6.} | $.$.$.#.#.#.$.$.h.h.h.h.h.h.h.h.h.h.",
"h.h.h.y.s.t.r.6.t.t.t.t.t.t.t.s.t.t.t.t.s.t.t.t.q.q.t.t.t.:.{ #.$.$.#.#.$.$.$.$.$.h.h.h.h.h.h.h.h.h.",
"h.h.h.y.t.t.t.6.t.t.t.t.s.t.t.t.y.s.t.y.t.t.t.t.q.9.s.t.t.:.} @.#.@.@.@.+.@.$.$.#.h.h.h.h.h.h.h.h.h.",
"h.h.h.t.s.t.t.6.r.s.t.t.s.t.s.t.t.t.t.t.t.t.t.s.q.9.t.t.t.:.~ ` ^ ^ ` ' } +.@.,.2.#.h.h.h.h.h.h.h.h.",
"h.h.h.9.0.8.8.6.8.0.9.0.9.0.0.0.9.9.9.9.9.9.q.q.8.q.t.s.t.:.W ~ +.#.$.@.$.@.| 1.a.#.h.h.h.h.h.h.h.h.",
"h.h.h.0.0.q.0.0.q.q.0.8.0.q.q.w.q.w.q.0.7.q.q.8.7.q.t.t.t.6.' E | | #.@.+.$.+.,.1.#.@.h.h.h.h.h.h.h.",
"h.h.h.t.t.t.t.t.s.s.r.6.t.t.t.t.t.t.t.e.8.t.t.s.9.q.t.t.t.6.{ ^ } ..#.#.X./ K v d i & h.h.h.h.h.h.h.",
"h.h.h.t.t.t.s.t.t.t.r.6.r.t.t.t.t.t.t.e.7.s.s.t.9.q.s.s.t.:.h.h.s a 8 . . % . % + . + % h.h.h.h.h.h.",
"h.h.h.t.t.t.t.t.s.t.s.6.w.t.t.t.t.t.t.r.8.t.t.t.q.q.t.t.t.:.h.h.. . . . % . . . X + % % h.h.h.h.h.h.",
"h.h.h.s.s.t.t.t.r.s.t.6.w.s.s.t.y.t.t.w.6.t.t.t.0.q.t.t.t.6.h.h.X . X . + + . . + . + . h.h.h.h.h.h.",
"h.h.h.s.t.t.t.t.t.e.e.8.0.e.e.w.w.w.w.q.6.w.w.w.8.q.y.y.t.7.h.h.+ . + X + h.% % % X . . h.h.h.h.h.h.",
"h.h.h.6.6.6.6.6.6.6.6.6.6.6.6.6.6.8.8.8.8.8.9.8.8.0.t.y.t.6.h.h.x p % h.h.h.h.h.% i K ! h.h.h.h.h.h.",
"h.h.h.r.e.e.6.w.r.t.s.s.t.s.s.q.9.y.t.t.t.t.s.t.0.q.t.t.t.:.h.{ ` h.h.h.h.h.h.h.h.h.$.#.@.h.h.h.h.h.",
"h.h.h.t.t.s.6.w.r.t.t.t.s.s.s.0.q.t.t.y.t.t.y.t.0.0.t.y.t.6.I ' { h.h.h.h.h.h.h.h.h.@.@.+.j = h.h.h.",
"h.h.h.s.t.t.8.w.s.s.s.s.s.r.s.q.q.y.t.t.t.y.s.t.0.q.y.y.t.6.@ R } h.h.h.h.h.h.h.h.h.@.@.@ @ o h.h.h.",
"h.h.h.t.t.t.8.q.t.s.s.t.t.s.s.0.q.t.t.y.y.y.y.t.q.q.t.t.t.6.O h.h.h.h.h.h.h.h.h.h.h.h.h.h.o h.h.h.h.",
"h.h.h.t.s.s.q.w.s.s.s.s.s.s.s.w.0.s.s.s.s.s.s.s.q.w.s.y.y.8.h.h.h.h.h.h.h.h.h.h.h.h.h.h.h.h.h.h.h.h.",
"h.h.h.h.h.h.h.h.h.h.h.h.h.h.h.h.h.h.h.h.h.h.h.h.h.h.h.h.h.h.h.h.h.h.h.h.h.h.h.h.h.h.h.h.h.h.h.h.h.h.",
"h.h.h.h.h.h.h.h.h.h.h.h.h.h.h.h.h.h.h.h.h.h.h.h.h.h.h.h.h.h.h.h.h.h.h.h.h.h.h.h.h.h.h.h.h.h.h.h.h.h."
};
