/* XPM */
static char *result[] = {
/* columns rows colors chars-per-pixel */
"50 50 244 2 ",
"   c #2D1E1D",
".  c #2E231D",
"X  c #382824",
"o  c #3C2B29",
"O  c #3E3129",
"+  c #402C2B",
"@  c #44332D",
"#  c #453734",
"$  c #4A3634",
"%  c #4C3C36",
"&  c #4D3D3A",
"*  c #513C36",
"=  c #533E3B",
"-  c #39593D",
";  c #3B653E",
":  c #494537",
">  c #4C443B",
",  c #54423D",
"<  c #5B443E",
"1  c #56493E",
"2  c #43693D",
"3  c #365C44",
"4  c #0A695E",
"5  c #196F5C",
"6  c #3A6445",
"7  c #2F685A",
"8  c #35645B",
"9  c #016A66",
"0  c #0B6B62",
"q  c #016B69",
"w  c #076B68",
"e  c #087167",
"r  c #0C726C",
"t  c #107066",
"y  c #13746C",
"u  c #197568",
"i  c #13796C",
"p  c #1C7C6B",
"a  c #137871",
"s  c #1C7C74",
"d  c #356965",
"f  c #237A68",
"g  c #3E776D",
"h  c #267D73",
"j  c #4A4C45",
"k  c #564441",
"l  c #5C4643",
"z  c #544C43",
"x  c #5C4A44",
"c  c #5C4E49",
"v  c #425B48",
"b  c #595447",
"n  c #5A5E54",
"m  c #604743",
"M  c #624B46",
"N  c #634C49",
"B  c #694F4A",
"V  c #65524B",
"C  c #6C534D",
"Z  c #66584D",
"A  c #72564E",
"S  c #685A52",
"D  c #6D5C54",
"F  c #735650",
"G  c #745A53",
"H  c #795D55",
"J  c #755E59",
"K  c #7A5F59",
"L  c #476B4C",
"P  c #4F6F4F",
"I  c #46734A",
"U  c #5A7B57",
"Y  c #656857",
"T  c #746459",
"R  c #7C635B",
"E  c #766A5B",
"W  c #447368",
"Q  c #5E7C63",
"!  c #4E7873",
"~  c #7A6962",
"^  c #6A7766",
"/  c #777867",
"(  c #637E75",
")  c #82655E",
"_  c #816A5E",
"`  c #836661",
"'  c #856B63",
"]  c #8C6D65",
"[  c #876B69",
"{  c #8B6E69",
"}  c #906F66",
"|  c #906F68",
" . c #847365",
".. c #8D7166",
"X. c #8E7268",
"o. c #877A6A",
"O. c #917067",
"+. c #91796C",
"@. c #857F72",
"#. c #1F8270",
"$. c #26836C",
"%. c #3A886A",
"&. c #36906B",
"*. c #2A8674",
"=. c #2B857A",
"-. c #358977",
";. c #3A9273",
":. c #468159",
">. c #58865D",
",. c #63885D",
"<. c #458C67",
"1. c #5B8765",
"2. c #569568",
"3. c #48887A",
"4. c #558579",
"5. c #459676",
"6. c #539E77",
"7. c #65866A",
"8. c #79816D",
"9. c #699A6B",
"0. c #668C7B",
"q. c #7C8975",
"w. c #74967A",
"e. c #4DA16D",
"r. c #59A37A",
"t. c #68A879",
"y. c #74AA76",
"u. c #6DB77C",
"i. c #74B47A",
"p. c #73BA79",
"a. c #85826E",
"s. c #898976",
"d. c #938473",
"f. c #968A79",
"g. c #87967C",
"h. c #98907D",
"j. c #A1917E",
"k. c #89A579",
"l. c #3D8F80",
"z. c #3E9382",
"x. c #558A82",
"c. c #449584",
"v. c #4A9986",
"b. c #569B87",
"n. c #689B8B",
"m. c #73978A",
"M. c #59A489",
"N. c #5CA791",
"B. c #69A48B",
"V. c #75AB88",
"C. c #7AB18F",
"Z. c #68AC94",
"A. c #79A897",
"S. c #79B59A",
"D. c #77BCA3",
"F. c #899B83",
"G. c #9C9884",
"H. c #A39C89",
"J. c #8CA78A",
"K. c #98A68B",
"L. c #93AC8D",
"P. c #89B58E",
"I. c #99B28B",
"U. c #87A896",
"Y. c #95AD92",
"T. c #86B999",
"R. c #95B393",
"E. c #9BB494",
"W. c #98B79C",
"Q. c #9DBA9B",
"!. c #AAA48E",
"~. c #A8AB95",
"^. c #A7B89B",
"/. c #B2B19A",
"(. c #8ABBA3",
"). c #98BBA5",
"_. c #8DB2B0",
"`. c #B2AFA5",
"'. c #A2BDA6",
"]. c #ACBDA2",
"[. c #B3BCA2",
"{. c #B9BBA2",
"}. c #C1BEAB",
"|. c #8CC39E",
" X c #9BC39E",
".X c #A6C19A",
"XX c #B7C79C",
"oX c #8BCAAB",
"OX c #9DC6A3",
"+X c #99CBA9",
"@X c #94D0B2",
"#X c #9BD7B4",
"$X c #A3C4A4",
"%X c #A8C6A5",
"&X c #A4CDAB",
"*X c #AACDAA",
"=X c #B6CCA7",
"-X c #A6D4AE",
";X c #AAD4AE",
":X c #A7DAAE",
">X c #A9DAAF",
",X c #B6D5AA",
"<X c #A7C4B6",
"1X c #B3CEB5",
"2X c #A5D6B2",
"3X c #AAD6B1",
"4X c #A5DAB1",
"5X c #A8DAB0",
"6X c #AEDBBA",
"7X c #B5DBB4",
"8X c #B9DAB7",
"9X c #BAE0B6",
"0X c #CBC9AE",
"qX c #CAC9B1",
"wX c #CADABA",
"eX c #D6D9BE",
"rX c #C2E4BC",
"tX c #C9E6BD",
"yX c #D3E7BE",
"uX c #B6D4C6",
"iX c #B1D3CD",
"pX c #D1D1C6",
"aX c #D4D7C7",
"sX c #CADED4",
"dX c #D4D4D3",
"fX c #D4DBD4",
"gX c #DBDBD3",
"hX c #D7D5D8",
"jX c #D8D6D9",
"kX c #C7E7C1",
"lX c #D8EAC6",
"zX c #DAF1C9",
"xX c #CAE4DA",
"cX c #E6EACA",
"vX c #E6F5CC",
"bX c #F1F6CC",
"nX c #E5E8D7",
"mX c #EBF6D6",
"MX c #ECFAD2",
"NX c #F3F4D4",
"BX c #F4FBD3",
"VX c #F9FDD5",
"CX c #CBE7E3",
"ZX c #D0E8E4",
/* pixels */
"5X5X5X:XP.+X:X:X5X5X:X5X5X5X5X5X3X3X;X;X3X*X*X&X$X$X).Q.Q.Q.E.R.Y.R.L.R.E.Q.$X*X*X3X:X-X3X2X4X5X4X5X",
"5X5X5X5XOX+X:X>X5X:X>X;X*X;XOXQ.E.Y.^.^.^././.~.G.K.~.G.s.s.g.H./ o.f.f.@./ / a.s./ F.Y.Y.W.-X3X5X5X",
"5X5X5X5X-X:X3X-X-XR.Y.^..X{./.!.H.H.E b  .o...E X V [ J X ~ @ ` + K R } = x H z k x X % c j ^ U.3X3X",
"5X5X:X:X;X XJ.^.~.o.H.h.+. .1 O D  .A = ..| ] G @ J ~ [ . $ c ~ o T m ) H N C S N J + & k   # b OX:X",
">X;X XI.^./.!.f.o.' ..O.] { = k B ' G $ ] O.] = = G N ' o S o c + [ ' C ' ] D   V ~ = $ l X $ & ^ 2X",
":XR.^.f.+.X...{ } } ] } } [ X F G _ H @ { ] ~ o J { K R $ V o $ O _ ] G A m <   K [ N + l o k $ : R.",
"R.[.E Z ..} ] } } } ) } } K X [ ' G ) X G B = o R O.' F F G K [ R ' ] ' ) ) ` ` { ~ C N N l l $ % ^ ",
"].h.< ' ] O.} } } ) H } ] B * ) ' A ) R ` ' [ [ [ { ] [ [ [ [ [ ' ] ] ' _ ' ' ' F = x x l l c $ = j ",
"qXR R _ H O.} | | G R { ] ' [ { { ' _ _ ) T C C B B B m l l m m m < < m m M x l k = & $ $ $ $ $ & : ",
"/.G ] A K { ] ] { H F G A V B M l M m m < m < x x l x x l N N N N M M M N N N M l $ = l l l N = b F.",
"d.R { C K J C m < < = m M M x M N M V N m 1 + O > n S Y c z l x N N N N N N N M l k = = = = = = F.3X",
"E C < * * = = % x N N B N N M M M M 1 A a.~.aXvXmXmXmXmXMXmXcX{.s.b c k z z z j c $ k l l N c N / 3X",
"> , l x x x x = = N c = = = * , % E 0XvXBXMXzXtX%Xg.7X7X7XrXtXzXlXlX~./ F.Q.'.$X).> k = = = l c ^ 3X",
"Y 1 = = = = = & b n z z x l , T 0XBXBXvXkX7X>X>X$Xw.;X5X5X5X>X>X-X&X6XkX%XR.&X3X<Xb x N l N N l J.3X",
"F.> z k k k k ^ 1X*X$X: = , !.NXBXcXE.,X>X>X>X5X&X9.3X:X5X5X5X>X5X|.A.T.6XkXR. X&Xz N N N N N M g.3X",
"g.: = k l l k / ;X>XL.: Z qXBXMX0XU L -X:X>X>X5X;X7.:X:X5X5X5X>X5X-XZ.N.Z.+XkX*XL./ N N x N N B / &X",
"L.b N M M N c Y 3X5X$XY cXVXBXXXU I ,.>X5X5X5X5X:X7.-X:X>X:X>X>X5X4X@X5.v.Z.oX8X].s.T B B M N M n ;X",
"J.T A C B M x 1 *X.XL.bXVXVXXXk.I.k.,.;X5X5X:X5X>X7.:X:X>X>X5X5X5X5X4XS.-.z.Z.D.6X[.E R G B M N z *X",
"].f.] ' H B M > '.K.bXBXVXbXvXBXBXBXcXrX5X:X5X5X5X7.-X:X5X5X5X5X5X5X4X#Xz.=.z.N.S.wX^.E ] ) C M z .X",
"%X+.....] H N , a.vXVXVXVXVXVXVXVXBXBXvX9X>X5X5X3X7.-X;X5X5X5X5X5X5X5X4XD.$.=.c.b.T.8XG._ ] K B x Y.",
"^.+.X.| | ] A M ~.VXVXVXVXVXVXVXVXVXVXBXyX>X5X5X5X^ 5X5X5X5X5X5X5X5X5X4X#X-.a =.5.Z.i.rX/ ] ' M & J.",
"[.o.X.O.O.] H N G.VXVXVXVXVXVXVXVXVXVXBXzX>X5X5X3XQ 3X5X5X:X5X5X5X5X5X5X5XZ.y s h b.r.C.=XT { A & q.",
"^.d.O.X.} } ) B d.VXVXVXVXVXVXVXVXVXVXBXlX>X>X5X5XQ 3X5X5X5X5X5X5X5X5X5X5XoXu r h -.;.r.*Xs. .K c 8.",
"^.d.X.O.} O.` B / VXVXVXVXVXVXVXVXVXVXBXtX>X5X5X-XQ 5X5X5X5X5X5X5X5X5X5X5X#Xf r r h -.5.t.=XT R c / ",
"^.f.....O.O.[ < T BXVXVXVXVXVXVXVXVXBXMX9X5X5X5X3XQ ;X3X5X5X5X5X5X5X5X5X:X4X;.q e i #.;.6.|.8.R M 8.",
"I.h.....O.O.] B D BXVXVXVXVXVXVXVXVXBXyX7X>X5X5X-XQ 2X5X5X5X5X5X5X5X5X5X:X4XM.9 q r i $.5.V.I.T b 8.",
"R.!...] ] ] ] C M BXVXBXVXVXVXVXVXBXvXk.tXtX>X5X:X1.&X3X5X5X5X:X:X5X5X5X5X4XN.9 q e e p $.:.E.b , ^ ",
"R.!.J C A A F m % cXBXBXVXVXVXVXBXBXI..XMXvX>X:X-XQ &X5X5X5X5X5X5X5X5X5X:X5XZ.9 q q e t f <.V.Y , : ",
"Y.Y ) _ _ ) ) H x Y cXcXBXBXbXbXBXXXk.bXBXzX,X:X:X1.OX:X5X5X5X5X;X5X5X5X:X:XN.9 q q q r p %.y.g.S z ",
"^.d.A A F H H A , z 1X8XyXbXbXbXXXP wXBXMXrXrX7X:X7.W.-X5X5X5X5X:X:X5X5X>X4XM.9 q q q r #.;.B.g.D k ",
"L.o.' ] } } } ) N n U.V.C.9X.Xk.,.2 yXyX=X9XmXkX2Xw.w.W.&X*X-X2X:X:X:X5X:X4Xc.9 9 q q r p &.r.J.T @ ",
"XXo.} } } } } ) V b 4.;.:.9.y.p.p.,.9.P P.3XuX'.W.'.sXsX<X).).).W.(.+X-X2X4X-.9 q q q e i &.6.J.S > ",
"[...] ..} } } ) B x W d 5.p.p.p.p.9.I I U OX_.uX'.ZXZXZXxXxXCXCXxXiXiX<X).).u q q 9 q q i $.e.L.c % ",
"~...} } } } ] ) M z W u 5.V.p.p.p.t.I I 7.iXxX<XCXZXCXCXiXiX_._._.A.m.0.! g w q q 9 q q e u <.J.Z z ",
"^.X...} } } } G M O W u 5.u.p.p.i.y.L ).iX_.( x.! d d d 8 8 7 g 4.0.A.(.<Xb.9 q q q 9 q e f <.F.1 % ",
"R.H.) G H F A m * j c.y ;.e.u.p.9.n ( 4.d d d g ! x.b.n.A.oX+X4X-X2X3X3X@Xy q q 9 q q q t -.b.K.D % ",
"$Xa.H ` ' ' ' G c j 3.y *.&.r.6 - v 3 6 8 (.#X4X#XiX4X4X4X4X5X5X:X:X5X4XZ.9 q 9 q q q q i &.C.s._ x ",
"R.{.) H F H F m & j x.a i $.p 2.7.>.- 3 w.2X4X5X:X#X5X5X5X5X:X:X:X:X4XoXu q q 9 9 q q e #.&.+X/ ' B ",
"&XI.j._ } ] } H c n B.l.r 0 4 r.r.>.2 6 >.>X5X5X:X5X5X5X5X5X5X5X:X#X#X-.9 9 q 9 9 9 q r $.5.1XE ' V ",
"-X^.d.} } } } ) B j B.3.y q 9 0 r.t.I ; w.3X5X5X5X5X5X5X5X5X5X:X:X#Xz.9 9 9 9 q q q q i *.V.K...{ C ",
">X^.d.O.} O.O.} V c m.v.s w w w y M.I I 9.4X:X:X:X4X5X4X5X5X:X#XoX=.q q q q q q 9 q r p ;.+X/ ] ] A ",
">X.Xd.O.O.O.O._ C > ( Z.-.y 9 9 9 0 5 7 W 4X#X4X4X4X4X#X#X#XoXv.0 9 q q q q q q q r i *.b.^.' O...C ",
">X^.j...} } ] ] C l Y (.3.h w q 9 9 9 4 5 M.D.oX#X@XoXD.N.-.4 4 w 9 q q q q q q e r $.;.OX/  ...] A ",
":XE.!.] O.O.....F N n (.b.c.y 9 9 9 9 9 9 9 9 4 4 e 4 4 4 9 9 9 9 9 q q q q q q a s c.V.F.' ......A ",
":XR.{...O.O.....A B c 1Xn.Z.p q q q q q q q q q 9 q q q w q w w w r r r a r a s *.-.A.).~ ..O...] A ",
">XR.eXo._ _ R R V N z eXE.T.*.i q q q 9 q q q q q q e e r y a h h h h h h h l.z.b.B.W.E ......O.] Z ",
"3XL.{./.}.pXpX}.f.b 1 eXyX-X5.$.r q 9 9 q q q q q r a #.*.-.3.n.A._.U.n.3.b.N.Z.D.2XK. ...O.O.O._ ~ ",
"^.wXnXgXgXgXjXjXnX}.1 wXMXyXC.%.p r q q 9 q q q a s l.-.n.uXxXsXsXfXfXfX1Xm.A.oX6XL.^.+...] _  .' NX",
"nXgXfXhXhXhXhXhXdXgX`.F.cXvX9XV.-.p 0 9 9 q r a l.l.-.).xXfXdXdXdXdXdXdXpXsXU.1XW.OXE.j.] R R E 0XnX",
"fXdXhXhXhXjXhXhXhXhXgX~.E.wXlX8XV.%.5 4 4 y #.-.v.b.<XsXdXdXdXdXdXdXdXdXdXdXpXq.&X3XE.G.H B M  .NXgX"
};
