/* XPM */
static char *b73c45d640ab44f4a428e822f166f755WA9OFAk4O22krsJm[] = {
/* columns rows colors chars-per-pixel */
"50 50 256 2 ",
"   c #393535",
".  c #3B2B17",
"X  c #573727",
"o  c #4F3E38",
"O  c #5B3A25",
"+  c #574836",
"@  c #644635",
"#  c #67482D",
"$  c #396267",
"%  c #584A47",
"&  c #565651",
"*  c #634A46",
"=  c #68584D",
"-  c #645A54",
";  c #6E574C",
":  c #76695B",
">  c #736B54",
",  c #577175",
"<  c #6C6665",
"1  c #7B7568",
"2  c #7D7677",
"3  c #757570",
"4  c #495D60",
"5  c #A34738",
"6  c #B2702D",
"7  c #905A3A",
"8  c #88795D",
"9  c #926D4B",
"0  c #B17651",
"q  c #867969",
"w  c #887A76",
"e  c #96746A",
"r  c #A57B6E",
"t  c #945A53",
"y  c #C47655",
"u  c #6F8777",
"i  c #CB8C3F",
"p  c #958954",
"a  c #8A8569",
"s  c #94866B",
"d  c #898575",
"f  c #958677",
"g  c #9C9777",
"h  c #A79475",
"j  c #B49D64",
"k  c #D09272",
"l  c #D8A86E",
"z  c #E39C6A",
"x  c #CFD656",
"c  c #E7EF5D",
"v  c #CFCE70",
"b  c #DBE46C",
"n  c #E6D27B",
"m  c #347A95",
"M  c #587B87",
"N  c #4A7482",
"B  c #667C87",
"V  c #568894",
"C  c #769597",
"Z  c #6F8D92",
"A  c #5590AC",
"S  c #6E9BAB",
"D  c #52A1B7",
"F  c #65A4B6",
"G  c #7AA5B5",
"H  c #35A9D7",
"J  c #36BAEB",
"K  c #38BDF7",
"L  c #2EB0E9",
"P  c #46A8CA",
"I  c #4AB6DC",
"U  c #59B9DC",
"Y  c #53A9CF",
"T  c #67B9DA",
"R  c #78BDDB",
"E  c #6CB1CB",
"W  c #48B8E6",
"Q  c #54BDEA",
"!  c #59BBE6",
"~  c #47BCF4",
"^  c #55BDF3",
"/  c #6ABEE2",
"(  c #39C1ED",
")  c #3DC3F7",
"_  c #7AC2D9",
"`  c #47C4ED",
"'  c #53C5EC",
"]  c #5BC3EC",
"[  c #56C7E9",
"{  c #45C4F4",
"}  c #4CC4F4",
"|  c #4CC9F5",
" . c #49C8FB",
".. c #53CAF4",
"X. c #5BCBF5",
"o. c #54CCFB",
"O. c #5ACCFA",
"+. c #56C4F6",
"@. c #5DD2FB",
"#. c #56D3F8",
"$. c #5BD1EB",
"%. c #67C7EC",
"&. c #78C8E8",
"*. c #75D2ED",
"=. c #62CCF5",
"-. c #6BCBF3",
";. c #64CCFB",
":. c #6BCCFB",
">. c #66C5F3",
",. c #74CDF5",
"<. c #6BD2F4",
"1. c #64D2FC",
"2. c #6BD2FB",
"3. c #68D7F6",
"4. c #7BD4F3",
"5. c #73D3FC",
"6. c #78D7F9",
"7. c #79E3FB",
"8. c #3691AE",
"9. c #8B8687",
"0. c #988B88",
"q. c #9C9687",
"w. c #999794",
"e. c #8A9195",
"r. c #A89B9A",
"t. c #B19B8B",
"y. c #A8A394",
"u. c #B8B39C",
"i. c #B6A691",
"p. c #8B96A3",
"a. c #94AEB5",
"s. c #A9A7A7",
"d. c #B7ABA8",
"f. c #BBB6A6",
"g. c #AAB4B7",
"h. c #B6B8B4",
"j. c #AEB0B2",
"k. c #9FAC9B",
"l. c #CC9B90",
"z. c #C3B59B",
"x. c #C9B08D",
"c. c #F2AB8E",
"v. c #C5B7A8",
"b. c #D4BBAB",
"n. c #C8BBB7",
"m. c #D1BDB5",
"M. c #C7AFA3",
"N. c #EFB8A3",
"B. c #B5C1BC",
"V. c #D1C893",
"C. c #E9CC99",
"Z. c #CDC2AA",
"A. c #CBC2BA",
"S. c #D3CABB",
"D. c #D5C6B9",
"F. c #D9CDB1",
"G. c #E9D8B7",
"H. c #EECEB4",
"J. c #FBEEB9",
"K. c #87B5CA",
"L. c #82BDD9",
"P. c #95BDD3",
"I. c #A5B9C5",
"U. c #B7BEC2",
"Y. c #A6B7C9",
"T. c #C4BEC0",
"R. c #89C4DC",
"E. c #98C8D9",
"W. c #9ED3DD",
"Q. c #A9C9D8",
"!. c #B4CAD8",
"~. c #B7CDD1",
"^. c #89CAE5",
"/. c #97CCE6",
"(. c #8AD4E9",
"). c #93D4ED",
"_. c #9CD4EB",
"`. c #9CDCEE",
"'. c #96D7E8",
"]. c #89CEF2",
"[. c #8DDBF4",
"{. c #86D8F8",
"}. c #9BDBF4",
"|. c #9BDBFC",
" X c #94D7F6",
".X c #A4DBEC",
"XX c #ABDDEB",
"oX c #A6D4E6",
"OX c #B6DAE7",
"+X c #A3DCF3",
"@X c #A7DBF5",
"#X c #B8DEF3",
"$X c #87E1FB",
"%X c #98E2F7",
"&X c #9EE1EA",
"*X c #A8E3EE",
"=X c #BCE3ED",
"-X c #B6E4ED",
";X c #ACE3F3",
":X c #ACE5FC",
">X c #A5E6FA",
",X c #B3E3F3",
"<X c #BCE4F3",
"1X c #B4ECFD",
"2X c #B9E9F9",
"3X c #B9F2FF",
"4X c #C9CBC7",
"5X c #D7CAC5",
"6X c #DAD4C9",
"7X c #C7D8DC",
"8X c #D8D7D5",
"9X c #D1CED0",
"0X c #E2CEC6",
"qX c #E4D7CB",
"wX c #E7DBD6",
"eX c #DDE5DC",
"rX c #F5E4CB",
"tX c #E8E3DA",
"yX c #F4E7D8",
"uX c #FCF1DE",
"iX c #E9E4C9",
"pX c #C7DCE5",
"aX c #D9DDE7",
"sX c #E7DDE3",
"dX c #C8E6EC",
"fX c #D8E7EA",
"gX c #CCEDFC",
"hX c #C5E9F6",
"jX c #D7ECF6",
"kX c #CCF2FE",
"lX c #C9F5FC",
"zX c #D4F2FC",
"xX c #DCF3FC",
"cX c #D4FCFF",
"vX c #DBFBFF",
"bX c #D7F2F5",
"nX c #E8E8E7",
"mX c #F6EBE4",
"MX c #E9F2EB",
"NX c #FAF4E9",
"BX c #E4EEF3",
"VX c #E9EEF5",
"CX c #E3F3F5",
"ZX c #EBF3F4",
"AX c #E3F3FC",
"SX c #EBF5FA",
"DX c #E4FCFF",
"FX c #ECFCFE",
"GX c #EEFAF5",
"HX c #F3F4F4",
"JX c #FCFCF5",
"KX c #F3F6FA",
"LX c #F4FCFD",
"PX c #FCFDFD",
"IX c #F9F7F7",
"UX c #F5EEF6",
/* pixels */
"6.5.5.1.=.X.@.=.;.:.1.o. . ...O.o.O.;.:.3.$.| #.7.3.5.:.6.6.#.#.@.@.=.2.5.2.,.6.{.[.|. X].>X:X:X:X:X",
"6.:.=.X...' [ ..O.o. . .) { | ..} } +.+.#.[ ` #.@.$.,.-.4.<.X.` ....$.X.5.5.5.6.4.{. X|. X|.>X:X@X:X",
"6.5.;.1.#.......} } { ( ( ` ` ..| { { | | { } } { ! R A R -.:.:.:.;.+.X.:.5.5.5.<.*.{.%X|.}. X%X X%X",
"5.:.X.O...' ` W W { ) ( ( ( {  . .( { |  . .o.o.J W E A A E T >.>.O.X.O.2.5.:.2.2.>.4.[.{.[.{.$X].[.",
"3.%.[ ' [ [ Q W ~ { ) ( ( J )  .) ) )  . . .@.@.` I E V 4 $ m ! W  ...O.:.,.2.=.2.=.&.,.4.6.$X4.&.{.",
"7.<.=.=.=.=.[ ' o. .J J J ) ) K ) K K {  .o...X.[ H V , 4 B m ! H J } O.:.:.<.;.1.1.>.-.&.*.&.^.(.[.",
"7.*.:.;.=.>.] +.o. .| ( ) ) K K ) K K K ~ { ~ W U A S u $ N 8.H L J } ..>.>.>.O.1.X.>.,.].+XXX;X).).",
"4.,.>.;.;.+.+.O.| o.#.| | | ~ ~ ) )  .~  .~ J I D Z Z u u A P H L L K +.^ ! ;.O.X.>.,.%XvXFXFXDXgX2X",
",.-.>.O.X.O.1.1.} O.O.+.O...^ ^ ` ` @.+.W ~ ( U G e.g i.u F H H L J J ` [ Q ^ ~ { [ ^.vXFXPXPXPXFXAX",
"6.6.2.1.@.@.1.1.;.O.O.O.@.o.O.Q I [ U ! I ] U D e.& + + 4 Z D P P P I U / T ! U W Y /.FXPXJXJXPXLXBX",
"6.*.-.=.X.=.2.;.+.X.1. .| #.Q U U T T F F F S Z e.a - d u e.C C C u , Z B M S A E E P.AXLXJXJXPXLXMX",
"<.6.<.=.@.X.X.] >.=.o. .` [ U Y D S V Z Z C a.k.V.u.z.S.D.A.8XA.S.iX~.j.U.g.a.S M A kXFXPXPXPXPXLXSX",
"=.2.=.1.#.....' %.=.o.....-.V V Z e.g.~.8X8XMXiXJ.C.G.yXyXtXmX5X5XnXyXtXNX7XAX#XP _ cXJXIXPXLXSXLXCX",
"X.=.=.=.O...+.X.-.=.` o.` &.E.dX8XyX4XtXqXyXiXC.l n C.H.qXqXqXwX6XmXyXuXtXVXhXF E R DXLXPXLXLXLXPXLX",
"=.3.<.-.:.;.:.>.%.%.o.{ W / P.ZXtXyX5X6XiXG.z i 6 6 6 j Z.iXF.uXNXyXmXmXmXVXK.Q.DXFXCXIXPXPXHXKXPXJX",
"<.6.6.<.6.{.{.].^._ -.%.%._ I.A.Z.rXtXyXiXx.6 i z n z C.x.z.G.rXmXyXNXwXKX!.R.cXFXJXJXPXPXUXPXPXPXPX",
"3.6.<.6.{.].@X/.G a.W.W.G a.B.u.u.F.iXS.v.Z.8 # rX; X i.G.yXrXyXyXmXyXKX#XR _.vXFXJXJXLXPXKXPXPXPXPX",
"*.*.-.6.].]./.K.fXPXFX7X~.k.q.y.u.Z.qXuXrX5X%   h.0.- v.wX0XuXuXrXNXNXfXK.E.E hXFXKXGXMXHXFXPXPXPXIX",
"%X].6.<.5. XK.C SXJXPXs.< tXd > t.F.qXuX0X0X5XsXs.tXS.F.yXqXmXwXNXNXHXI.Q.vX#XjXLXbXbXfXZXJXPXIXIXPX",
"2X].6.$X6.].E.pXPXIXJXtXtXMXq.d y.qXwX5X5X0X5X9X9X8XS.qXb.5X5XwXmXwX7X, U.pXpXaXY.Y.dXxXFXJXPXPXIXIX",
"_./.{.$X{. XOXLX9XUXJXJXIXnXs.d v.qXwXn.n.5Xn.h.T.n.d.D.qX6Xn.6X6XeXC B aXaXn.e.E R hXFXPXIXIXPXPXPX",
"DX2X(.6.$X}.OXFXaXmXJXJXnX8X4Xh.tXS.wX0X0XM.v.S.5XqXqXd.5XwXnX6Xf.9X9.e.s.w : e.L.R hXFXPXJXPXPXLXPX",
"LXcX(.{.$X%X_.OXUXPXnXmXwXd.UX7X9X6XmXM.M.b.d.qXwXyX5Xv.f.6X6XmX9Xn.0.e r M.w a.R. XAXPXPXIXPXIXSXZX",
"FXlX(.$X$X(.R.E.pXBXBXaX5X9XUXnX4XeXA.b.d.b.v.A.S.5XM.m.r.n.D.qXsX0.t.e N.r 9.Y.L._.AXPXPXIXUXUXVXCX",
"lX_.{.6.$X X].)./.E.E.Q.sXsXwXnXU.8Xn.M.v.Z.v.S.b.0Xm.m.n.d.m.qXD.l.k y c.r Y.^.^._.vXLXJXIXUXIXPXIX",
"3X^.].$X|. X).|. X(.`.-XVXsX8XZXU.U.4Xm.Z.i.S.D.D.D.b.D.d.m.D.H.l.C.y z y t.!.^.^.@XDXLXIXHXIXPXPXPX",
"gXoX/.+X@X@X1X1X1X1X*X~.LXJXtXNXg.U.8X5X6XS.d.r.s e x.F.D.S.b.H.k c.6 c.0 M.OX/.]._.cXGXLXPXGXJXLXLX",
"DXvXlX3XcXlX2XXXoX2X~.~.LXIX8XnXg.U.4X5X4X0.s.d.z.h x.V.V.Z.b.C.k k 0 z r mXjX@X/.Q.7XCXLXLXKXMXMXVX",
"FXFXDXcX3X;X`.;X-XOXh.8XPXBXUX8XU.g.r.r.s.5X9XT.i.j n b v V.M.b.l.y y k l.NXSXFXAXfXKXPXLXLXBXBXBXVX",
"AX7XOX*X%X%X>X-X!.a.j.GX9.9.s.UXaXh.d.0.d d e.9Xu.j x c b v Z.l.l.5 y t b.JXIXKXVXBXVXUXKXVXLXKXKXIX",
"gXXX'.'.[.>X:X,Xa.s.4X4Xw.s.9.s.PX8Xn.qXF.z.q.B.s p x c x b v t.c.5 z 9 b.nXVXSXAXfXBXBXLXLXJXUXPXPX",
"vX,X&X(.%X>X@X2XU.wXw w d.w %   eXsXn.i.u g z.G.g p v x x x x.h y 5 c.t 5XSXBXBXjXjXMXLXPXPXPXIXPXIX",
"xX#X.X).%X>X3X,X4Xd d 0.w.r.d.% w mXwXw q a g G.u p V.p p p p # s r c.t h.fXAXLXPXPXHXGXJXPXIXPXIXLX",
"zX#XXX+X%X>X3X-Xy.8 tX% Z d.0.0.9.wX0X5Xg p p s h 8 a i.e h p . : D.l.w h.dXDXLXIXLXfXdXZXPXPXLXPXLX",
"cXlX3X;X>X>X1XOXB.q.wXw.8X8Xn.0.w.0.5XA.S.8 g s f g > h s s q . o 9.p.Y.Q.dXAXSXAXSXzXdXjXSXLXLXKXKX",
"2X-X-XXX*X:X1X#X~.B.f.1 0XUX8X2 0.0.w 0.0.q q > = f : d 0.q w.< & e.9.!.kXdXzXSXjXgX<XdXzXFXFXLXLXLX",
"AXvXbXhX*X;X1X2XOXg.> p n.JXPX3 a q q 0.w w w w = 0.q q q w w.- 9.B p.Y.aXgXzXgXDXxXvXvXDXLXFXFXDXDX",
"zXzXvXlX3X>X>X@X.Xa.u p e qX8X< 9 9 8 @ * * * % ; r.w w f < - < * < p.p.P.L.L.L.R._..X@X#X#XpX#XOXOX",
"+X/.^.R ! Q ! ! Y R < u a rXJXu.p p 7 # @ X X @ * ; * = : 1 < & o & N B Y ! Y ! / U ! / &.,.&.R R &.",
" X{.,.>.^ K J W I E C u g u.NXuX> 0 9 # @ O X X O @ @ + + + > > < & N D Y L W W W I I I Y Y T T &.^.",
"&.T ! Q ^ ~ ~ +.W T K.u 6Xy.6XtXy.rXS.: t.q + @ @ # @ X X X @ * + & F U I W Q [ [ [ ! U &.&.^./.oX.X",
"%X&.%.%.^ ] ^ >.=.{.K.Q.FXJXGXGXLXLXPXLXPXr.> > : % = ; o o % o   $ _ *.! >.%.-.*.*.4.]. X@X@X,XhXhX",
"-X'.^.&.&.*.*.*.4.$XR.oXOXdXdX<XhX<X<XcXzXbXdXfXjX~.~.pXpXaXfX!.oXW.R.R.|.|.].].(. X X|.@X@X#XhXxXCX",
"lX=X;X+X`.}.[.(.(.(.&X'.W.E./.).R.^.R.E.R.W.oXW.E.K.P.E.E.Q.XX.XoXXX_._._./.+X;X;X>X:X#XhXgXgXAXSXZX",
"vXzXgX<X-X*X`.'.`.}.:X;X*XW.'.(.(.(.^.^.'.'.'.'.}.@X@X_..X.X.X+X.X_.@X|.}.+XXX2X2X2X2XgXzXAXxXBXSXSX",
"FXFXxXzXlXhX3X1X;XXXXXXXoXXX`.$X(.(.'.(.^.).'.`.|.}.}.}.:X*X;X*X).}.@X@X;X*XOX=X=X=X=XhXjXVXZXZXZXSX",
"AXAXxXBXbXbXlX3X2X2X,X,X<X2X1X&X>X}.).}.(.'.}.&X}._.+X}..X.X+X*X+X`.:X1X;X-XkXgXcXzXjXxXSXSXZXKXZXKX",
"SXAXSXSXGXMXlX=X2XhXhXkXhXlXlX-X,X1X:X;X*X*X*X*X:X1X@X.X,X;X,X;X;XXX,X,X=XhXOXzXhXdXjXSXZXVXVXHXKXKX",
"SXSXSXSXLXSXxXbXbXzXzXzXxXxXbXbXxXzXzXdX<X<X<X-X<X,X-X=X=XdXhX=X<XhXhXbXgXbXdXjXjXSXSXSXZXKXPXLXHXKX",
"SXSXSXSXFXSXGXCXAXxXCXxXCXbXBXjXjXSXbXjXgXzXkXkXlXhXgXgXkXzXzXgXlXzXzXxXxXCXAXCXCXSXFXKXKXKXPXIXIXIX"
};
