/* XPM */
static char *result[] = {
/* columns rows colors chars-per-pixel */
"44 50 150 2 ",
"   c #231C16",
".  c #0D244D",
"X  c #182B4E",
"o  c #0D2852",
"O  c #202F4E",
"+  c #22324F",
"@  c #023D6A",
"#  c #37415A",
"$  c #034472",
"%  c #0E4276",
"&  c #214D75",
"*  c #4F4C52",
"=  c #685950",
"-  c #635F6A",
";  c #E05707",
":  c #E05807",
">  c #E4661A",
",  c #E56A1F",
"<  c #E57412",
"1  c #E87712",
"2  c #E77814",
"3  c #ED7D13",
"4  c #EA7D18",
"5  c #E66D22",
"6  c #EA7D39",
"7  c #876A4F",
"8  c #836950",
"9  c #A57D51",
"0  c #867775",
"q  c #7C8178",
"w  c #EF8113",
"e  c #ED831C",
"r  c #F08215",
"t  c #F18519",
"y  c #F48B1E",
"u  c #EB8325",
"i  c #F38C24",
"p  c #F59026",
"a  c #F79429",
"s  c #F9962B",
"d  c #F9992D",
"f  c #EB8630",
"g  c #EC8A36",
"h  c #ED8D3B",
"j  c #F28B30",
"k  c #B7864E",
"l  c #A2805F",
"z  c #B78751",
"x  c #BE8B53",
"c  c #8F8979",
"v  c #B4876D",
"b  c #B38C6D",
"n  c #BD9573",
"m  c #C08E57",
"M  c #C18F59",
"N  c #D08C53",
"B  c #C3915B",
"V  c #ED8645",
"C  c #ED8847",
"Z  c #EF9340",
"A  c #F09240",
"S  c #F59B45",
"D  c #EF9154",
"F  c #F59D52",
"G  c #F09559",
"H  c #F7A156",
"J  c #F8A65F",
"K  c #C89660",
"L  c #D99D66",
"P  c #C09773",
"I  c #D8A572",
"U  c #F5A46D",
"Y  c #FAA76F",
"T  c #F7A967",
"R  c #F9B06D",
"E  c #E2AF7E",
"W  c #F7AD71",
"Q  c #FAB27C",
"!  c #FAB171",
"~  c #054D81",
"^  c #0F4F86",
"/  c #0B619D",
"(  c #266E9E",
")  c #0C65A2",
"_  c #0D68A7",
"`  c #0D67A8",
"'  c #0D69AA",
"]  c #1069AB",
"[  c #1C6CA4",
"{  c #106EB0",
"}  c #1071B5",
"|  c #1074B9",
" . c #1B79B9",
".. c #2074AB",
"X. c #237DB9",
"o. c #758FA1",
"O. c #6D95AE",
"+. c #6694B1",
"@. c #879EAA",
"#. c #8B9FAC",
"$. c #83A0AF",
"%. c #8EA3AD",
"&. c #9AA0A0",
"*. c #8FA7B5",
"=. c #90A9B8",
"-. c #A0ADA8",
";. c #AFB0AE",
":. c #B3B1AB",
">. c #BCB2A5",
",. c #B2B5B4",
"<. c #D6AB88",
"1. c #CDAA91",
"2. c #EEA28B",
"3. c #F0A78C",
"4. c #F3AE8F",
"5. c #E4B48B",
"6. c #EEB98A",
"7. c #FAB683",
"8. c #F0B887",
"9. c #F2B98D",
"0. c #FCBD8B",
"q. c #F6B986",
"w. c #EBBA92",
"e. c #E4BC9C",
"r. c #F4B492",
"t. c #FFB495",
"y. c #F3BC93",
"u. c #FCB997",
"i. c #FEBC99",
"p. c #C2B5A6",
"a. c #FCC08C",
"s. c #FEC496",
"d. c #FEC59B",
"f. c #FFCA9E",
"g. c #F6C194",
"h. c #CFC5B8",
"j. c #CAD8BC",
"k. c #FFCBA1",
"l. c #F2C8A3",
"z. c #9CBDD1",
"x. c #9EC2D7",
"c. c #BBC5C6",
"v. c #BBC8CB",
"b. c #9FCDE8",
"n. c #A1CFE9",
"m. c #A8D2E6",
"M. c #A5D2EC",
"N. c #A8D4EE",
"B. c #C2C7C6",
"V. c None",
/* pixels */
"V.V.V.V.V.V.V.V.V.V.V.V.V.V.V.V.V.V.V.V.V.V.V.V.V.V.V.V.V.V.V.V.V.V.V.V.V.V.V.V.V.V.V.V.",
"V.V.V.V.V.V.V.V.V.V.V.V.V.V.V.V.V.V.V.V.V.V.V.V.V.V.V.V.V.V.V.V.V.V.V.V.V.V.V.V.V.V.V.V.",
"V.V.V.V.V.V.V.V.V.V.V.V.V.V.V.V.V.V.V.V.V.r 3 < V.V.V.V.V.V.V.V.V.V.V.V.V.V.V.V.V.V.V.V.",
"V.V.V.V.V.V.V.V.V.V.V.V.V.V.V.V.V.V.V.V.3 3 3 V.V.V.V.V.V.V.V.V.V.V.V.V.V.V.V.V.V.V.V.V.",
"V.V.V.V.V.V.V.V.V.V.V.V.V.V.V.V.V.V.V.V.w w 3 1 < < 1 V.V.V.V.V.V.V.V.V.V.V.V.V.V.V.V.V.",
"V.V.V.V.V.V.V.V.V.V.V.V.V.V.V.V.V.V.V.1 3 w 3 < < < 1 r r V.V.V.V.V.V.V.V.V.V.V.V.V.V.V.",
"V.V.V.V.V.V.V.V.V.V.V.V.V.V.V.V.V.1 1 1 r r r < < < < 3 3 r V.V.V.V.V.V.V.V.V.V.V.V.V.V.",
"V.V.V.V.V.V.V.V.V.V.V.V.V.V.V.V.1 1 1 2 w 3 3 < < < 1 3 r r 3 V.V.V.V.V.V.V.V.V.V.V.V.V.",
"V.V.V.V.V.V.V.V.V.V.V.V.V.V.V.V.< 2 2 w r r r < < 1 1 t t t 3 < V.V.V.V.V.V.V.V.V.V.V.V.",
"V.V.V.V.V.V.V.V.V.V.V.V.V.V.V.3 < < f u w w i 2 1 d e y s a a 1 < V.V.V.V.V.V.V.V.V.V.V.",
"V.V.V.V.V.V.V.V.V.V.V.V.V.V.V.r 2 < a.Q t w J h < i d t s d d p < < V.V.V.V.V.V.V.V.V.V.",
"V.V.V.V.V.V.V.V.V.V.V.V.V.V.V.3 < h f.f.! r S f.g 4 d i t d p s e < 1 V.V.V.V.V.V.V.V.V.",
"V.V.V.V.V.V.V.V.V.V.V.V.V.V.V.3 < T f.f.k.R t s.f.g 3 t r r 3 2 < < 1 w V.V.V.V.V.V.V.V.",
"V.V.V.V.V.V.V.V.V.V.V.V.V.V.3 3 2 a.f.f.f.f.R R f.f.h r r w 3 < < < 3 w w r V.V.V.V.V.V.",
"V.V.V.V.V.V.V.V.V.V.V.V.V.V.3 i 2 f.f.w.P s.f.s.f.n 5.F r r 3 < < 1 3 r 3 r V.V.V.V.V.V.",
"V.V.V.V.V.V.V.V.V.V.V.V.V.V.a.f.9.d.f.g.b <.f.f.5.n y.d.J t 1 < < 1 3 3 V.V.V.V.V.V.V.V.",
"V.V.V.V.V.V.V.V.V.V.V.V.V.V.k.f.d.i.i.v   k.d.d.k.  v u.u.H 4 1 < V.V.V.V.V.V.V.V.V.V.V.",
"V.V.V.V.V.V.V.V.V.V.V.V.V.V.k.f.i.u.u.u.r.k.k.k.k.r.u.t.t.F 3 2 < < V.V.V.V.V.V.V.V.V.V.",
"V.V.| | V.V.V.V.V.V.V.V.V.V.V.S g t.u.u.i.d.f.u.k.u.u.t.t.j 3 < < < V.V.V.V.V.V.V.V.V.V.",
"V.V.V.V.| | V.V.V.V.V.V.V.V.V.V.< U i.u.d.y.r.2.d.d.i.i.Y 3 3 < 1 < 3 V.V.V.V.V.V.V.V.V.",
"V.V.V.V.V.V.| | V.V.V.V.V.V.V.V.V.1 W d.d.k.3.4.f.d.d.Q t r V.V.V.V.V.V.V.V.V.V.V.V.V.V.",
"V.V.V.V.V.V.V.V.| | V.V.V.V.V.V.V.V.V.N <.y.d.d.0.! h 3 3 3 V.V.V.V.V.V.V.V.V.V.V.V.V.V.",
"V.V.V.V.V.V.V.V.V.V.} $ ~ ' V.V.V.V.V.o X 8 L 7.F < 1 r r r V.V.V.V.V.V.V.V.V.V.V.V.V.V.",
"V.V.V.V.V.V.V.V.V.V.V.| / $ ' V.V.V.V.. . . = I f.6.V.V.V.V.V.V.V.V.V.V.V.V.V.V.V.V.V.V.",
"V.V.V.V.V.V.V.V.V.V.V.| | _ | | V.V.. . . 0 1.l I g.9 V.V.V.V.V.V.V.V.V.V.V.V.V.V.V.V.V.",
"V.V.V.V.V.V.V.V.V.V.V.V.V.V.V.V.| | ^ o - f.f.f.I 9.7 . V.V.V.V.V.V.V.V.V.V.V.V.V.V.V.V.",
"V.V.V.V.V.V.V.V.V.V.V.V.V.V.V.V.V.V.| { o.l.f.k.k.6.* o V.V.V.V.V.V.V.V.V.V.V.V.V.V.V.V.",
"V.V.V.V.V.V.V.V.V.V.V.V.V.V.V.V.V.V.V.% ] X.*.l.k.k.<.# V.V.V.V.V.V.V.V.V.V.V.V.V.V.V.V.",
"V.V.V.V.V.V.V.V.V.V.V.V.V.V.V.V.V.V.V.+ O & .. .%.&.O.p.V.V.V.V.V.V.V.V.V.V.V.V.V.V.V.V.",
"V.V.V.V.V.V.V.V.V.V.V.V.V.V.V.V.V.V.V.x z x z q ( $ $ [ k.k.V.V.V.V.V.V.V.V.V.V.V.V.V.V.",
"V.V.V.V.V.V.V.V.V.V.V.V.V.V.V.V.V.V.V.K x B K x c | ` $ >.f.f.f.V.V.V.V.V.V.V.V.V.V.V.V.",
"V.V.V.V.V.V.V.V.V.V.V.V.V.V.V.V.V.V.V.k.f.k.k.k.k.@. .V.:.0.s.s.V.V.V.V.V.V.V.V.V.V.V.V.",
"V.V.V.V.V.V.V.V.V.V.V.V.V.V.V.V.V.V.V.,.c.;.c.,.:.v.V.V.V.0.s.a.+.V.V.V.V.V.V.V.V.V.V.V.",
"V.V.V.V.V.V.V.V.V.V.V.V.V.V.V.V.V.V.-.=.z.%.z.=.#.x.=.V.V.V.V.V.| | | V.V.V.V.V.V.V.V.V.",
"V.V.V.V.V.V.V.V.V.V.V.V.V.V.V.V.V.V.j.M.b.M.n.b.N.M.n.M.V.V.V.V.V.V.| | | V.V.V.V.V.V.V.",
"V.V.V.V.V.V.V.V.V.V.V.V.V.V.V.V.V.V.m.M.b.M.M.M.n.N.M.b.M.V.V.V.V.V.V.V.| | _ / } V.V.V.",
"V.V.V.V.V.V.V.V.V.V.V.V.V.V.V.V.V.j.M.M.M.M.M.M.M.M.M.M.m.V.V.V.V.V.V.V.V.V./ ~ $ ) V.V.",
"V.V.V.V.V.V.V.V.V.V.V.V.V.V.V.V.V.e.w.7.9.B.V.h.9.9.w.e.V.V.V.V.V.V.V.V.V.V.| | _ @ V.V.",
"V.V.V.V.V.V.V.V.V.V.V.V.V.V.V.V.V.f.f.f.f.V.V.V.d.f.d.f.V.V.V.V.V.V.V.V.V.V.V.V.V.V.V.V.",
"V.V.V.V.V.V.V.V.V.V.V.V.V.V.V.V.V.f.f.f.V.V.V.V.V.f.f.f.V.V.V.V.V.V.V.V.V.V.V.V.V.V.V.V.",
"V.V.V.V.V.V.V.V.V.V.V.V.V.V.V.V.V.f.f.f.V.V.V.V.V.f.f.f.V.V.V.V.V.V.V.V.V.V.V.V.V.V.V.V.",
"V.V.V.V.V.V.V.V.V.V.V.V.V.V.V.V.f.k.f.f.V.V.V.V.V.k.f.f.f.V.V.V.V.V.V.V.V.V.V.V.V.V.V.V.",
"V.V.V.V.V.V.V.V.V.V.V.V.V.V.V.V.f.f.k.V.V.V.V.V.V.V.f.f.f.V.V.V.V.V.V.V.V.V.V.V.V.V.V.V.",
"V.V.V.V.V.V.V.V.V.V.V.V.V.V.V.V.U q.f.V.V.V.V.V.V.V.f.7.U V.V.V.V.V.V.V.V.V.V.V.V.V.V.V.",
"V.V.V.V.V.V.V.V.V.V.V.V.V.V.V.V.D G V.V.V.V.V.V.V.V.V.G G V.V.V.V.V.V.V.V.V.V.V.V.V.V.V.",
"V.V.V.V.V.V.V.V.V.V.V.V.V.V.V.5 V V V.V.V.V.V.V.V.V.V.V V 5 V.V.V.V.V.V.V.V.V.V.V.V.V.V.",
"V.V.V.V.V.V.V.V.V.V.V.V.V.V.5 g 7.V V.V.V.V.V.V.V.V.V.V Q 6 5 V.V.V.V.V.V.V.V.V.V.V.V.V.",
"V.V.V.V.V.V.V.V.V.V.V.V.V.V., 5 V.; V.V.V.V.V.V.V.V.V.: V., , V.V.V.V.V.V.V.V.V.V.V.V.V.",
"V.V.V.V.V.V.V.V.V.V.V.V.V.V.V.V.V.V.V.V.V.V.V.V.V.V.V.V.V.V.V.V.V.V.V.V.V.V.V.V.V.V.V.V.",
"V.V.V.V.V.V.V.V.V.V.V.V.V.V.V.V.V.V.V.V.V.V.V.V.V.V.V.V.V.V.V.V.V.V.V.V.V.V.V.V.V.V.V.V."
};
