/* XPM */
static char *_670781773117[] = {
/* columns rows colors chars-per-pixel */
"50 50 253 2 ",
"   c #1D100D",
".  c #291719",
"X  c #301814",
"o  c #392914",
"O  c #362925",
"+  c #3B322C",
"@  c #372D32",
"#  c #491718",
"$  c #462A2A",
"%  c #483828",
"&  c #58332E",
"*  c #543E2A",
"=  c #493939",
"-  c #6C332F",
";  c #793838",
":  c #3D423E",
">  c #52401C",
",  c #584829",
"<  c #4C4232",
"1  c #544837",
"2  c #6F512E",
"3  c #654A36",
"4  c #69543B",
"5  c #78573B",
"6  c #7C6228",
"7  c #76653A",
"8  c #513E44",
"9  c #633D43",
"0  c #314553",
"q  c #1F577C",
"w  c #305A74",
"e  c #396473",
"r  c #4B4448",
"t  c #57474A",
"y  c #56564D",
"u  c #534650",
"i  c #564A53",
"p  c #5C4C54",
"a  c #5B5456",
"s  c #684746",
"d  c #774546",
"f  c #675748",
"g  c #785945",
"h  c #614F57",
"j  c #665A57",
"k  c #785A57",
"l  c #5B655C",
"z  c #7A6348",
"x  c #736C4C",
"c  c #686359",
"v  c #776759",
"b  c #4A5567",
"n  c #695E65",
"m  c #466877",
"M  c #576E7C",
"N  c #6D6C6F",
"B  c #776969",
"V  c #797168",
"C  c #79777A",
"Z  c #903734",
"A  c #88443B",
"S  c #984D3E",
"D  c #A2543C",
"F  c #897535",
"G  c #8A4947",
"H  c #964948",
"J  c #92594D",
"K  c #875956",
"L  c #A34B45",
"P  c #A75A4A",
"I  c #A5585A",
"U  c #85694C",
"Y  c #99604F",
"T  c #887448",
"R  c #886A55",
"E  c #93665C",
"W  c #8A7458",
"Q  c #967859",
"!  c #B06D55",
"~  c #935B60",
"^  c #876865",
"/  c #956966",
"(  c #8A7769",
")  c #94786A",
"_  c #8D6C72",
"`  c #877A76",
"'  c #987977",
"]  c #A6716B",
"[  c #C2686B",
"{  c #77827D",
"}  c #9D873E",
"|  c #9A8647",
" . c #9A8458",
".. c #A58F5A",
"X. c #BBA456",
"o. c #9C8367",
"O. c #8D8475",
"+. c #978679",
"@. c #A48464",
"#. c #A78968",
"$. c #AC8C6A",
"%. c #B18E6C",
"&. c #AC956A",
"*. c #B4926E",
"=. c #A78773",
"-. c #AC9478",
";. c #B69976",
":. c #BB9B75",
">. c #B1A168",
",. c #BEA17C",
"<. c #C1A37E",
"1. c #396C8E",
"2. c #206090",
"3. c #1D74B0",
"4. c #2F77AC",
"5. c #557689",
"6. c #717D85",
"7. c #407BA6",
"8. c #167CD9",
"9. c #257BCF",
"0. c #3A86AC",
"q. c #3286B2",
"w. c #708B8F",
"e. c #658593",
"r. c #4B8EB1",
"t. c #5697B8",
"y. c #6895A8",
"u. c #1A86DA",
"i. c #1C8BDE",
"p. c #1B97D7",
"a. c #2F90C7",
"s. c #248BDA",
"d. c #2995D6",
"f. c #319AD6",
"g. c #29A2DA",
"h. c #38A9DB",
"j. c #198EE0",
"k. c #1C97E3",
"l. c #2697E2",
"z. c #239CE5",
"x. c #369CE3",
"c. c #1EA3E7",
"v. c #22A2E7",
"b. c #2BA3E6",
"n. c #24A6E8",
"m. c #2BA6E8",
"M. c #25AAE9",
"N. c #2BAAE9",
"B. c #37A7E8",
"V. c #33ABEA",
"C. c #2EB8EE",
"Z. c #36B6ED",
"A. c #3CB3EC",
"S. c #519ACE",
"D. c #51A7DC",
"F. c #6DAED4",
"G. c #4DB3EB",
"H. c #48B5ED",
"J. c #57BAEE",
"K. c #6ABCEB",
"L. c #5AC2F1",
"P. c #74C1EF",
"I. c #76C9F4",
"U. c #7CCBF4",
"Y. c #8A8789",
"T. c #998787",
"R. c #8A9496",
"E. c #999598",
"W. c #A48A8A",
"Q. c #A79587",
"!. c #A99999",
"~. c #B79291",
"^. c #9DA299",
"/. c #B0A48E",
"(. c #8797A6",
"). c #999BA4",
"_. c #A69FA2",
"`. c #94A6A9",
"'. c #A8A5A8",
"]. c #B6A9A9",
"[. c #BAAFAF",
"{. c #AAACB4",
"}. c #ACB4BB",
"|. c #B2B4BB",
" X c #B9B7BA",
".X c #C4AA86",
"XX c #D0B58D",
"oX c #D19EA1",
"OX c #CBA7A9",
"+X c #C5BBBB",
"@X c #CAC4BC",
"#X c #EBCDA4",
"$X c #88B5D1",
"%X c #ABBEC6",
"&X c #B4B9C3",
"*X c #B4BAC2",
"=X c #BBBDC3",
"-X c #C1BEC2",
";X c #9BC1D0",
":X c #BDC3CB",
">X c #B8C4C8",
",X c #B5CCD7",
"<X c #83CEF4",
"1X c #9BD6F2",
"2X c #B2DAEE",
"3X c #A7DDF8",
"4X c #ADE1F9",
"5X c #B4E4F9",
"6X c #BAE6FA",
"7X c #BCE6F9",
"8X c #C6C7CA",
"9X c #C6C9CD",
"0X c #D2CCCD",
"qX c #C7CCD2",
"wX c #CCD3D9",
"eX c #D3D3D4",
"rX c #DAD4D5",
"tX c #D2D6DB",
"yX c #D4D9DE",
"uX c #DBDBDD",
"iX c #E3DBDB",
"pX c #C5DAE3",
"aX c #D3DCE1",
"sX c #DADEE2",
"dX c #E0DEE0",
"fX c #CDE3EC",
"gX c #DDE1E5",
"hX c #DDE4EA",
"jX c #DFE8ED",
"kX c #C7E6F4",
"lX c #C4E9FA",
"zX c #CBECFB",
"xX c #D6ECF4",
"cX c #D1EEFB",
"vX c #D6F1FC",
"bX c #DCF3FD",
"nX c #E3E4E5",
"mX c #E8E6E6",
"MX c #E2E7EB",
"NX c #E4E9ED",
"BX c #EAEAEB",
"VX c #F0EFEF",
"CX c #E6ECF1",
"ZX c #EAEEF2",
"AX c #E2F0F7",
"SX c #EEF2F5",
"DX c #E3F5FD",
"FX c #EAF6FD",
"GX c #EEF8FE",
"HX c #F2F3F4",
"JX c #F4F6F9",
"KX c #F2FAFD",
"LX c #F9FAFA",
/* pixels */
"U.U.U.<X<X<X<X<X<XU.<X1XDXFXFXFXKXKXKXFXFXFXKXDX7XkX}.wXpXFXFXFXFXDXFXFXFXFXFXFXFXGXGXKXGXGXGXGXDXDX",
"<XU.U.U.I.I.I.I.I.I.I.5XKXKXKXFXKXKXKXKXDXKXKXDXDXDXC r qXFXFXFXFXFXFXDXDXDXFXFXGXKXKXGXGXGXDXDXDXDX",
"DX7X7XlX1XU.I.I.I.I.I.1XFXKXKXKXKXDXDXDXDXKXFXDXDXDXAX=XqXDXDXDXKXFXFXFXFXFXFXGXGXGXGXFXGXDXbXbXbXDX",
"KXKXKXKXDX3XU.I.I.U.U.3XKXFXKXKXKXDXDXDXbXDXbXbXDXDXAXxX9XbXbXDXGXFXDXGXGXDXDXFXFXFXFXFXFXDXbXbXbXbX",
"KXKXKXFXDXzX1XU.4XbXvXDXDXFXKXFXDXGXKXDXfX,XcXaXDXDXbXyX XpXwX9X+X'.!._.!.!.!.!.].!.8XbXbXbXbXbXbXbX",
"KXKXFXDXbXbXvXlXFXKXFXKXKXKXFXbXbXFXFXbX>Xn C '.tX[.W.( U !.'. X>XuXsXeXBXsXgXNXyXxXvXbXbXbXbXbXbXbX",
"FXDXbXbXcXbXbXFXKXGXDXKXKXKXFXbXvXbXDXGX^.= r ( '.qX0X0XeXHX9XeXeXHXnXLXKXnXJXZXxXbXbXbXvXcXzXcXbXbX",
"DXbXvXcXzXvXDXGXGXKXKXKXKXKXAXcXzXkX|.W.'.{.E.O.eXnX~.~.HX}.9XuXHXLXnXLXBXHXKXnXbXbXbXbXzXzXzXzXbXbX",
"vXzXlXzXcXvXDXDXFXGXKXKXKXGXDXzXzX{.9XuXVXHXuX!.0XqXOXB 0X0XNXnXJXBXZXLXnXLXLXxXbXbXbXvXzXlXcXvXbXbX",
"lXlX7XlXlXvXcXcXvXDXFXGXGXGXvXlXcXMXHXVXmXLXBXW.O.a C @  XgXNXgXCXsXZXCXsXZXSXfXbXbXbXvXvXvXDXDXbXbX",
"cXzXlXlX6X6XlXvXpX).n +XAXcXkXkXcXBXBXLXmXBXHX+.).R.E.B &X:XhXyXMXyXMXMXyXMXMXfXvXbXbXbXvXbXbXDXDXDX",
"cXcXzXzX6X5XlXbXC p p L ,XlXlXcXvXBXBXJXnXrX@X/./.Y.a '.R.k >X>XpX9XhXNXtXMXhXE.W.E.!.!.'.].wXDXDXDX",
"7X6X6X5X6X5XzXbXB h 9 H I ,X2XvXCX0XuXsX X~.=.E R ( k T._ +.^ T.' T.T.E.W.].+X[.ZXuXuXhXfXxXxXbXDXbX",
"zXlX6X5X6X6X6XlXN p 8 ; H I OXxXgX[.-XQ.~.!.[.@XuXuXNXBXtXeXyXCXtXNXqXyX9X[.` +.+XmXmXVXvXbXbXbXbXDX",
"DXDXcX7X6X6X6X5X6.8 . $ $ L ' ]._.0XiXLXmX0XrXuXVXmXZX8XnXeXSXNXgXZXyXNXBX9X:X[.[.rXmXNXbXbXbXbXbXbX",
"bXDXbXbXzX6X4X4X(.N i 9 $ H ' -XrXtXuXnX+X[ OXJXdX-X}.nXuXnXHXgXZXhXgXNXwXSXnXwXyXSXBXjXbXbXbXbXzXzX",
"bXbXvXvXvXzX4X5X(.@ . . ; I ~.iXtX8XBXLXiX[ oXHXiX-XmXdXLXBXJXgXSXsXCXNXeXLXnXtXaXhXaXsXbXvXbXbXzXlX",
"zXzXzXzXzXlX5XzXvXpXb . X L %.BXVXtXVXZXVXI ' mXnXMXrXJXmXKXBXHXSXsXZXsXmXLXuX&X9XaXtXaXvXbXbXcXzXlX",
"5X6X7XzXzX7X5X5X5X2X9Xn Z L ] mXmXdX_.B -Xt 8 ].0XJXBXJXBXKXnXJXhXZXZXsXMXLXaX2XpXwX=XaXfXbXcXzXlX7X",
"4X7XcXvXvXzX7X3X3X3XB h H I I BXJX].j B -X$ O 9XBXJXmXJXnXJXnXZXsXZXsXCXsXSX-XE.E.E._.E.'.-X,XzXlX6X",
"3X4X5XzXzX7X4X3X3X2XB h G ! P eXJX0XE.` B W.~ -XnXZXhXSXgXSXsXZXsXCX9XsXaXCXsXsXMXtXqXqX&X>X,XzXlXlX",
"`.;X1X4X4X1X].%X3XfXC p G P ! ~.{.).|.-X=X_.{.R.|.8XtXZXsXNXsXZXaXCX&X:X=XsXsXmXmXHXuXnXpXzXlXlXlXlX",
", > > 2 4 /.% V >XaXT.p d P ! d E.{.B h i a }.{.^ T.qXwXaXaXCXsXsXNX8XtX&X9XtXsXgXHXsXtX7XlX7XlX7XlX",
"+ f 1 % X Z % o Z ` _.p s P ! A _.&XN 6.Y.6.=X&X).rX_.{.&XwXMXaXMXsXT.W._.!.'.|.9XsX0X0XzXzXzXzXzXzX",
"o o w.x + 1 c z < c  X@ @ ; ! L {.=X&X}.&X&X&X8X&XdX).).&X&XqXwXMXaXqXtX-X'._.T.' |.=X8XxXbXvXcXvXvX",
"o o x 1 , { 1 < > < eX= @ - D D T.&XqX9XwXtX!.!.{.&X&X).E.&X,X=XMXtXMXJXnXJX8X|.{.|.|.|.pXbXbXvXbXbX",
"^.< o | /.y , , 1 @X|.r O # ; D K BXHXmXnXJXT.J W.sX8X{.) ~.&X&XwXaXBXLXBXJXOX~.W.W.E.).&XFXFXFXFXDX",
"^.x F , { x , -.7 nX{.N v .. .2 - 0XnXsX=XE.W.Y !.tXtXMX-.Q K ' &XtXnXJXnXHXY.` ^ k B ^ B !.8XCXGXKX",
"7 x `.f { { 6 6 /.^.R.^.>...>.| g W.!.[.E.c ( J V E.*X>X&X/.*.; H =X0XZXgXnXBXeX0X8X{.'.&X,X}.9XCXvX",
"7 ;X5X{ w.,Xx w.,XV O.&.,.X...| 5 ~ A ' H ' / E V B Y._.{. XXX5 d H -XsXtXtXyX8X+X=X'.'.2X5X5X4X5X4X",
"t.I.L.e.t.L.l $X$X^ ( ..} } ..| 7 &.Q.' ) ' / ' J E / ` f 1 XX..& 3 H aXqX9X>X&X'._._.N U.U.U.I.P.P.",
"F.D.L.t.t.L.{ F.N k V >.F 6 ..F 6 Q Q %. .@.&.R ( ) ) J _ s /.%.U * ; _ :X9X).{.R.R.E.8 J.J.L.L.J.J.",
"S.D.D.F.F.D.m F.6.k Q | | X.} F F F U T $.$.&.o.W *.=.V E K -.;.Q Q & & Y.,X6.(.6.C Y.= S.H.H.G.G.G.",
"y.S.D.4.4.4.w 4.m ^ U z , % o 2 F 7  .W  .#.,.,.&.&.=.( @.#.;.;.W .X@.%.< N a O 0 C C w 1.B.A.A.B.A.",
"7.2.2.2.4.$X7.S.6.Q U 7 r r r A P Q ;.XX-.$.,.,.:.;.&.$.@.Q ;.*.5 U #.$.-   & X @ 4.5.f.b.V.b.b.N.V.",
"4.S.S.D.D.K.x.x.4.R W .Xi p N K P $.XX#X.X,.,.;.;.;.*.*.$.U <.#.XX:.<.@.5 X k 1 % O $ 0 g.M.N.N.n.M.",
"9.8.8.8.8.s.9.8.4.Q .X#X] I I - j k ( ' o.) &.;.;.( $.&.@.o.:.U T .X.XQ Q f 3 , 3 % X X 2.c.c.M.M.c.",
"i.l.j.l.i.l.s.s.S.XX) v L Z Z d 8 # E.d & ' R ) Q *.f #.;.:.W Q #.Q W  .) 3 % * 4 < % O a.c.C.C.C.V.",
"i.j.8.j.i.8.8.s.y.] ~ j N N n 9 k s j ' B W./ / t % 8 s K ) -.$.@.#.@.U @.z * * 4 , + + c.M.M.M.c.n.",
"8.j.8.8.j.j.l.i.a.t G ) n u u 9 L A 5 *.R $.+.j ( ^ s G / G K / ] -.@.g 4 z , 4 g t + + p.M.M.M.n.z.",
"j.8.j.z.B.B.B.x.x.5.W @.) u u t L S 4 #.U :.:.Q ( U W V O./ / G ^ Z _ R ) U 4 3 < y + + h.M.c.c.n.m.",
"s.i.l.m.G.H.z.l.x.r.5 Q ) p u u Z P 3 Q W $.,.W %.$.*.j U #.@.O.( ^ K K Z ^ v s % g % + d.c.k.v.m.H.",
"B.A.B.V.m.H.H.A.H.s.g Q #.h u u - ! G &.XX( W ;.;.*.%.Q  .#.#.W < Q R ^ B G d & % # O $ a.v.Z.M.b.A.",
"H.k.j.z.Z.m.z.z.j.j.5.g <.O.u u t S A 2 U Q o.&..X.XXXXX.X%.! Q R Q Q c < z f t $ = X . 3.c.M.m.v.l.",
"M.n.m.V.m.z.l.j.z.z.d.$.*.U u u 8 - I - g :.:.&.Q Q Y R Q #.;./..X@.R U z 3 < o < + o O f.V.M.c.v.v.",
"j.j.j.k.z.B.B.B.l.V.f.5.4 Q k r 8 8 H A 2 U #.&.%.%.@.@.@.o.W U U R =.=.v 3 , % * % % q.Z.m.m.n.N.N.",
"B.H.H.H.B.m.B.x.B.m.k.i.M y V b 0 b 8 ~ s j O.+.O.O.+.+.+.O.O.( V V c y y c l y r : 0 M.k.v.Z.Z.Z.Z.",
"k.z.l.A.J.H.m.k.u.j.j.j.b.y.e.5.1.w 1.m M m M e.e.e.e.e.w.w.w.w.w.e.M m m e e e e e q k.M.c.c.c.N.A.",
"z.z.z.k.k.M.V.B.B.G.J.J.L.H.f.r.q.q.q.q.0.r.4.0.r.0.t.r.r.t.t.r.4.0.0.0.r.r.0.r.0.0.0.L.L.L.H.Z.V.m.",
"H.H.Z.Z.A.B.V.V.z.l.z.N.M.M.M.M.g.g.p.p.u.u.p.a.g.a.g.h.f.g.p.d.d.a.g.g.g.g.D.h.g.g.p.g.M.c.g.M.m.n."
};
