/* XPM */
static char *_670781210237[] = {
/* columns rows colors chars-per-pixel */
"50 50 253 2 ",
"   c #0C0201",
".  c #0B0A04",
"X  c #0C0D0D",
"o  c #080607",
"O  c #130302",
"+  c #1B0202",
"@  c #130B0B",
"#  c #1B0B0A",
"$  c #180807",
"%  c #18110D",
"&  c #0D0D13",
"*  c #130C12",
"=  c #1A0C17",
"-  c #141213",
";  c #1B1314",
":  c #141319",
">  c #19191A",
",  c #0D1112",
"<  c #230201",
"1  c #2B0102",
"2  c #250809",
"3  c #360507",
"4  c #28110C",
"5  c #37150B",
"6  c #2A0B13",
"7  c #390A13",
"8  c #261717",
"9  c #381719",
"0  c #2B221C",
"q  c #35251B",
"w  c #041328",
"e  c #1B1A24",
"r  c #071D36",
"t  c #281D24",
"y  c #391B24",
"u  c #162631",
"i  c #29242B",
"p  c #372827",
"a  c #3A352C",
"s  c #3A3738",
"d  c #2E3033",
"f  c #4A0508",
"g  c #56070B",
"h  c #460B17",
"j  c #5A0B1B",
"k  c #461819",
"l  c #58171B",
"z  c #4C170B",
"x  c #66060C",
"c  c #690716",
"v  c #681817",
"b  c #741015",
"n  c #4E271A",
"m  c #702617",
"M  c #491B25",
"N  c #561A25",
"B  c #561F36",
"V  c #781725",
"C  c #6C1525",
"Z  c #472627",
"A  c #592527",
"S  c #48322B",
"D  c #533528",
"F  c #492832",
"G  c #5A2837",
"H  c #493834",
"J  c #553937",
"K  c #67272A",
"L  c #652C37",
"P  c #752D36",
"I  c #663B37",
"U  c #70342D",
"Y  c #37452E",
"T  c #4C4437",
"R  c #57443A",
"E  c #4E4F34",
"W  c #66483A",
"Q  c #784337",
"!  c #66693A",
"~  c #113152",
"^  c #333A47",
"/  c #163760",
"(  c #513742",
")  c #6D3945",
"_  c #2F4557",
"`  c #594943",
"'  c #4C4D50",
"]  c #674844",
"[  c #77574A",
"{  c #665A58",
"}  c #785855",
"|  c #704F4B",
" . c #786559",
".. c #6D6B54",
"X. c #515A66",
"o. c #57646F",
"O. c #756768",
"+. c #717070",
"@. c #616460",
"#. c #8B121C",
"$. c #861A28",
"%. c #98182A",
"&. c #861127",
"*. c #B01D2F",
"=. c #8C232D",
"-. c #8E3033",
";. c #A82636",
":. c #B72636",
">. c #A82A32",
",. c #8A3217",
"<. c #C2253E",
"1. c #914E36",
"2. c #AB5738",
"3. c #955C33",
"4. c #8F3B46",
"5. c #B03747",
"6. c #C7364C",
"7. c #CC3849",
"8. c #8D524F",
"9. c #B34B4F",
"0. c #896557",
"q. c #986A57",
"w. c #9B7858",
"e. c #8E6549",
"r. c #AA6248",
"t. c #B66949",
"y. c #A87559",
"u. c #B17056",
"i. c #B45869",
"p. c #896965",
"a. c #956B69",
"s. c #8A766B",
"d. c #9A7767",
"f. c #8A7975",
"g. c #997876",
"h. c #9E6973",
"j. c #A67866",
"k. c #A47A76",
"l. c #B46E75",
"z. c #915463",
"x. c #CB4856",
"c. c #C47754",
"v. c #CC5465",
"b. c #D06F68",
"n. c #7A815B",
"m. c #7C8372",
"M. c #9A837B",
"N. c #8D8F75",
"B. c #A98778",
"V. c #B88B79",
"C. c #B49471",
"Z. c #ABAA7C",
"A. c #C5876A",
"S. c #C68A76",
"D. c #C89677",
"F. c #D59671",
"G. c #D3A87B",
"H. c #DA9571",
"J. c #6E7A87",
"K. c #516E8E",
"L. c #8F7D85",
"P. c #B67D88",
"I. c #CA7987",
"U. c #778493",
"Y. c #7B97AF",
"T. c #888988",
"R. c #968B85",
"E. c #999997",
"W. c #919191",
"Q. c #A88886",
"!. c #A9948A",
"~. c #B89786",
"^. c #A79894",
"/. c #B59192",
"(. c #A8AC86",
"). c #B8A299",
"_. c #B6B996",
"`. c #AAAA93",
"'. c #909AA0",
"]. c #98A6AA",
"[. c #9BA7B5",
"{. c #9AB4B5",
"}. c #A5A6A7",
"|. c #A7ABB5",
" X c #B5B6B7",
".X c #B3ACAF",
"XX c #A7A090",
"oX c #C79D88",
"OX c #CF9390",
"+X c #D6A686",
"@X c #C5A499",
"#X c #D6AA98",
"$X c #D1B28C",
"%X c #E6B191",
"&X c #C4AAA7",
"*X c #CBBBB8",
"=X c #D9B8BB",
"-X c #CFB2AA",
";X c #EFB6B5",
":X c #DE8E99",
">X c #B9C299",
",X c #B9C4B0",
"<X c #D3CE8D",
"1X c #E3CB98",
"2X c #D7D8A6",
"3X c #D9DCB6",
"4X c #CBCBB0",
"5X c #E3DBB7",
"6X c #ECCDAE",
"7X c #DCE2B8",
"8X c #E7E5B9",
"9X c #E6E4A8",
"0X c #AEB9C5",
"qX c #93ACC6",
"wX c #D2BBC4",
"eX c #F5BBC7",
"rX c #B3C6D1",
"tX c #BBD6EA",
"yX c #BDEDFC",
"uX c #B9E8F8",
"iX c #BDF2FB",
"pX c #B9E7EF",
"aX c #C6CCD5",
"sX c #D7D8DA",
"dX c #CECBCD",
"fX c #E5D8DB",
"gX c #FBD4D8",
"hX c #EECACC",
"jX c #EAEDD2",
"kX c #D6DCE8",
"lX c #CEDAEF",
"zX c #FADBE5",
"xX c #EFDEEA",
"cX c #D6E6E9",
"vX c #CBECF4",
"bX c #C4EDFD",
"nX c #CBEDFD",
"mX c #C6E8F6",
"MX c #D5EAF9",
"NX c #C4F2FA",
"BX c #CCF1FD",
"VX c #C9F6F8",
"CX c #D2F4FD",
"ZX c #D7F3F7",
"AX c #CAE7E8",
"SX c #E8E9E7",
"DX c #FCE7EA",
"FX c #EBEDF3",
"GX c #EBF8F9",
"HX c #FDFCFD",
"JX c #F7F7F7",
"KX c #F4EEF0",
"LX c #D6EBD5",
/* pixels */
"VXNXbXvXbXNXiXuXBXnXbXbXnXCXCXCXBXCXVXVXBXCXKXgXI.v.v.v.v.v.i.P.gXeXdX4X/.k.} | } } 8.h.l.) P P K P ",
"NXNXvXAXvXvXpXNXmXmXnXNXbXnXBXvXCXmXVXVXMXFXwXI.v.v.9.5.6.5.eXeX:XeXDXzX=X@X@X0.k 7 h M N N l A K U ",
"VXAXcXdX X XE.].AXpXNXyXiXNXNXVXCXCXZXZXFX-Xi.i.x.:.4.;.;.-.;Xl.h./.&Xg.A L k.J 7 3 7 7 h 7 9 7 l K ",
"vX].T.@.@.N.R.T.AXpXNXyXiXiXNXvXBXBXCXSX&Xl.9.5.5.:XgX;X$.9.OXeXhX=X-X).k.Z 5 5 3 3 1 6 3 7 6 M N P ",
"ZX{.}. X4XrXdXaXpXuXNXbXiXiXNXbXNXvXFXwXh.9.i.4.OXKXgXzX#XgXOX.X4X-X^.R.Q.} G B.g.a.k 1 1 7 7 h N P ",
"SXFXcXsXAXsXcXAXyXyXbXbXyXiXbXbXNXcXhXl.I.eXzX:XhXHXdXzXgX8.L.eX*X*XwX` ) k.p.a.0.Q.a.1 1 3 3 h N P ",
"GXGXZXZXMXmXmXnXnXbXuXyXyXiXmXmXBXkXI.z.eXzXzXwXzXHXHXwX) f z.=X=XoXI 1 9 p.L.Q.!.).g.k k 1 3 k N K ",
"HXGXZXBXnXnXMXMXlXlXlXmXyXNXnXMXcXdXz.v.DXxXzXzX/.hX6XI g f g g z 3 3 1 3 k.p./.).!.} Q.Q.8.7 5 N A ",
"GXGXZXZXbXnXMXkXwX/.P.0XcXbXCXMXzXL.4.I.HXgXzXOXP OXi.x m m m b v f 3 3 q.g.R.D p.p.0.Q.Q.B.[ 7 k A ",
"HXGXGXGXGXGXdX/.l.v.P.eXKXcXkXxXI.=.) :XDXDXl.m ,.t.c.2.c.c.2.,.A.t.r.m j.n 1 1 1 p./.L.Q.B.a.5 k G ",
"HXJXGXJXKXeXI.v.v.x.5.I.wXhXwXP.4.V &.5.I.-.m ,.2.c.2.c.A.c.t.t.2.t.A.F.1.m 1 3 1 ] .XQ.Q.f.g.9 k S ",
"HXHXJXJXzXP.v.x.6.6.6.x.5.8.4.V C C c b b x 3.2.c.G.+X%XG.H.F.G.H.F.A.t.A.A.m 3 1 9 &X).a.g.f.7 y F ",
"HXJXHXHX:Xi.6.7.6.<.<.6.;.=.&.V c c x c V 9.,.3.F.+X+X%XG.G.1X1X%X$X1X%XH.H.9.=.3 < f.!.^.L.) 7 9 Z ",
"HXHXJXzXi.x.6.<.<.:.<.*.%.%.b x g g g g v r.w.3.$X8X6X6X1XA.+X6X6X#Xy.w.C.G.c.2.g < Z !.Q.Q.B 3 M Z ",
"HXHXHX=Xi.6.:.:.*.*.*.%.%.&.c j g f x ,.u.V.y.B.%X6X6X6X6X$Xy.Q Q e.Z.D.G.6XH.c.U 1 + R Q.] < 4 3 D ",
"GXGXcX).i.:.:.;.*.*.#.%.&.c c g f 7 l 1.e.R w.0.M.~.C.B.C.C.a.1.A I e.G.1XG.A.3.m z 1 + + + < + 5 w.",
"bXbXlXP.9.>.%.%.;.&.$.%.b c g 7 6 6 < 2 $ O # O % T J < O $ q } a.V.V.3.y.G.2.1.v n 1 < + + + 5 e.V.",
"uXuXlXP.8.%.=.$.&.V &.V c j h 2 + O   $ $ @ @ o         $ O . O 4 d.@X6XoXD.r.2.z A 5 2 + O < [ q.e.",
"uXuXlXL.4.V V C C j j N M 7 6 = $ ; 8 i t p ' +.+.+.p $   o   - $ O E -X6XoXq.q.5 q q $ + + + W e.u.",
"uXuXMX|.) K c j B 7 7 M 7 6 6 6 8 t t @.0XKXFXKXJXHXJXsX+., . X % # % 0 { s.| | 4 4 % $ + 2 + 5 w.D.",
"uXuXuXrX] L C j j 7 7 6 0 p p i t { dXJXJXHXJXHXJXJXJXJXJXaXs o - > ; > : e 8 y 8 ; 8 8 + O O + n C.",
"uXuXuXlXL.I N M h 7 6 $ $ > ; a { xXKXKX XR.+.O.f.L.}.SXJXSXSXT.8 @ % 0 d H a s t ; = # # @ @ $ 5 q ",
"NXBXCXMXsXO.G B M 7 7 6 % % 4 +.^.SXE.8 @   $ O O O   ; +.SXFXjX}.a % $ O $ # # * X t * o   o = 4 9 ",
"CXBXbXCXZXsXL.( y y 7 2 4 $ % !.^.dX    # 8 + # $ # $   . @.SXSXdXM.H S n R ` 0 ` : > : : = O = > q ",
"CXCXVXVXZXZXcXrXW.@.s 8 t 2 q !.^.T.$ $ # + $ O # = #       R.SXfX.X} k A B.p.6   , i e - - * ; 8 i ",
"CXmXNXyXNXCXmXrXo.X.d s i $ D d. .O.p   $ $ O 4 2 $ 4 4 O   8 *XkXwXp.D Q V.0.O @ , > > % % : ; 8 p ",
"pXNXbXnXnXuXpXrXtXY.+.^ 8 @ | ..q @.a   + 2 2 + < + O   O O   O.wX.X[ I y.V.| $   . : @ X - > > > i ",
"CXVXBXnXnXnXuXY.U.o.^ i > %  .W O a 9 < 1 3 f z h h h 1 2 O   e L.O.J e.S.V.D # @ @ * X . X X = t y ",
"yXbXbXnXMXmXMXtXX.u u i * . M.D O + 1 l =.=.=.#.$.#.V C j 7 O   ' S [ l.S.V.9 . * - : , o . X * t p ",
"uXmXnXnXmXmXMXlXo.d u i : . M.z + < K ;.:.<.*.>.>.%.%.$.V G 7   4 W j.S.b.y.% X o , : X . , : t t p ",
"bXbXuXbXnXmXlXmX'.> > @ > 8 Q.5 1 A 4.5.<.7.7.7.:.>.>.#.b j k 2 n w.S.S.A.[   X X , : * @ @ = e i s ",
"NXmXvXAXtX{.J.' i , X 8 X p !.z I l.OXI.b.v.t.x.>.>.#.b v g 5 D B.D.A.A.u.n . & & , & X & & & e e i ",
"vXvXLX,XZ.{ p 8 > : : : X T ).d.=XDXJXDXDXzXgX;XOXq.K v l f I j.+XH.b.C.q.2 $ . : , : , . . , : i d ",
"LXcXLX3XC.! n 8 = e & = ; ] @X0.dXKXHXHXHXJXJXDXDXgXhXk.I 8.V.+X+XS.u.q.0.$   , , & : e , > > i i s ",
"jXjXjX9X<Xw.5 6 = = & & $  .oX~.&XjXSXSXJXSXJXKXKXDXhXQ.Q.oX#X+XD.u.y.q.S O o o - - , . o . , > p S ",
"jX9XjX8X<XC.D k 9 6 & * $ /.oX~.-X*X6XdXdXfXfXSXfX*X).@X6X%X%XS.V.w.1.I 9 . . o . . . - , . ; a { } ",
"jX>X7X8X<X<Xe.A F 6 $ O H ).#X~.B.#X-X@X)./.!.).~.~.#X#X#X%XD.j.q.e.I D a 0 ! ! ! E 4   $ 6 8 p F F ",
"LXZ._.8X<X<Xe.A K 3 O # q O.k.@X~.d.w.q.w.q.e.d.V.#XoX~.V.~.y.0.W H H H a E n.(.$X_.f.p $ 2 6 6 y F ",
"LX,XN.7X9X<Xt.D K 3 2 O O a R  .B.C.d.y.V.V.oXD.D.oXk.d.0.] S p J T T H R ..! <X2X2X).H 6 7 h B ) ) ",
"GXLXN.7X9X1XA.m K h < $ O   0 a R  .0.M.V.B.C.j.d.e.W n Z 9 p T T H ` { ..E ..<X9X2X-Xp 7 M B L ) | ",
"GXSXE.<X8X2XD.A K 7 2 O * X     q q a S R R ] H E q 5 0 q H T ` D T d.....T n.2X7X7X&X4 Z A L L G ) ",
"GXGX`._.8X9X~.A L 9 2 O     . . p p 0 0 q q q 0 q 0 q S {  . .R W p.N.B...Y N.7X7X7X`.4 Z N G L G ) ",
"GXjX_.(.8X6XC.n M 7 = $   o o e H d H H H p S a p S T s.N.M.[  .s.B.....E E (.7X7XfXM.4 M A L L G ) ",
"HXjX@XZ.8X9XB.n M 6 $ o o : u d O.`  .s.s.{ ` ` E ` R.!.R. .s.k./.`.N...Y E 2X7XjX5X .k N A G G G ) ",
",X,X`.(.9X2Xs.q 6 = = = e ^ e ( s. .} !.&X).p.@.O.R.XX}. XdXdXsX*XE.m.Y Y n.3X7X8X5X] Z M A B G G ( ",
"4X,XZ.(.2X2X{ ; w e & u J.^ ^ U.E.M.s.!.&X).L.N.^.].}.rX0X0X0X X|.E.@.Y T (.2X8X8X3XD k M G M B G ( ",
"4X>Xm.>X2X_.( r r r r L.X.X.].dX'.}.W.E.+.@.+.T.|.|.}.|.|.|.0X|.'.+.Y Y ..4X5X9X5X_.q 9 y M F B F ( ",
">X`...3X4Xm.u / r w ^ o.X.aXrXsX X[.U.|.^ ' X.+.U.[.rXrXqX[.0XJ.u ' Y Y N.3X5XjX3X!.# y 7 y F y a H ",
"`.n.N.7X,X@./ ~ r w ^ ' U.rXaXcXaX].|.o.d ^ ' o.Y.].qXrXqXK.~ & Y Y d E 4X2X9X8X3X..2 9 2 y y y 9 T ",
"U.m.2X7X>XY / ~ w w ' Y.].sXaXcXaXE.|.^ d ^ X.U.[.[.J.K./ / ~ ~ Y d Y n.>X2X8X3X,XT 2 2 $ 6 t a ` N."
};
