/* XPM */
static char *MTc2NDQ3NDFfcDBfc3F1YXJlMTIwMCslMjgxJTI5[] = {
/* columns rows colors chars-per-pixel */
"50 50 256 2 ",
"   c #2D3C2F",
".  c #1B391D",
"X  c #76120D",
"o  c #512811",
"O  c #6D2A09",
"+  c #4F3229",
"@  c #6D3839",
"#  c #521E08",
"$  c #12472F",
"%  c #264825",
"&  c #534C3A",
"*  c #774827",
"=  c #694938",
"-  c #764B3A",
";  c #69553A",
":  c #72553C",
">  c #6B4A29",
",  c #556B3C",
"<  c #716A33",
"1  c #6E550F",
"2  c #733B46",
"3  c #384F4B",
"4  c #2C6554",
"5  c #565649",
"6  c #505250",
"7  c #695649",
"8  c #755A4A",
"9  c #685954",
"0  c #775B56",
"q  c #6F4C45",
"w  c #58674F",
"e  c #796658",
"r  c #7A7458",
"t  c #6E6B4F",
"y  c #596964",
"u  c #71726F",
"i  c #991C00",
"p  c #90310D",
"a  c #A42E09",
"s  c #86342B",
"d  c #A92C32",
"f  c #8D5210",
"g  c #A9570A",
"h  c #946E09",
"j  c #B47A07",
"k  c #884C33",
"l  c #A65034",
"z  c #8F6D38",
"x  c #AE7330",
"c  c #CB7632",
"v  c #CF7B16",
"b  c #803440",
"n  c #855755",
"m  c #91594B",
"M  c #AF5751",
"N  c #886A56",
"B  c #986957",
"V  c #8A745B",
"C  c #947558",
"Z  c #8F6B48",
"A  c #A27756",
"S  c #AB6D4F",
"D  c #887966",
"F  c #997C69",
"G  c #867A75",
"H  c #98787A",
"J  c #916C6B",
"K  c #AD7668",
"L  c #A45F62",
"P  c #728672",
"I  c #4F8775",
"U  c #B09514",
"Y  c #928939",
"T  c #B09E29",
"R  c #CE8C0D",
"E  c #D3AA10",
"W  c #D29432",
"Q  c #E99A33",
"!  c #D2B031",
"~  c #E9A72D",
"^  c #EECD17",
"/  c #FFF318",
"(  c #ECD02E",
")  c #FFF425",
"_  c #FCED35",
"`  c #DFCC3F",
"'  c #8F8F51",
"]  c #B48652",
"[  c #B1A451",
"{  c #988667",
"}  c #8A8577",
"|  c #988A77",
" . c #8C9273",
".. c #B99B6B",
"X. c #A88977",
"o. c #B88874",
"O. c #AC9071",
"+. c #8DAE77",
"@. c #A6A677",
"#. c #B2AF74",
"$. c #95A054",
"%. c #D19252",
"&. c #E19753",
"*. c #CBA74D",
"=. c #F5B151",
"-. c #C7926E",
";. c #C9A777",
":. c #C8B675",
">. c #D5AE72",
",. c #E2B36A",
"<. c #FC9870",
"1. c #B8C374",
"2. c #D5CE50",
"3. c #F2CF52",
"4. c #F9EB59",
"5. c #F6EC4C",
"6. c #D4CC70",
"7. c #F1D470",
"8. c #EAE76A",
"9. c #FBE879",
"0. c #FDF97A",
"q. c #F2E96F",
"w. c #D7EB76",
"e. c #326F82",
"r. c #697C83",
"t. c #A67C86",
"y. c #719190",
"u. c #74AAAD",
"i. c #6AA19B",
"p. c #79C88F",
"a. c #75B2C5",
"s. c #7FFFFF",
"d. c #87938A",
"f. c #98938B",
"g. c #918E8C",
"h. c #AA9483",
"j. c #AE8E8A",
"k. c #99A797",
"l. c #8CAB90",
"z. c #A9A888",
"x. c #B5A787",
"c. c #A8A798",
"v. c #BABA95",
"b. c #B5AD94",
"n. c #8FB0AD",
"m. c #B9B6A4",
"M. c #AFB2AD",
"N. c #A19EA5",
"B. c #C6978B",
"V. c #C8A688",
"C. c #D7B68A",
"Z. c #CEB390",
"A. c #EDB592",
"S. c #C7B7A7",
"D. c #D0B0AC",
"F. c #E7B7AB",
"G. c #92D298",
"H. c #B1CA95",
"J. c #93CFB6",
"K. c #B0C9B2",
"L. c #B7EBAC",
"P. c #9AE0AE",
"I. c #D7C698",
"U. c #CDCC8A",
"Y. c #E8C89A",
"T. c #ECD190",
"R. c #FAF688",
"E. c #FBF696",
"W. c #EDE88F",
"Q. c #C8C6B7",
"!. c #D9CAB7",
"~. c #D8D7B3",
"^. c #CFD2AA",
"/. c #E7CBA7",
"(. c #E8D6BA",
"). c #F6D0AE",
"_. c #CEEFB5",
"`. c #E8E6A2",
"'. c #FEE9A3",
"]. c #FAF7A8",
"[. c #F9E7B9",
"{. c #FEFBB8",
"}. c #E9ECB9",
"|. c #9BBBC5",
" X c #96CEC9",
".X c #A7D8CB",
"XX c #B9D7D6",
"oX c #AED0CB",
"OX c #96E3D9",
"+X c #A3E8DA",
"@X c #B3ECD3",
"#X c #98D3E4",
"$X c #AFDDEE",
"%X c #83FDF4",
"&X c #84FFFD",
"*X c #8CFEFD",
"=X c #8CFCF6",
"-X c #93FEFE",
";X c #9CFEFE",
":X c #98FAF6",
">X c #96EDEC",
",X c #B9EAE6",
"<X c #A7F4EA",
"1X c #BAFAE8",
"2X c #BBEAFA",
"3X c #A3FEFE",
"4X c #ABFDFD",
"5X c #A7FAF5",
"6X c #B4FDFD",
"7X c #BCFDFC",
"8X c #B9FAF5",
"9X c #A9E8EF",
"0X c #CBC7C0",
"qX c #D8CDC5",
"wX c #D7D9C9",
"eX c #CAD8D7",
"rX c #D2D9CE",
"tX c #E6DBC5",
"yX c #F1D5CD",
"uX c #D8E5D6",
"iX c #D1EFCD",
"pX c #F4E9CA",
"aX c #FDF8C5",
"sX c #E8E5D9",
"dX c #F9EADA",
"fX c #FCF9DA",
"gX c #EAEAC8",
"hX c #D1DBE2",
"jX c #F8DCE4",
"kX c #D9EAE6",
"lX c #C4F8EA",
"zX c #D8F4EC",
"xX c #CBFDF4",
"cX c #C3FEFD",
"vX c #CBFEFD",
"bX c #C6F6F9",
"nX c #D3FDFE",
"mX c #DBFDFE",
"MX c #D7F9F7",
"NX c #CBE9EF",
"BX c #E6EAE8",
"VX c #F8EAE3",
"CX c #E9F5E8",
"ZX c #FCFEE5",
"AX c #FAF8EB",
"SX c #F4EEF5",
"DX c #E3FEFD",
"FX c #EEFFFF",
"GX c #EBFEFD",
"HX c #E6F8F7",
"JX c #FEF5F3",
"KX c #FEFCF5",
"LX c #F3FEFE",
"PX c #FEFEFD",
"IX c #F6F9F6",
"UX c #EBEFF2",
/* pixels */
"PXIXIXGXFXFXLXLXFXLXGXGXLXGXGXDXGXGXmXmXDXDXDXDXmXmXmXmXDXMXmXmXnXxXmXnXnXnXvXvXvXvXvXcX8XcXxXvXcXcX",
"LXLXLXLXDXFXFXFXGXGXLXGXGXDXDXGXDXDXDXmXmXmXDXnXmXmXmXmXmXHXkXkXMXnXnXnXvXvXxXnXxXvXxXcXcX7X7X7X7X7X",
"LXLXFXmXFXGXGXGXFXHXHXFXDXDXDXDXGXDXmXnXmXnXmXmXmXMXDXHXkXIXPXLXNXHXnXbXcX7XcXvXcXxXxX7X7X7X6X6X6X6X",
"LXFXGXDXFXHXLXGXDXDXHXHXDXmXHXHXHXzXMXxXvXvXvXmXvXMXXXCXKXKXKXPXSXNXnXcX7X7XlX@XiX_.iXiXlX7X4X3X4X4X",
"HXDXDXHXHXHXHXDXmXxXDXMXmXMXhXt.N.LXmXnXnXvXcXcXcXvXXXu uXsXsXsXhXXXbX6X7X<XiXL.W.w.w.w.L.<X5X4X3X3X",
"DXDXmXmXHXHXDXmXeXXXoXXXMXnXeXM.g.NXbXvXvXcXcX7XcXxXNXy.sXsXVXQ.g.M.oX8X8X1XiX1.R.T 5.2.L.+X6X3X3X3X",
"nXnXmXMXhXhXMXzXiXfXsXQ.oXbX2X2X$Xr.9X7X6XcX7XcXbXlXxXu ^.!.(.m.N.6 d.l.xX.Xd.' $.[ Y [ L.@X5X;X;X;X",
"nXvXMXmXr.n..XXXc.{ { D M.$X2X$X#Xe.9X6X4X5X1X.X1X1XxXK. .{ B.x.7 | d.y.,X.Xw r v.#.< < G.iX:X:X;X;X",
"vXvXvXbX|.9X2XoXrXS.yXqX0XM.oX$Xu.u.7X6X5X5XG.p.p.G.P.@XL.@.Y.Z.Z | P  XNXn.& t k., w 5 w +X5X-X*X;X",
"cXcXbX2Xa.a.$XoXS.F.F.D.D.j.d.u.i.#X6X6X6X XL._.G.G.p.P._.Z.;.>.C. ..X9Xl.~.w Q.uXM.c.5 4 +X;X*X*X*X",
"6XbXbXbX#X XoXM.F.A.A.F.-.B P P.9X6X7X8X8XJ.gX}.}._.p.P.I.x p s O.K.9X#Xt I.z. .P P ^.H.i.:X=X&X&X&X",
"7X5XvXbX2X#Xy.g.B A.A.F.).B K.lX5X3X4X4X<X.XgXaX~._.+.+.U.@ s M j.n.n.|.t I.@.+., , Y +.+X;X%X%X&X&X",
"6X4X6X6X5X6X8Xk.Z A.).A.A.B oX<X5X:X4X:X5XI L.}.}.^.P L.c.{ { F D.hX#Xr.d.v.#.' $.Y Y +.+X*X=X%X&X&X",
"4X4X4X4X3X3X4X1XB ] K m K S..X5X:X;X-X3Xa.$ , H.+.z.z.rXm.wXQ.u h.c.M.y.} H.#.U.1.#. .G.9X=X=X%X=X&X",
";X;X;X;X3X;X:X,XwX!.g.d.oXn.J.OX:X=X;X:X4 $ G.w % . P eXrXsXQ. .I.~.f.u X.C.@.~._.H.@X+X:X*X*X*X*X*X",
";X;X;X*X;X-X;X5XoXn.hX2X<X<X<XOX:X;X9Xu.$ % % . l.P uXCXsX0Xd. .Y.Y.jXu O./.pXZXwXl.J.:X=X-X*X-X-X*X",
"-X-X-X*X-X-X;X;X:X#X9X3X-X=X-X>X=X>Xu.k.3 . . . hXkXCXBXKXM.f.tX;.V.Q.y sXAXJXPXN.P y.>X;X-X-X;X;X;X",
"*X-X-X-X*X*X*X;X-X*X*X*X&X&X*X*X=X>Xl.uXUXhXd.K.IXZXZXZXsXQ.0XdXZ.!.qXeXPXPXJXPXeXK.J.:X:X-X;X;X;X;X",
"-X-X:X=X*X*X*X=X=X=X%X&X&X&X=X=X&X>XNXIXPXSXsXCXaX{.].].fXZXKXJXV.V.qXKXKXKXPXPXzXlX>X3X3X3X;X-X;X3X",
"*X=X=X=X*X*X*X&X%X%X&X&X*X&X*X-X-X5XMXIXPXBXdX}.W.7.7.W.7.`.fXdXpXVXAXVXCXSXPXPXMX1X6X:X5X3X3X;X3X4X",
"&X&X%X%X&X&Xs.s.=X&X-X*X=X%X*X=X5X2XLXPXKXAXfX] W =.7.3.4.q.'.pXsXIXPXPXKXSXSXSXMX,X5X4X4X5X4X6X4X4X",
"&X&Xs.&X&X&Xs.s.*X*X-X*X:X:X3X5X,XHXKXIXPX!.Z.%.c g g j R ! 7.aXKXSXPXPXPXJXSXhXMXbX8X5X5X6X7X7X7X6X",
"&X*X&X*X*X*X*X*X*X*X*X-X<X1X@X@XrXIXKXKXPXPXsXS.Z T.,.%.W h z ).dXKXLXKXPXPXSXG y.oX8X6X7X6X7X7X7X7X",
"*X*X*X-X-X-X*X*X*X-X*X5XJ.n.P k.Q.^.dXAXPXKXsX} ; (...1 [ 7.,.T.fXKXPXLXKXPXqXg.9 K.lX8XcX7X7XcXcXcX",
"*X*X-X;X-X=X;X*X-X-X;X+XP 5 5 5 5 G z.pXCXAXsX!.Q.tX7 Z w.0.9.R.~.fXIXLXPXPXjXJXD  .n.MXvXvXcXcXvXvX",
"-X;X-X;X:X:X;X;X;X;X4XXXP t ~.!.M.e V S.fX(./.V./.ZX(.Z.R.0.9.E.`.fXAXuX0XtXD.C ;.] O.wXMX,Xy.vXnXvX",
"-X;X;X;X;X4X:X4X3X5X8X@X~.z.fXfXKXh.0 X.Y.>.&.&.&.%.Y.`.R.0.w.W.`.[.b.9 7 t 8 F >.f f Y.m.u 3 mXmXmX",
";X3X;X;X4X4X5X4X6X8XK.wX!.!.dXdXdXh.= L A.%.&.W c ,.,.T.R.W.E.U.6.`.; r S.; 0 N Z O f I.} y y HXmXmX",
"3X3X3X4X4X4X4X6X8XK.x.T.C.S ).dXyX-.N tX).;.[.'.T.] ] >.:.T.^.}.v.(. .~.(.(.z.& < #.' k.K.y hXGXDXDX",
"4X3X4X4X6X6X8XlXiXv.:.>.).K o.K k %.I.fXaXY.aX[.[.-.S o.S.V { r m.VXS.(.fX~.D + r ^.l.K.kXHXFXHXGXGX",
"6X4X7X6X7XxXoXgXgXx.I./.t.J K x x 2.! T :.C.(./.Y.%.l A.D w 9 & } VXdXqXdXyXb.q > /.~.Q.zXLXGXLXFXFX",
"7X7XcX7X7XzXz.Y.Y.../.I.{ F A.x h 4.5.5.*.;.C.Z.I.V.B A.wX5 9 u BXKXKXf.J & o - m A Z.K.BXLXLXLXLXLX",
"7XcX7X8XcXzX;.,.%.' 2.w.4.2.2.6.2.E ~ Q Q Q k C k.c.} ^.ZX  u 6 UXSXJXD.D.N + L M d !.JXLXLXPXPXLXPX",
"cXcXvXvXxXCX>.*.,.>.7.8.5.5.q.W.4.( 3.Q Q &.-.j.P 6 5 z.z.w M.6 N.BXqXD.B.2 @ L d d VXKXLXLXPXJXPXLX",
"cXvXvXnXmXzX).' 6.W.'.R.8.8.t < q.4.W v x C.B.X.h.D j.X.z. .c.K.N.sXyXD.B.-.jXF.M X H JXPXPXLXIXPXPX",
"nXnXnXmXHXZXaX:.'.6.:.{.E.6.@.Y 4.5.! W '.aXZX(.Z...] ] ^.gXpXVXJX!.K A.K B.jX0 L X n PXPXLXIXIXPXPX",
"mXmXmXDXCX(.T.%.W.].{.aXE.W.8.4.5._ ( Q Q &.-.A.:.2.3.` 6.pX).B.D.(...>...{ jXj.t.2 + G PXLXPXPXPXPX",
"DXDXDXDXfXx.-.*.].`.`.`.].8.4.) ) ) E 3.~ &.&.x =.9.5.` ..A L X K yXI...@.Z.jX0 t.6 9 M.PXPXPXPXPXPX",
"GXGXHXDXGXdX;.] `.aXaX].R.5.) / / ^ v v R v a i W 3.U [ f A o.k L VXD.m.f.Q.yXJ G 6 g.PXPXLXPXKXPXPX",
"IXLXHXLXLXAXgX/.#.:.E.R.q.5.) / ^ j j Q ~ ~ i i p U 1 > V C V.m K F.S.f.u j.t.@ H q D.PXPXKXPXPXPXPX",
"LXLXFXGXLXLXSXgX6.2.E ( _ ) ) E R ~ E 3.3.c <.<.W Y Z.O.V C K o.l M j.| q n H H 7 0 JXKXPXKXLXPXPXPX",
"LXLXLXFXLXPXLXZXW.U 3.^ U U h j W Q Q Q g a a l 9.q.' u @.C N V.M K o.k M k n e 7 M.KXPXKXKXPXPXPXPX",
"PXPXKXIXPXPXPXPXfX..g v ~ =.,.7.-.] ] %.a i i x 3.*.z N F { C N B.n o.A %.s N 9 | dXKXLXPXKXPXPXPXPX",
"PXPXPXKXPXPXPXJXJXJXK p 1 f # [.).).A.X i X i X Y h z 8 q K F 8 8 = o.A x @ 0 e yXKXLXPXPXPXPXPXPXPX",
"PXPXPXPXPXPXPXPXPXJXVXB o L # m >.z * @ 2 s k - * * > = > - 0 e 7 @ F N > 0 e UXPXPXPXPXPXPXPXPXPXPX",
"PXPXPXPXKXPXPXPXJXPXKXJXjXD.H A :.z m @ n n = = = = = - = = q q 9 9 0 N 7 G SXLXKXPXLXLXPXPXPXPXPXPX",
"PXPXPXPXPXPXPXPXPXPXIXKXPXPXJXD.t = = q @ - = = > ; > > = - = = @ 7 6 u c.JXPXPXPXPXPXPXPXPXJXPXPXPX",
"KXLXPXPXPXPXLXLXPXPXKXPXPXPXPXPXPXtXb.V e 8 : 8 : : : ; ; ; = q 9 H qXKXPXJXPXPXLXPXPXKXKXPXPXPXPXPX",
"LXPXPXPXPXPXPXPXPXPXPXPXPXPXPXPXPXPXPXAXqXm.| D e e e G f.j.S.qXKXPXPXPXPXPXPXPXPXPXPXPXPXPXPXPXPXPX",
"PXPXPXPXPXPXPXPXPXPXPXPXPXPXPXPXPXPXPXPXPXKXKXKXKXKXKXKXPXKXKXPXPXPXPXPXPXPXPXPXPXPXPXPXPXPXPXPXPXPX"
};
