/* XPM */
static char *result[] = {
/* columns rows colors chars-per-pixel */
"50 50 158 2 ",
"   c #00142C",
".  c #04182F",
"X  c #061A33",
"o  c #091F36",
"O  c #091F38",
"+  c #0C243E",
"@  c #16293F",
"#  c #24323D",
"$  c #353C3D",
"%  c #0E2641",
"&  c #0F2844",
"*  c #122942",
"=  c #163443",
"-  c #183743",
";  c #1C3E43",
":  c #213148",
">  c #253542",
",  c #303846",
"<  c #244B43",
"1  c #3B4342",
"2  c #2F5E46",
"3  c #3D4451",
"4  c #3F7A48",
"5  c #48474C",
"6  c #545358",
"7  c #665F45",
"8  c #766944",
"9  c #687754",
"0  c #5F5D61",
"q  c #686466",
"w  c #776D6A",
"e  c #7D776C",
"r  c #BA2647",
"t  c #BB2649",
"y  c #BE2C4D",
"u  c #B72344",
"i  c #BF334E",
"p  c #DC2E5E",
"a  c #C23252",
"s  c #D4335A",
"d  c #E73B6B",
"f  c #F33C71",
"g  c #837144",
"h  c #83756E",
"j  c #A87B6A",
"k  c #C74658",
"l  c #CD4265",
"z  c #D84A69",
"x  c #CF5962",
"c  c #D35F67",
"v  c #DA577A",
"b  c #F7457B",
"n  c #C3626D",
"m  c #D56067",
"M  c #E77077",
"N  c #E97E7C",
"B  c #F7707E",
"V  c #4B8F48",
"C  c #50974A",
"Z  c #828055",
"A  c #B59D5B",
"S  c #B5A55A",
"D  c #B9A65D",
"F  c #BEAE5D",
"G  c #BFB05F",
"H  c #A3846C",
"J  c #A19F68",
"K  c #BA9F61",
"L  c #B08E79",
"P  c #B59075",
"I  c #B79178",
"U  c #BEA465",
"Y  c #BFAC63",
"T  c #C0AF5E",
"R  c #C1B15F",
"E  c #D0896C",
"W  c #DA9E6F",
"Q  c #DE8573",
"!  c #C49D7E",
"~  c #E18F76",
"^  c #E5857A",
"/  c #F28A7F",
"(  c #EB9F7F",
")  c #C3A767",
"_  c #C2A869",
"`  c #C9AC6F",
"'  c #C9A666",
"]  c #D7A56C",
"[  c #C3B361",
"{  c #CCBD65",
"}  c #CCBC69",
"|  c #D0BF6D",
" . c #C9AC71",
".. c #D3AB75",
"X. c #D9B57E",
"o. c #D6B778",
"O. c #CFC066",
"+. c #CFC068",
"@. c #D0C167",
"#. c #D1C26A",
"$. c #D6C572",
"%. c #D9C976",
"&. c #DDCD7B",
"*. c #F94E84",
"=. c #F95086",
"-. c #F75288",
";. c #FA5289",
":. c #F55981",
">. c #E4668A",
",. c #E76F8C",
"<. c #E86A8F",
"1. c #E16185",
"2. c #E96E92",
"3. c #EC7691",
"4. c #EE7E92",
"5. c #F78683",
"6. c #F78885",
"7. c #FB8B86",
"8. c #ED9780",
"9. c #ED9985",
"0. c #EC9F89",
"q. c #F49486",
"w. c #F09E88",
"e. c #FB9B8B",
"r. c #F08C97",
"t. c #F39995",
"y. c #F29599",
"u. c #CDA384",
"i. c #CDA78B",
"p. c #D4A988",
"a. c #DDB781",
"s. c #D9AF90",
"d. c #DDB190",
"f. c #ECAA83",
"g. c #FBA38B",
"h. c #FFAA8E",
"j. c #E8B787",
"k. c #EBBA89",
"l. c #E2B78A",
"z. c #FDB985",
"x. c #FDBD8B",
"c. c #FEAD92",
"v. c #E8B993",
"b. c #FEB494",
"n. c #F6B896",
"m. c #FDBA97",
"M. c #FEBE99",
"N. c #DDC290",
"B. c #E0D081",
"V. c #F4C394",
"C. c #FEC394",
"Z. c #FEC49B",
"A. c #FEC99D",
"S. c #F5C59D",
"D. c #FFCBA0",
"F. c #FE95C3",
"G. c #FF99C5",
"H. c None",
/* pixels */
"H.H.H.H.H.H.H.H.H.H.H.H.H.H.H.H.H.H.H.H.H.H.H.H.H.H.H.H.H.H.H.H.H.H.H.H.H.H.H.H.H.H.H.H.H.H.H.H.H.H.",
"H.H.H.H.H.H.H.H.H.H.H.H.H.H.H.H.H.H.H.H.H.H.H.H.H.H.H.H.H.H.H.H.H.H.H.H.H.H.H.H.H.H.H.H.H.H.H.H.H.H.",
"H.H.H.H.H.H.H.H.H.H.H.H.H.H.H.H.H.O.H.H.H.H.H.H.H.H.H.H.H.H.H.H.H.H.H.H.H.H.H.H.H.H.H.H.H.H.H.H.H.H.",
"H.H.H.H.H.H.H.H.H.H.H.H.H.H.H.H.H.O.#.H.H.H.H.H.H.H.H.H.H.} [ H.H.H.H.H.H.H.H.H.H.H.H.H.H.H.H.H.H.H.",
"H.H.H.H.H.H.H.H.H.H.H.H.H.H.H.H.H.@.O.{ H.H.R H.H.H.H.@.#.[ H.H.H.H.H.H.H.H.H.H.H.H.H.H.H.H.H.H.H.H.",
"H.H.H.H.H.H.H.H.H.H.H.H.H.H.H.H.H.{ +.{ { R G G F { { { { { H.H.H.H.H.H.H.H.H.H.H.H.H.H.H.H.H.H.H.H.",
"H.H.H.H.H.H.H.H.H.H.H.H.H.H.[ [ +.{ #.{ { [ [ F [ { O.+.@.R H.H.H.H.H.H.H.H.H.H.H.H.H.H.H.H.H.H.H.H.",
"H.H.H.H.H.H.H.H.H.H.H.H.H.R G [ { +.{ { { F [ [ [ { { { O.{ R [ H.H.H.H.H.H.H.H.H.H.H.H.H.H.H.H.H.H.",
"H.H.H.H.H.H.H.H.H.H.H.H.[ R R R { { G +.{ G [ [ [ { O.{ { [ [ [ [ H.H.H.H.H.H.H.H.H.H.H.H.H.H.H.H.H.",
"H.H.H.H.H.H.H.H.H.H.H.H.R G R R G ` U { } [ [ [ Y { { { O.[ [ [ [ H.H.H.H.H.H.H.H.H.H.H.H.H.H.H.H.H.",
"H.H.H.H.H.H.H.H.H.H.H.@.[ [ G D X.A.X.G { [ R } $.} +.&.#.$.} [ [ O.H.H.H.H.H.H.H.H.H.H.H.H.H.H.H.H.",
"H.H.H.H.H.H.H.H.H.H.H.} [ [ G o.A.A.V.S { G Y } B.%.+.B.B.&.%.} R @.#.H.H.H.H.H.H.H.H.H.H.H.H.H.H.H.",
"H.H.H.H.H.H.H.H.H.] | { [ ' E b.p.L n.Y { R [ [ &.&.#.%.B.&.&.&.[ { } #.H.H.H.H.H.H.H.H.H.H.H.H.H.H.",
"H.H.H.H.H.H.H.-.;.*.:.] ^ =.=.*.n ..H a.R R T [ } &.&.{ %.B.&.&.#.{ { @.H.H.H.H.H.H.H.H.H.H.H.H.H.H.",
"H.H.H.H.H.H.H.*.;.*.*.*.*.=.;.=.d H H D.D R F F T } #.{ { $.[ } } { H.H.H.H.H.H.H.H.H.H.H.H.H.H.H.H.",
"H.H.H.H.H.H.H.=.*.*.*.*.=.b =.=.f P u.u.X.S R T F } { { { [ G [ R { O.H.H.H.H.G.G.H.H.H.H.H.H.H.H.H.",
"H.H.H.H.H.H.H.=.*.;.;.;.*.*.*.b d j P S.A._ D R G { T { { [ R R R { { H.H.H.H.G.F.F.H.F.H.H.H.H.H.H.",
"H.H.H.H.H.H.H.=.;.;.;.=.*.*.*.f p s N D.A.Z.U D G { K F { R [ R [ } @.H.H.H.H.F.F.F.F.G.F.H.H.H.H.H.",
"H.H.H.H.H.H.H.H.;.;.=.=.=.=.b d z M 9.A.D.D.S.` S R ' f.D R [ S S { { @.H.H.H.H.F.F.F.G.H.H.H.H.H.H.",
"H.H.H.H.H.H.F.H.H.;.=.=.;.b B e.h.b.Z.A.A.D.A.A.j.U S q.q.A S ..j.` [ S H.H.H.H.F.F.G.H.H.H.H.H.H.H.",
"H.H.H.F.F.F.F.H.H.H.H.*.b 7.5.5.5.b.M.Z.^ A.D.A.C.b.( / 6.~ D b.M.A.D.H.H.H.H.H.H.F.H.H.H.H.H.H.H.H.",
"H.H.H.F.F.F.F.H.H.H.H.H.H.g.e.e.e.b.9.9.M.D.A.Z.w.^ h.h.h.g.f.b.Z.A.A.H.H.H.H.H.H.H.H.H.H.H.H.H.H.H.",
"H.H.H.H.F.F.H.H.H.H.H.H.H.b.h.c.c.b.^ t t i i r r m b.c.h.h.b.M.Z.V.H.H.H.H.H.H.H.H.H.H.H.H.H.H.H.H.",
"H.H.H.H.H.H.H.H.H.H.H.H.H.4.t.b.c.3.,.l 1.>.a t r ^ M.m.m.m.M.k.[ { H.H.H.H.H.H.H.H.H.H.H.H.H.H.H.H.",
"H.H.H.H.H.H.H.H.H.H.H.2.<.<.2.3.2.3.2.2.2.2.1.u u m.A.Z.Z.M.Z.X.[ { H.H.H.H.H.H.H.H.H.H.H.H.H.H.H.H.",
"H.H.H.H.H.H.H.H.H.H.H.<.<.<.2.2.2.2.y.t.v z 1.a c D.A.A.D.D.l.9 Z H.H.H.H.H.H.H.H.H.H.H.H.H.H.H.H.H.",
"H.H.H.H.H.H.H.H.H.H.H.2.<.<.H.M.r.y.A.A.k t a a n.D.D.D.D.S., * % + & % H.H.H.H.H.H.H.H.H.H.H.H.H.H.",
"H.H.H.H.H.H.H.H.H.H.H.2.<.H.H.H.D.D.A.A.m.x a t.A.D.D.D.d.5 & * % % % % % % % H.H.H.H.H.H.H.H.H.H.H.",
"H.H.H.H.H.H.H.H.H.H.H.H.H.H.H.H.H.h s.A.p.v.v.p.I I d.h * X % % % % % % + + + % % % H.A.A.H.H.H.H.H.",
"H.H.H.H.H.H.H.H.H.H.H.H.H.H.H.H.% % % - , 5 6 V J ` C = % . O + & % % % * % % % + % 0 A.Z.A.H.H.H.H.",
"H.H.H.H.H.H.H.H.H.H.H.H.H.H.% + + % % O + o X ; V < 4 = + . * + H.H.H.% % % % % % % q C.z.A.A.H.H.H.",
"H.H.H.H.H.H.H.H.H.H.H.H.H.* % + % % % & & o + & < - 2 * . $ @ % H.H.H.H.H.H.H.H.H.H.i.A.x.C.A.H.H.H.",
"H.H.H.H.H.H.H.H.H.H.H.H.% % % + + % H.H.H.%   . X X o O O 7 > % % H.H.H.H.H.H.H.H.H.H.H.H.H.H.H.H.H.",
"H.H.H.H.H.H.H.H.H.D.A.w + % % * H.H.H.H.H.H.+ % * % + . + % 8 + % H.H.H.H.H.H.H.H.H.H.H.H.H.H.H.H.H.",
"H.H.H.H.H.H.H.H.H.A.C.i.* % H.H.H.H.H.H.H.H.% % % % + + o + 1 + % H.H.H.H.H.H.H.H.H.H.H.H.H.H.H.H.H.",
"H.H.H.H.H.H.H.H.H.C.z.A.H.H.H.H.H.H.H.H.H.& & % % % + % % X # g + + H.H.H.H.H.H.H.H.H.H.H.H.H.H.H.H.",
"H.H.H.H.H.H.H.H.Z.A.x.H.H.H.H.H.H.H.H.H.H.H.& % % % + o % + . X o o H.H.H.H.H.H.H.H.H.H.H.H.H.H.H.H.",
"H.H.H.H.H.H.H.H.H.H.H.H.H.H.H.H.H.H.H.H.H.H.% % % % % X % % + + + + H.H.H.H.H.H.H.H.H.H.H.H.H.H.H.H.",
"H.H.H.H.H.H.H.H.H.H.H.H.H.H.H.H.H.H.H.H.H.H.& % % % % X % % + % % % H.H.H.H.H.H.H.H.H.H.H.H.H.H.H.H.",
"H.H.H.H.H.H.H.H.H.H.H.H.H.H.F.F.F.G.H.H.H.H.H.% % % % + O % % % % H.H.H.H.H.H.H.H.H.H.H.H.H.H.H.H.H.",
"H.H.H.H.H.H.H.H.H.H.H.H.H.H.F.G.G.G.H.H.H.H.H.% % % % %     . . H.H.H.H.H.H.H.H.H.H.H.H.H.H.H.H.H.H.",
"H.H.H.H.H.H.H.H.H.H.H.H.H.H.H.F.G.F.H.H.H.H.H.H.% % % O   + + + H.H.H.H.H.H.H.H.H.H.H.H.H.H.H.H.H.H.",
"H.H.H.H.H.H.H.H.H.H.H.H.H.H.H.H.H.H.H.H.H.H.H.H.H.X       o % % % H.H.H.H.H.H.H.H.H.H.H.H.H.H.H.H.H.",
"H.H.H.H.H.H.H.H.H.H.H.H.H.H.H.H.H.H.H.H.H.H.H.H.H.      H.X % % % % H.H.H.H.H.H.H.H.H.H.H.H.H.H.H.H.",
"H.H.H.H.H.H.H.H.H.H.H.H.H.H.H.H.H.H.H.H.H.H.H.H.H.      H.H.& % % % & H.H.H.H.H.H.H.H.H.H.H.H.H.H.H.",
"H.H.H.H.H.H.H.H.H.H.H.H.H.H.H.H.H.H.H.H.H.H.H.H.H.H.    H.H.H.% + % % H.H.H.H.H.H.H.H.H.H.H.H.H.H.H.",
"H.H.H.H.H.H.H.H.H.H.H.H.H.H.H.H.H.H.H.H.H.H.H.H.H.H.H.H.H.H.H.H.H.% % X H.H.H.H.H.H.H.H.H.H.H.H.H.H.",
"H.H.H.H.H.H.H.H.H.H.H.H.H.H.H.H.H.H.H.H.H.H.H.H.H.H.H.H.H.H.H.H.H.H.    H.H.H.H.H.H.H.H.H.H.H.H.H.H.",
"H.H.H.H.H.H.H.H.H.H.H.H.H.H.H.H.H.H.H.H.H.H.H.H.H.H.H.H.H.H.H.H.H.H.H.  H.H.H.H.H.H.H.H.H.H.H.H.H.H.",
"H.H.H.H.H.H.H.H.H.H.H.H.H.H.H.H.H.H.H.H.H.H.H.H.H.H.H.H.H.H.H.H.H.H.H.H.H.H.H.H.H.H.H.H.H.H.H.H.H.H."
};
