/* XPM */
static char *_670780532266[] = {
/* columns rows colors chars-per-pixel */
"50 50 256 2 ",
"   c #263C32",
".  c #263922",
"X  c #1B4518",
"o  c #295816",
"O  c #174B2F",
"+  c #275737",
"@  c #2F512E",
"#  c #376739",
"$  c #336D2F",
"%  c #45551B",
"&  c #475B25",
"*  c #455936",
"=  c #51542F",
"-  c #486937",
";  c #4F6E2F",
":  c #637639",
">  c #605F30",
",  c #30564D",
"<  c #396647",
"1  c #3A6E4F",
"2  c #2E5B6C",
"3  c #186A71",
"4  c #386968",
"5  c #28677A",
"6  c #386977",
"7  c #327271",
"8  c #155362",
"9  c #4B5C4B",
"0  c #487557",
"q  c #587858",
"w  c #506E4B",
"e  c #6E764D",
"r  c #445372",
"t  c #497B6B",
"y  c #587966",
"u  c #497677",
"i  c #587677",
"p  c #4B6A6D",
"a  c #6C726E",
"s  c #755855",
"d  c #243F48",
"f  c #8C756D",
"g  c #906A5E",
"h  c #3C8F2E",
"j  c #2FAE32",
"k  c #1D9416",
"l  c #548B36",
"z  c #48AA38",
"x  c #648638",
"c  c #48C63B",
"v  c #338676",
"b  c #3BB642",
"n  c #528654",
"m  c #678557",
"M  c #728B53",
"N  c #55AE4C",
"B  c #488677",
"V  c #558E72",
"C  c #688769",
"Z  c #768B6A",
"A  c #679776",
"S  c #789676",
"D  c #6F8F70",
"F  c #75A66D",
"G  c #6CA056",
"H  c #3CC344",
"J  c #55CF53",
"K  c #76D264",
"L  c #6BD05C",
"P  c #37C03C",
"I  c #8B8D59",
"U  c #879879",
"Y  c #8E906B",
"T  c #AA9370",
"R  c #88A77C",
"E  c #94A970",
"W  c #A9B679",
"Q  c #B3B275",
"!  c #80B55D",
"~  c #8CCF6F",
"^  c #99E471",
"/  c #2F5887",
"(  c #14699B",
")  c #197799",
"_  c #126A94",
"`  c #286A85",
"'  c #297988",
"]  c #387B89",
"[  c #266D98",
"{  c #267698",
"}  c #376E91",
"|  c #196AA7",
" . c #0C77A7",
".. c #1777A8",
"X. c #1978B5",
"o. c #1373B1",
"O. c #2677AA",
"+. c #2678B4",
"@. c #3378AE",
"#. c #0E5E90",
"$. c #506F8E",
"%. c #6B738E",
"&. c #5074A8",
"*. c #6C77AA",
"=. c #515A8B",
"-. c #1C78C1",
";. c #9374B1",
":. c #A171A0",
">. c #C37ED1",
",. c #398696",
"<. c #338C8F",
"1. c #1A84A9",
"2. c #1887B8",
"3. c #1A96BB",
"4. c #0D92B7",
"5. c #2989A9",
"6. c #3789A6",
"7. c #2995AC",
"8. c #3998A7",
"9. c #2788B7",
"0. c #2999BA",
"q. c #3498B7",
"w. c #388AB9",
"e. c #39A6B8",
"r. c #31ACB8",
"t. c #1691AC",
"y. c #448789",
"u. c #588689",
"i. c #579587",
"p. c #468995",
"a. c #5A8893",
"s. c #499597",
"d. c #579899",
"f. c #499388",
"g. c #698888",
"h. c #789585",
"j. c #6C8696",
"k. c #779897",
"l. c #6F908C",
"z. c #69A989",
"x. c #66A49A",
"c. c #77AC94",
"v. c #488BA6",
"b. c #4898A4",
"n. c #5698A8",
"m. c #5190B2",
"M. c #7998A9",
"N. c #6A9BB7",
"B. c #779ABA",
"V. c #6C8CAB",
"C. c #5BA5A9",
"Z. c #49A9BB",
"A. c #59A8B6",
"S. c #50B3B2",
"D. c #69AAA6",
"F. c #76A7A9",
"G. c #79B5A7",
"H. c #67A9B8",
"J. c #79A7B5",
"K. c #6CB9B4",
"L. c #53A48E",
"P. c #4EC5B6",
"I. c #74C5B1",
"U. c #158AC3",
"Y. c #1A99C4",
"T. c #1E9AD0",
"R. c #2998C6",
"E. c #3496C6",
"W. c #2E94C8",
"Q. c #18A5C6",
"!. c #25A4C6",
"~. c #36A5C8",
"^. c #37B7CA",
"/. c #39A8D7",
"(. c #37B4D6",
"). c #23AFCE",
"_. c #3DB7E1",
"`. c #4C9BC5",
"'. c #7591CC",
"]. c #47ABC6",
"[. c #4AB7C9",
"{. c #57B5C7",
"}. c #4BB6D8",
"|. c #53ADD1",
" X c #68A6C3",
".X c #78AAD6",
"XX c #70B3CD",
"oX c #6FB6E9",
"OX c #709DE2",
"+X c #3CC6CF",
"@X c #53CAD3",
"#X c #78C7DB",
"$X c #6ECCCC",
"%X c #52C9E3",
"&X c #70CBE3",
"*X c #69EDF4",
"=X c #889997",
"-X c #8C938D",
";X c #AA9789",
":X c #89A88A",
">X c #97A99B",
",X c #98B79A",
"<X c #8CAC91",
"1X c #B0B391",
"2X c #8696A7",
"3X c #8F93B0",
"4X c #A98BB1",
"5X c #8AA6A4",
"6X c #96A7AB",
"7X c #98B6A9",
"8X c #8FAFB4",
"9X c #A6B6AB",
"0X c #A9B4B8",
"qX c #B0AEB6",
"wX c #C8A7AB",
"eX c #B3C892",
"rX c #96C5BA",
"tX c #94CAAF",
"yX c #A7C5A8",
"uX c #A9C9B7",
"iX c #B8CEB2",
"pX c #A9E19A",
"aX c #CECE93",
"sX c #C9CFB8",
"dX c #CCF4A1",
"fX c #8B97CA",
"gX c #B390C6",
"hX c #87BCC8",
"jX c #8DB1CE",
"kX c #B5B6C3",
"lX c #B4B2CE",
"zX c #8DB5E5",
"xX c #AEBAE5",
"cX c #C78ED2",
"vX c #C7B6C8",
"bX c #DBB0E0",
"nX c #93CCCE",
"mX c #A6C9CA",
"MX c #B6C9C7",
"NX c #B3D1D0",
"BX c #B6E0D1",
"VX c #87D3E7",
"CX c #90CFE8",
"ZX c #ABD0EC",
"AX c #B8E8E4",
"SX c #90E5DE",
"DX c #CBD1CE",
"FX c #C8E7D8",
"GX c #D6EAD1",
"HX c #C4D5F1",
"JX c #F7D5EF",
"KX c #DDF4E8",
"LX c #CFEBED",
"PX c #E5F5E8",
"IX c #EEF5F1",
"UX c #E4DED9",
/* pixels */
"(.%X[.{.#XhX5X>X1XY Y Z U C A f.s.d.d.K.A.{.&X&X}.(./.R.E.R.T.U.U.X.-.-.+.X.X.9.q.q.|.|.#X#XVXVXVXVX",
"_.(.^.^.Z.d.F.g.1XE I Z a h.A i.y.s.d.C.A.{.|.}.}././.!.~.T.T.T.U.X.o.o.| | O.O.5.w.`.XXXXVXCXCXVXVX",
"(.(.(.(.!.].<.t R W I m Z e S <Xl.d.<.b.8.[.}././.W.R.!.W.W.9.X.+.| ( ( | | +.@.5.w.N.jXLXIXLXAXCXVX",
").(.!.Y.!.7.<.t R M I e Z F m D D V C.].[.%X/.!.E.W.R.R.W.W...| +.| #._ ( | ( | +.v.F.0X0XvXUXDXnXVX",
").Y.Q.T.7.<.z.A n e e Y U U a Z C a.n.].[.(.(.(.~.0.0.W.X.+.) [ O.[ | w.~.0.9.9.@.v.g.6X9XDXwXvXnXVX",
"Y.4.Y.3.r.$Xc.n n - - w U U Z U c.5XnX{.r.0.e.Z.Z.7.9.U.....( | ( | ( ].%X/.].E.w.] p Z f ;XsXiXhXVX",
"Y.U.4.2.t.v B V A n e q e Y R >XS S 7XmXq.5.x.BXnXe.9.2. .( | +.+.| | W.].R.E.w.,.6 p a U ;XsX9X8XVX",
"Y.U.2.7.t.7.v v 7 A D m a Z S S y a U 5X,.8.i >XBXS.7.9...( O.w.@.| _ _ 1...{ } ] u 9 a f T 1XwXk.8X",
"9.1.1.5.0.0.r.r.r.<.0 R D R ,Xh.A i S ,Xx.F.C :XrXI.e.r.s.n.A.} w.( ( ) ( [ } 6 , 0 f : g T aX1XD 5X",
"2.1.) 1.4.U.Q.Q.Q.e.v F 0 h F ,XV t q yXz.t Z ;XuXrX@XS.s.nXLXN.} m. X,.p.8 i + + & & > I T T T 1XPX",
".. . . . .4.4.U.4.0.7.<.1 v n z.x.z.n S z.c.e E ,XI.@Xr.f.t NX5X6 B D.7 t 0 O O o M I % > Q 1XT I 1X",
".... . . . .4.U.3.Q.r.t.r.L.s.v <.V A ,Xg.0 e Y S A b.<.t q <XR , 0 F G D w X o ! ^ ~ % % x Y e I Q ",
" .| o. .(  .4.-.3.!.Q.(.!.r.r.r.P.P.A A A @ = g -XC 2 p w e sXE = > ; x F G $ h ~ dXK z G I M = I Q ",
"|  . .(  . .X.X.0.!.Q.Q.).+X+X+X+XP.I.tX:X- o = 9 h.a r 9 f 1XY e : x l & K N N ^ ^ K ~ l ; & % Q aX",
"o.o. . . . .U.U.2.Y.4.4.).+X^.^.P.*XSXAXc.m = > = e %.a s a 1Xg e T : l h L J H J J c c n o e : aXaX",
"| (  . . .1.-.U.U.U.4.4.Q.Q.^.r.+XI.*XSXtXtX1X;XU Y -X=.s f g g > Y x N l z j J c j k J ; o ; I Q aX",
"(  .(  .2.o.o.X.2.t.4.4.Q.3.t.P.@XP.P.$XI.G.=X-X-X-X=X:.a :.g g > s ~ N l z J J H j j l ; x & x Q aX",
"_ ( ( (  .X.o.X.0.0.Q.3.t.7.r.e.P.P.I.I.K.j.%.4XlXvXlXUXwXf g g s W ^ L z z K c J J h o & ; eXQ Q W ",
"_ | .. .9...( 1.0.0.t.t.1.8.S.I.I.G.K.M.fXgX>.>.cXgXlXvXbXwXf g Y ! ^ L L z j j P J N x ; ; W W eXW ",
"#.( X.R.w.5.) 6.6.7.1.) 1.<.D.rX8Xl.%.V.bXbX>.>.;.;.gX;.wXwXbX:.aXW ^ dX^ L z P j k l ; : & M Y M G ",
"#.( X.E.7.,.,.,.u.y.5 ' ' s.k.5Xj.*.V.fX*.;.;.bX>.>.:.gX:.wXbXJX4X1XQ W ^ ^ c J j j $ % $ @ w Z - w ",
"( ) ..5.) ' f.u.7 u.$.d.p..XAXB.N.jXfX3XfX;.cX:.>.JXbX:.>.:.wXJXUXf Y W dXK J N N N $ - - @ * a y 0 ",
"1.) ) 1._ ' s.d.u.a.n.m.`.|.p.H.N.jXB.2X4X4X4X4X;.;.JXgXlXbX;.lXJXiXY e dXM X < , + X # -     =Xg.2 ",
") ) ) 7.6.,.s.x.x.J.XX.X&XVXzXXX XzXnXxX3X4X:.:.gX;.;.;.*.3XfXM.FXIX-X9 sX1XC C w @ . . @ . 9 DXM.8 ",
") 1.7.8.{ ,.k.rXnXhXN.J.B.ZX X.XN.N.n.nXkX%.;XJXUX:.%.%.=.=.jXhXD.AXMXa MX9XiX,XZ 9 ,     d p FXV.8 ",
"<.<.<.L.C.K.BXrXmXmX'.fX3X3X3XV.jXN.d.7 nXKX>XvXIXNX%.6 =.$.V.CXx.8XLXmXqXiX,XS w @ 9 p r d , AX` #.",
"B L.z.i.D.x.G.x.8X3X3XfXlX3XxX3XV.2 B z.S yX>X=XlXHXjX*.jX6 7 nXuXc.LXLXk.FXC < q # + A i , 4 5 ` 5.",
"F $ n c.8XAXmX8XNX8XlX3X3X6X3Xj.$.r 7X:XM R S y j.jXzXv. XjXr V DXFXNX6X%.BXw # # w q l.p 4 ,.<.5...",
"n - C 8X5X8X0XqXkXkXqXqXNXM.6 s.A.C.G.uX,XU m - 6 v.oX}.`.zXM.j.iXMXi 7Xh.D C + < p i FXv 3 <.7.7.5.",
"x - ,X0XNX0XDXqXqXvXvXlXM.6 K.b.<.D.nXn y :XiXyX2 [ `.oXm.&.xX3Xk.9 6XLXA , V 1 p p g.F.L.v <.P.[.@X",
"% & a 6XlXqXqXvXvXqXuX8Xu.y.<.v C.d.KXtXi c.k.u %.zXm.|.XX'..XV.i MX7XLXj., 0 , u u 6 ] v 7.8.@X@X@X",
"M <X-Xg.3X6X0XkXqXkX6X4 $.p.v x.B i.mXLX8X8XJ.ZXV.5 [ .XzXB.&.xXkXMXFXNX3Xi u.u a.d.8 <.8.8.P.@X$X*X",
"iX1X-X%.2X0XkXkXlX8Xj.2 5 p.F.=XA i.n..X XV.=.&..X&.w.fXxX3X5XIXPX<XKXNXNXp u M.C.,.' <.8.Z.[.@X@X*X",
"-XGX=Xa j.3X8X3X2XM.j.4 5 ] y.mX7Xg./ &..Xm./ } OXzX'.*.8X-X>XZ iXDX6XKXNXZXhXa.,.b.b.Z.].[.%X+X).@X",
"sX>Xl.i *.V.$.B.V.H.N.} / 5 ` N.fX$.*.@.OXOX&.V.fXzX*.&.5X9X< $ G A S uXPXKXp.] '  XA.A.&XXX[.&X*X%X",
">Xg.j.V..X XhXXXH.p./ } / } 5 &.'.*.fX/ OX'.'.V.&.ZXLXfXFXiX+ + # n C C 8XF.v.{ m.b.{ w.q.5.9.^.%X}.",
"a.N. Xm..Xv.H.] 2 6 6 / &.&.=.&.fX=.HX*.fXHXHXp p 6XGXFXKX,X+ O + n V c.B ` 5.O.q.].5...X.E.9.9.~.%X",
"m.XXN. XXXn.p.u.a.a.8XfX'.'.*.'.*.*.xX*.=.jXi >XGXPXGXGXPX<X, O 1 v c.$.5 { { 5.1.9.E.9.X.E.9.w.W.].",
"B. Xn.' <.<.nXhXi j.$.2XfXfX3X*.%.2 B.%.8XMXiX9XyXE iXGXIX6Xl.u , 7 6 3 { ) _ ) 5.2.R.0.9.`.|.E.W.+.",
"H.v.7 <.<.D.8X=XmX-X0X=X=.r 6Xl.5XHXfXj.LXUXGXsXn F n :XPX6X6Xj.a.5 8 ` ` { v.8.) 5.~.9.....m.+.| +.",
"<.<.s.f.V BX7X,XMX-XsXiXw 9XPX:XA iXNX=XKXIXIXsX@ $ # D PXIXIXLXhX5 3 7 p.p.,.` #.| +.O.#.| | | | -.",
"b.f.<.G.yXaXq yXyX:XiXeXE sXiXy 9 q uX>XUXIXIX9X0 1 # ,XPXPXPXBXD.5 3 <.D.d.v.[ [ O.@.| ( #.( | | +.",
"z.8Xz.,XdX1Xe n :XR eXm @ <XyX< O , D >XDXIXIX5Xg.7 t uXGXGXNXH.] ,.y.i.d.i.6.[ @.@.@.| | #.| | | X.",
"D.c.z.<XF & - n C n G - - ,XD w @ q uXUX0XPXKX5Xj.M.M.AXBXrXC.A.A.D.B V V s.v.6.@.@.E.@.| | | | | X.",
"P.I.pXn + O + + V + o $ $ ,XU R R U PXIX9XPXKXMXNXu.J.d.nXH. X{.H.x.<XA i.v b.6.w.+.+.@.| | #.| X.X.",
"P.P.uXG 1 + + 1 O + - o X w iXGXGXsXiXPXuXFXPXBXrX' 6 p.nXCX&X{.XXI.tXz.B s.b.8.9.9.O.+.O.| | -.X.+.",
"8.K.I.A V n 1 < + , + # @ w 1XeXGXsX5XIXPX6XBXJ.n.m. X.XCXzXA.@X$X$X$XK.K.b.Z.7.5.9.+.+.+.O.| -.X.X.",
"Z.{.P.<.D.B 7 2 4 8 4 4 $.c.7XtXBXFXM.mXIXF.8XhX#X#X#XCXnXXX&X@XS.{.e.e.A.Z.Z.q.0.R.E.E.W.X.X.-.X.-.",
"@X}.}.[.Z.8.{ } 5 5 ` 5 ` p.H.XXA.K.A.H.XXA.v.{.#X#XVXoXH.Z.|.&X[.].].Z.A.{.].e.E.].]./.W.W.U.W././.",
"%X%X%X%X@X|.].`.@.6.@.{ v.Z.{.oX[.&XXX{.{.{.{.{.|.#XVX#X{.].].].].[.].].Z.Z.].e.}.}._.}.]./././._._."
};
