/* XPM */
static char *_670781606606[] = {
/* columns rows colors chars-per-pixel */
"50 50 250 2 ",
"   c black",
".  c #010101",
"X  c #020202",
"o  c gray1",
"O  c #040404",
"+  c gray2",
"@  c #070707",
"#  c gray3",
"$  c #090909",
"%  c gray4",
"&  c #0B0B0B",
"*  c #0C0C0C",
"=  c gray5",
"-  c #0E0E0E",
";  c #111111",
":  c gray7",
">  c #131313",
",  c gray8",
"<  c #151515",
"1  c #161616",
"2  c gray9",
"3  c #181818",
"4  c #191919",
"5  c gray10",
"6  c #1B1B1B",
"7  c #1D1D1D",
"8  c #1E1E1E",
"9  c gray12",
"0  c #202020",
"q  c gray13",
"w  c #222222",
"e  c #232323",
"r  c gray14",
"t  c #252525",
"y  c gray15",
"u  c #272727",
"i  c #282828",
"p  c gray16",
"a  c #2A2A2A",
"s  c gray17",
"d  c #2C2C2C",
"f  c #2D2D2D",
"g  c gray18",
"h  c #2F2F2F",
"j  c gray19",
"k  c #313131",
"l  c #323232",
"z  c gray20",
"x  c #343434",
"c  c #353535",
"v  c gray21",
"b  c #373737",
"n  c gray22",
"m  c #393939",
"M  c #3A3A3A",
"N  c gray23",
"B  c #3C3C3C",
"V  c gray24",
"C  c #3E3E3E",
"Z  c #3F3F3F",
"A  c gray25",
"S  c #414141",
"D  c #434343",
"F  c #444444",
"G  c gray27",
"H  c gray28",
"J  c #484848",
"K  c #494949",
"L  c gray29",
"P  c #4B4B4B",
"I  c #4C4C4C",
"U  c gray30",
"Y  c #4E4E4E",
"T  c gray31",
"R  c #505050",
"E  c #515151",
"W  c gray32",
"Q  c #535353",
"!  c gray33",
"~  c #555555",
"^  c #565656",
"/  c gray34",
"(  c #585858",
")  c gray35",
"_  c #5A5A5A",
"`  c #5B5B5B",
"'  c gray36",
"]  c #5D5D5D",
"[  c gray37",
"{  c #5F5F5F",
"}  c #606060",
"|  c gray38",
" . c #626262",
".. c gray39",
"X. c #646464",
"o. c #656565",
"O. c gray40",
"+. c #676767",
"@. c #686868",
"#. c DimGray",
"$. c #6A6A6A",
"%. c gray42",
"&. c #6C6C6C",
"*. c #6D6D6D",
"=. c gray43",
"-. c #6F6F6F",
";. c gray44",
":. c #717171",
">. c #727272",
",. c gray45",
"<. c #747474",
"1. c gray46",
"2. c #767676",
"3. c #777777",
"4. c gray47",
"5. c #797979",
"6. c gray48",
"7. c #7B7B7B",
"8. c #7C7C7C",
"9. c gray49",
"0. c #7E7E7E",
"q. c gray50",
"w. c #808080",
"e. c #818181",
"r. c gray51",
"t. c #838383",
"y. c #848484",
"u. c gray52",
"i. c #868686",
"p. c gray53",
"a. c #888888",
"s. c #898989",
"d. c gray54",
"f. c #8B8B8B",
"g. c gray55",
"h. c #8D8D8D",
"j. c #8E8E8E",
"k. c gray56",
"l. c #909090",
"z. c gray57",
"x. c #929292",
"c. c #939393",
"v. c gray58",
"b. c #959595",
"n. c gray59",
"m. c #979797",
"M. c #989898",
"N. c gray60",
"B. c #9A9A9A",
"V. c #9B9B9B",
"C. c gray61",
"Z. c #9D9D9D",
"A. c gray62",
"S. c #9F9F9F",
"D. c #A0A0A0",
"F. c gray63",
"G. c #A2A2A2",
"H. c gray64",
"J. c #A4A4A4",
"K. c #A5A5A5",
"L. c gray65",
"P. c #A7A7A7",
"I. c gray66",
"U. c #A9A9A9",
"Y. c #AAAAAA",
"T. c gray67",
"R. c #ACACAC",
"E. c gray68",
"W. c #AEAEAE",
"Q. c #AFAFAF",
"!. c gray69",
"~. c #B1B1B1",
"^. c #B2B2B2",
"/. c gray70",
"(. c #B4B4B4",
"). c gray71",
"_. c #B6B6B6",
"`. c #B7B7B7",
"'. c gray72",
"]. c #B9B9B9",
"[. c gray73",
"{. c #BBBBBB",
"}. c #BCBCBC",
"|. c gray74",
" X c gray",
".X c gray75",
"XX c #C0C0C0",
"oX c #C1C1C1",
"OX c gray76",
"+X c #C3C3C3",
"@X c gray77",
"#X c #C5C5C5",
"$X c #C6C6C6",
"%X c gray78",
"&X c #C8C8C8",
"*X c gray79",
"=X c #CACACA",
"-X c #CBCBCB",
";X c gray80",
":X c #CDCDCD",
">X c #CECECE",
",X c gray81",
"<X c #D0D0D0",
"1X c gray82",
"2X c #D2D2D2",
"3X c LightGray",
"4X c gray83",
"5X c #D5D5D5",
"6X c gray84",
"7X c #D7D7D7",
"8X c #D8D8D8",
"9X c gray85",
"0X c #DADADA",
"qX c gray86",
"wX c gainsboro",
"eX c #DDDDDD",
"rX c gray87",
"tX c #DFDFDF",
"yX c gray88",
"uX c #E1E1E1",
"iX c #E2E2E2",
"pX c gray89",
"aX c #E4E4E4",
"sX c gray90",
"dX c #E6E6E6",
"fX c #E7E7E7",
"gX c gray91",
"hX c #E9E9E9",
"jX c #EAEAEA",
"kX c gray92",
"lX c #ECECEC",
"zX c gray93",
"xX c #EEEEEE",
"cX c #EFEFEF",
"vX c gray94",
"bX c #F1F1F1",
"nX c gray95",
"mX c #F3F3F3",
"MX c #F4F4F4",
"NX c gray96",
"BX c #F6F6F6",
"VX c gray97",
"CX c #F8F8F8",
"ZX c #F9F9F9",
"AX c gray98",
"SX c #FBFBFB",
"DX c gray99",
"FX c #FDFDFD",
"GX c #FEFEFE",
"HX c white",
/* pixels */
"gXGXHX3XF.ZXHXSX.XbXGXFXcXcX).j.fXZXt.# [ HXMX* ..k.P 0.  4X2.6.H 3 DX'. XbXU o 0XFX$ = SXHXlX2X(.uX",
"AXHXHXHX3XC.+X[.{.(.wXk i vXx $ gXHXXX5 5 MXHXp Z (.5XJ.o =XzXD.=.o sXI.DXHXr.  v.P.^ K I.W.XXFXE.A.",
"5XAX&X7.~.0XzXGXBX;X).U S HXs e !.FXlXs y !.HX^ , FXGX4Xo B.wXXXn.  -. .FXSXM.| 5XHXAXHXHXHX%XU.-.R.",
"-XF._.AXHXHXHXDXHXHXDXHX!.3X< T k.HXHX;.2 V.HX,.X lXHXxX$ O.<XqX(.X E k FX-X_.DXDXHXFXHXHXAXHXHX6Xa.",
"Q.7XHXHXHXGXHXHXDXQ.HXHXGXK.# _ V.bXGXm.* [.|.S.O qXHXGX, J ~.VX<X  =.*X.X_.HXHXHXSXHXHXGXHXHXGXHXH.",
"|.SXFX).H.7X5XtXs.p.,XSXHXzX= %.0XE.HXU.1 T.F.'.  (.FXHXc 6 _.HXmX% ~ CXJ.SXHXAXHXHXAXHXrXC.8.HXFXFX",
"NXHXxX:.#X=Xt.kXU Q 0XHXDXDX#.>.FXk.HX>X* s.5XE.  M.HXHX` @ }.AXGXt s K.mXZX2Xv.;XoX,.R.4X2.V.0XFXFX",
"HXFXHXAXHXmX].fX,.0.8XDXHXHX_.4.7X;.cXMXO &.GXz.+ O.GXHX2.  U.HXDXG X K.HXHX%XI 6XG.M | _.L L uXHXFX",
"GXHXHXDXGXCX5.rXN R tXFXGXHXaXg =.d._.DXw K HX(.# v GXHXV.  J.GXVXA , bXHXFXr.S.c.V.Z.7.>X .c.yXHXGX",
"SXHXGXHXHX5XwXhXy.9.nXHXFXHXjXJ.GXHXl.ZXD 4 AXHXr * 3XGXK.r.T.SXDXAXQ.HXHXGX1.U y.l.h #.R.C / tXSXHX",
"GXHXHXBXHXnXm.tX( p.GXFXHXGXkX[.DXDX#.3X} ` 1XFX;XpXSXAXHXHXAXHXHXHXY.FXDXGXt.#.Z.V.2.q.+XV O.8XHXHX",
"GXDXHXHXHXtXM.xXxXwXHXHXGXDXwXK.HXZXNXFXHXDXHXSXAXHXHXHXHXAXxX5X{.Q.8.FXAXHXFXHXAXS.L >.rXHXSXSXGXVX",
"ZXHXDXSXHX5Xy.zXHXDXCXHXHXHXW.nXZXHXHXSXHXHXGXvXiX5X`.E.@X1XdX>Xa.q.C.kXHXSXFXHXHXS.! p.vXAXHXHXHXzX",
"GXHXGXHXAX@Xn.SXGXHXHXHXGXHXR.mXbX2X'.`.a.b.T.g.y.mXzXmXHXzXCXHX.X8.'.D.HXHXHXFXGXH.{.XXDXHXAXSXFX7.",
"DXDXHXDXHXcX2.CXHXHXFXFXHX{.#.8.s.B.M.E.0XHXFXHXHXHXFXHXwXVX*XVXBXx.[ a.;XHXDXHXHX1X!.*XHXFXSXHXT.XX",
"CXFXHXGXFXoX5XsXGXGXHXHXpXc.3.G.c.U.~.+XHXHXHXDXHXDXHXAX1XNX%XtXqXoX4.;.q.yXHXHXHXFXGXHXCXHXHX'.<XzX",
":.HXZXHXFX,XnXHXHXHXHX;XN.{.;.s.g.5.Q.1XHXAXHXFXDXHXFXHXDX[.bXQ.OXAXq.H.<.>.G.BXGXHXHXHXHXkXK.8XFXGX",
":.e.iXHXHXHXHXAXpX+Xe.x -XA.' 7.j.:.j.BXSXHXGXHXHXHXHXGXDX[.cXJ.aX:X'.L.&.g.6.;.j.l.H.q.W.G.9XAXlX8X",
"u.7.4.6.K.W.).!.J.} |.cX5XK.,.6.q.$.y.AXGXDXFXGXHXSXDXHXHXrX|.uX=X'.vXh.Q.1.5.u.f...=.4.].aX@XkXcXGX",
"s.).HXdX*XF.|.H.E ^ R L 0Xd.9.5. .o.u.HXHXHXHXHXHXcXHXGXFXMX+XaX}.E.).2XV.B.h.<.i.%.l.oX<.AX>XHXaX=X",
"aX[.cXx.Z 6 x ^.1 >.8.5 2X-.2.$.$.$.e.HXFXGXGXHXFXNX5XSXqX=XR.r.8.f.z.@X;XA.f.#.i.w.x.%X@XT.E.&X3XsX",
").&.[.; g.C.6 {.q B.b.r dXo.*.+.;.5.*.2X3X_.K.'.H.S.gXHXuXn.R.0.(.,Xj.R.GX'.2.o.%.d.g.{.ZX1X>XHXHXCX",
"& r 3.Z f.A.l /.u V.M.u pXX.<..._ u.-.$X=X+X).G.F.(.%XdXiXVX~.|.qX<X9.`.HX&X+.w...e.| '.HXhX5XAXHXHX",
"x.i.v ,.-.V.E m.g B.M.t kX5.2.6.) 4.8.D.).&XBXp.l.yXVXaXuXqXXXbXM.qX}.%X8XMX| <.K.,.[ R.6XyXW.AXGXFX",
"A.B.u v.J Z.<.#.N T J > vXP.3.6... .N.u.=XqXrX>XaXgXDXfXhXHXFXHX4X1X).lX(.GX*.2.W.g.-.x.HXxXyXpXFXHX",
"C.M.^ u.a ,.n c u.F N V.vX!.}.z.%.>.L.;.aXCXGXHXHXAXHXmXyXHXHXHXAX{.yXtXXXAXf.*.N.r.u.` xXeXbX5XHXGX",
"A.F.r.m T L q.R.r.'.w.) B.{.R.c.J.%.+XK.!.HXHXFXSXHXHXaXgXHXHXDXCX;XGXOXaXaX).P.p.>.g.<.}.HXAX4XGXFX",
"w.M.J.u @XDX].:X>X] a T Y 2XU.F.~.@.L.ZXq.xXHXGXGXHXHXFXiXzXCXHXHXdXzX;XGXCXN.@Xy.$.g.x.4XkXHX^.DXGX",
"I V.A.^ 9.AXY.+.g ;.S.m.3 lXg. X!./.#.dX=X`.HXHXHXHXNX<XMXAXHXHXHXAXFXmXCXnXG.U.&.;.7.%XE.nXX.,.HXFX",
"r M.V.j., _ 7 #.Z.Z.B.&., *X+Xm.%X[.x.B.FXH.rXHXHXDXBXBXZXbXiXtX;XqXHXHXHX2X.Xf.k n N b n I   P BXjX",
"&.1.D.A.V ) A.N.M.w.x / [.8XCXy.E.H.N.m.;XHXE.xXrXjXjX>XOX}.$XeXFXzXgXHXHXW.9.u.2 &.<.7.) h O a FXHX",
" Xv C.C.Z.A.Z.j.S x =.vX8X*XCXD.0.K./.iXC.*XvXT.bX+XF.P.!.4X2X1X:XVXuXHXFX3.F r.9 z.z.z.o.k < u 0XMX",
"fXb g.C.V.k.D v L > X { lXBXFXL.c.*.M.OXHX;X;XVX6XtXHXAXjXrX2X:XNXHX1XDXcX] R 7.5 { ' T l h o X !.I ",
"*Xt.P N.N.J +.pX;.      g N.9Xx.q.t.;.y wXAXHXqXHXhXXX].*XsXbXSXHXGX1XHXH.p.} 3.! Q ( K x j e C q ` ",
"_.9Xe a.E.R.N.^.L.o.=   . .   7 _ <.2.3.+.BXSX,XDXHXGXZXHXHXHXZXDXDX$X#X1.R.OX' ;.:.9.k u F u Q j.l.",
"rXM.t.(.HXHXHXFXFXHXfXS.2.H O   5 t.X.F.$Xc.BX&XDXHXHXHXSXHXFXGXBXuXC.9.q.cXVX! 1.O.{ *.v f i.l.v.h.",
"].cXHXHXHXCXHXHXHXSXHXHXHXP.    % a...U.HXqX1.S.0XlXhX4X6X1X1X(.b.2.0.S.D.xXAXu.) 3...r +.n.x.k.%.7 ",
"W.HXHXcXf.H.fXW.c.m.HXBXHX[.X o 8 r.+.[.HXHXvXM.2.E.)./.(.J.I.e./ 8.I.m._.HXHXaX..m c s.d.z.s.A k 2X",
"xXHXSX5X+.f.cXL I x.FXHXHX=X    @ @.W pXSXCXHXHXY.j...q.&.t.s.7.0.E.S.U.qXHXFXfX9.- 6.x.N.-.8 T ,.CX",
"HXFXHX<X5.{.cX Xk.C.GXFXHXAXu   ; A L AXHXHXHXDXDXN.v.F.oXzXnXT.8.`.].^.fXFXHXcXC.v e g.I y x.t A v.",
"HXAXHXHXa.p.SX:.F 3.tXHXHXGXXX: $X^ 1.HXHXFXHXHXGXGX-XE.0XSXHX3Xv.6XaXE.7XFXHXGX6X#.k , B Z.8.h qXl ",
"AXHXHX1XO.k.FX| V 6.AXHXSXDXHXJ.cXsX0X&XGXHXHXHXGXHXGXDXFXHXHXbXm.G.&Xg.#X7X1X1X2XoXv o.M.h.W 8.j.i ",
"HXHXDX#X~.iXHXp.<.C.cXGXGXHXCX#XHXFXe.U.DXDXHXFXHXGXBXsX<X>X3XOX{.>X9XkXHXGXvXyX,XP.p M.c.z.e ) d &.",
"DXDXFXHXHXFXHX%.W +.HXHXDXHXvX).HXAXo.(.eX+X1X6X6X6X7XnXHXFXHXHXBX.XyX,XJ.GX[ sXY ] Q h.l.u.M P.e n.",
"HXHXHXHXSXHXAXA K ' HXGXAXHXXX7X7X3X`.6XaXgXHXGXFXGXR.:Xa. Xy.HXfX^ Y.1X$.GXt.%X$X2 0.c.x.W p.] [ h.",
"GXZXHXFXHXHXDX^.g.K.GXHXHXFX`.HXnXwXHX^.:Xe.4.dXHX(.R.~ u.4.6.DXrXn F.8X` R.>X6X@X- 2.i.h.f {.- j.C.",
"FXHXHXDXDXAXGXF.C h.iXHXGXHX`.8X^ tXMXG m.3.n.Z.HX;X0...T.(.p.HX9X7XHXGXZXHXHXCX*X^ e % t 0 M.8 2 G ",
"GXDXHXHXGXHXDXm.3Xy.MXFXGXGX@X=.C ;X,Xb i.J.0.&XGXHXuXBXGXGXHXGXfX'.4XM.oXCXs.3X>.c | *.w.C.;.%X%.` ",
"%XHXHXFXHXHXHXOX^.<XDXHXCXy.y.i.Z.).yXr.SX4XDXHXHXHXrXQ.NXNXQ N.NXd `.[ t.jX$XaXz Y H s # Q.1 1 H ~.",
"q.FXHXFXHXSXGXHXHXHXSXxX_.ZX0XuXHXBX0XC.8X3.bX>Xw vX.X@ zXHXI E AX) M.i.&.~.FX0Xr x.c.i.t +.^ l.O.; "
};
