/* XPM */
static char *_40b6dd1a77f422be3cb5917fab9a8f26XDnyY4tryIUHoBy[] = {
/* columns rows colors chars-per-pixel */
"50 50 64 1 ",
"  c #1DB8FF",
". c #1EB8FF",
"X c #1EB9FF",
"o c #20B9FF",
"O c #21B9FF",
"+ c #24BAFF",
"@ c #27BCFF",
"# c #2BBCFF",
"$ c #2ABDFF",
"% c #2FBEFF",
"& c #30BEFF",
"* c #33BFFF",
"= c #34BFFF",
"- c #33C0FF",
"; c #37C0FF",
": c #38C2FF",
"> c #3BC3FF",
", c #3FC3FF",
"< c #3FC4FF",
"1 c #43C4FF",
"2 c #43C5FF",
"3 c #46C5FF",
"4 c #46C6FF",
"5 c #4BC7FF",
"6 c #4DC7FF",
"7 c #4BC8FF",
"8 c #4EC9FF",
"9 c #50C8FF",
"0 c #53CBFF",
"q c #54CBFF",
"w c #57CCFF",
"e c #59CBFF",
"r c #5BCDFF",
"t c #5CCCFF",
"y c #5FCEFF",
"u c #5FCFFF",
"i c #60CFFF",
"p c #67CFFF",
"a c #63D0FF",
"s c #66D1FF",
"d c #6AD0FF",
"f c #6BD2FF",
"g c #6DD1FF",
"h c #6FD3FF",
"j c #70D3FF",
"k c #72D5FF",
"l c #75D5FF",
"z c #76D4FF",
"x c #78D5FF",
"c c #7BD7FF",
"v c #7DD6FF",
"b c #7DD7FF",
"n c #80D7FF",
"m c #82D8FF",
"M c #85D9FF",
"N c #86DAFF",
"B c #87DAFF",
"V c #89DBFF",
"C c #8DDBFF",
"Z c #8CDCFF",
"A c #8FDCFF",
"S c #90DCFF",
"D c #93DDFF",
"F c #95DEFF",
/* pixels */
"kfay085,:=:;=##+ X +d                  o   #10zCFS",
"hfir054<:===;#@XXX&BjX                  1dCDFFFFFF",
"csyw852,:50&##X+ &caV+ o         =oo  =vFFSCvzjjvS",
"Vlr054,:==&##@+X6y+X=v=          o   6Cj4#XX    X,",
"scvfiyyysdhp06yv1    vSzq=oo       =jF6 X    X   X",
"irVSBchpuayfnFv+  +=iFFFFSCnhpiiidnFFj       #    ",
"fi04,:&&&#++X&cyX 6nhe6:&o  o+=qgh91zd          o ",
"052,==&##++  X+nni1      oo o      o+m+           ",
"54,=;-##+XXX   4Fe                   q1     X;    ",
"4,:=##@XXXXX   XCy                   #e     X#    ",
"1:=:#++X  X     jh          o  o      h     X XXo ",
":=&##+X +5X     ez            o&      y&      XX X",
"=-##+X   #      5n        o         o 4k    XXX+++",
"-#@@X-+         1So       1+          +F6   X+X+##",
"#@@XX#X         4F=o                  XnC+  XX+###",
"@++ XXXX        eC1                   XjF6 X+X-##4",
"=o    o    o   +jV5           &#       jFtX+@##--s",
"v+o          =qv:4e  o                 dFd ###;-<A",
"hmd0qeiiddvmSFeo++v     o              4FC=##;1fBs",
"o3BFFFFFFFFFFFn046Sdo    o             qFFBfkvns42",
"= oevCFSCVvhi9110VSFVy1      o     X#,sAFFFFFF0,22",
"v  o   o      o   6mh4CVy1      #4ymDBwsBVVcvnDvf6",
"j=o                #V+#iSFCgihvSFFvfy+@@&=:;1,2yDC",
"19                  96  +50ehvVFFC+X+#--=::1,2228S",
" do        o o      og         &VD#+##;;:::,22255C",
" n        o+         j  o       lF2+#-;;,,,21244qD",
"&S&  +#   =1         q=o     oo=BF2#-><<,,1,2245rD",
"iF=      oo        o =6        oyA<;;2<<,2122458aF",
"SF1 o               o+i        o8F4=,111p5222488lF",
"jVdo                  z       o+,Se2222172224550AD",
" qv       oo&  &o    &n   o oo+#=Vp122412224477cFF",
" :C     o      o     qm   o1 o#==hq444214245788ZBc",
"ooS1                +VvXX  +X##;<r044444624558qFru",
"  vd       o        hFC+ o ++-;><0u44212644588jcrr",
"o pC1 o    o    +,yBnSF&XX++#-;<44h4221224560yByyy",
"jtVFC9o   +=4ejvFFv1 jFpX++#-;2422s411,24458yCsyyy",
"FFFFFFFVVSFCzjjie5+ XnFFBy=;;<2241j5,112570hSvippp",
"dFFFFFFFFC1o o      XSnvVFSq;<226fSBir5qyjCFBiiiss",
" 4vSFFFFFF9o   o5    vX+#1nSmllBFFFFFFFFFFFBayfssf",
"   #9jBSFFFVjy6#    Xj++#&,hDDFFBzhdlCFFFFFlyysfff",
"o  =   o=qgnFFFFl:+  h+#&:,18e04,,,125iVFFFjsssfff",
"  o+        +1ivFSve0B:#:r2442,2,,,2458eDFFhpsfmff",
"                #ySFFF9=:144222,<244580qcFFfpsskff",
"              o   #vFFd=,55426,22246kqqrhCFhpsfsff",
"+  o   1           =CDB:14542,,,2455i0qelFFjapssss",
"vo     +         o ochcq4564,,,2445560eyVFFcaspssa",
"Fv#     o         +4S9:cy864,:,1455500elFjjVsiaaaa",
"qnCd6+          o&hFz=:4pBBlfppgpieqeicCfiichsiiaa",
" X4vFSci4#+  +&6vve,#&2480eydcVSFFFFFFnyryypBAmlsh",
"   o;pcchy5,5zFj=o++#=,4800544148BFFFzqqyyiiyfcAAA"
};
