/* XPM */
static char *dXoxKyUyODElMjk_[] = {
/* columns rows colors chars-per-pixel */
"50 50 248 2 ",
"   c #3C6BA1",
".  c #487DBB",
"X  c #4F7CA9",
"o  c #4B7CC4",
"O  c #4B7BC8",
"+  c #517FCC",
"@  c #426FC0",
"#  c #4E83AA",
"$  c #5788A8",
"%  c #4C81BB",
"&  c #4B82B8",
"*  c #5C8CB5",
"=  c #5385BC",
"-  c #558ABA",
";  c #5B8CBD",
":  c #5786B5",
">  c #5D92BC",
",  c #5A93B4",
"<  c #6895AE",
"1  c #618EB8",
"2  c #649CB5",
"3  c #6294BC",
"4  c #6B9BBC",
"5  c #6899B8",
"6  c #749BB8",
"7  c #6CA2BC",
"8  c #6AA4B5",
"9  c #7BA4BD",
"0  c #74ACBC",
"q  c #7CACBC",
"w  c #76A5B8",
"e  c #7AB2BC",
"r  c #7EA9AF",
"t  c #4C84C3",
"y  c #4B85C9",
"u  c #4E89CE",
"i  c #4682C0",
"p  c #5285C3",
"a  c #548BC5",
"s  c #598CC5",
"d  c #5383CB",
"f  c #558CCB",
"g  c #5A8DCC",
"h  c #5D93C4",
"j  c #5D93CC",
"k  c #5C98C9",
"l  c #5786D1",
"z  c #538DD1",
"x  c #5B8CD3",
"c  c #5D93D2",
"v  c #5C97D9",
"b  c #628DC1",
"n  c #6394C4",
"m  c #6A96C4",
"M  c #659AC3",
"N  c #6B9CC3",
"B  c #6295CB",
"V  c #6A96C9",
"C  c #649BCC",
"Z  c #6B9CCB",
"A  c #739EC3",
"S  c #739ECA",
"D  c #789FCA",
"F  c #618FD6",
"G  c #6295D4",
"H  c #649BD4",
"J  c #6A9DD4",
"K  c #6394DA",
"L  c #659BDA",
"P  c #699DDB",
"I  c #6995DE",
"U  c #719FD2",
"Y  c #5EA0D4",
"T  c #6CA4C3",
"R  c #6CA2CC",
"E  c #6DA9C6",
"W  c #73A3C4",
"Q  c #7AA5C3",
"!  c #74ACC3",
"~  c #7AABC4",
"^  c #73A4CC",
"/  c #7AA5CC",
"(  c #75ABCB",
")  c #7BABCB",
"_  c #75B3C4",
"`  c #7CB2C4",
"'  c #74B2CB",
"]  c #7CB3CB",
"[  c #7DB9CC",
"{  c #77BAC3",
"}  c #65A0D2",
"|  c #6BA2D4",
" . c #6CA4DB",
".. c #6AA6D8",
"X. c #74A4D3",
"o. c #7AA5D2",
"O. c #73A9D3",
"+. c #7BABD4",
"@. c #73A5DA",
"#. c #74ABDC",
"$. c #7BACDB",
"%. c #79A7D8",
"&. c #7CB3D2",
"*. c #7CBAD2",
"=. c #7DB2D9",
"-. c #77B3DD",
";. c #5F9BE1",
":. c #6A9DE2",
">. c #629DE0",
",. c #6DA3E3",
"<. c #65A2E3",
"1. c #79ACE2",
"2. c #73A9E5",
"3. c #7BB2E2",
"4. c #7BB2EA",
"5. c #85ABB8",
"6. c #83B2BC",
"7. c #89B5BD",
"8. c #94B4BE",
"9. c #9AB9BB",
"0. c #9AB7BD",
"q. c #A1B3BE",
"w. c #ACC3BF",
"e. c #83ABC4",
"r. c #83ADCC",
"t. c #86AAC6",
"y. c #83B3C4",
"u. c #8CB5C4",
"i. c #8CBAC4",
"p. c #84B4CC",
"a. c #8BB4CB",
"s. c #85BACC",
"d. c #8CBBCB",
"f. c #81B8C5",
"g. c #92B5C4",
"h. c #93BCC5",
"j. c #9EBCC3",
"k. c #93BDCB",
"l. c #9BBECB",
"z. c #96B6C6",
"x. c #83ADD3",
"c. c #83ADD9",
"v. c #84B3D3",
"b. c #8CB4D2",
"n. c #83BBD3",
"m. c #8BBCD2",
"M. c #83B3DB",
"N. c #8BB4DD",
"B. c #85BBDA",
"V. c #8BBBDB",
"C. c #91B6D3",
"Z. c #92BBD4",
"A. c #93BCDA",
"S. c #9ABDDB",
"D. c #9FBED2",
"F. c #91AEC0",
"G. c #A3B6C3",
"H. c #A3BBC2",
"J. c #A6BCC8",
"K. c #AABFD0",
"L. c #8ABCE3",
"P. c #84B7E4",
"I. c #96BEE3",
"U. c #81AFE0",
"Y. c #8BC1CB",
"T. c #94C3CD",
"R. c #9BC3CC",
"E. c #99C6C9",
"W. c #86C0D4",
"Q. c #8BC3D4",
"!. c #8DC4DA",
"~. c #94C2D3",
"^. c #9BC3D3",
"/. c #9BCAD4",
"(. c #94C4DB",
"). c #9CC4DB",
"_. c #93C9DC",
"`. c #9DCBDB",
"'. c #94CAD3",
"]. c #9AD2D8",
"[. c #ABC9C6",
"{. c #A4C4CC",
"}. c #ABC4CB",
"|. c #A3C9CC",
" X c #ABCBCE",
".X c #A6C5C3",
"XX c #B2C3CB",
"oX c #B2CCCC",
"OX c #BCCCCD",
"+X c #B6C7C7",
"@X c #AED1CE",
"#X c #B9D2CB",
"$X c #A2C6D2",
"%X c #A4CCD4",
"&X c #AACCD4",
"*X c #A1C5DD",
"=X c #A4CBDA",
"-X c #ADCDD9",
";X c #A9C3D4",
":X c #B4CBD3",
">X c #BBCDD2",
",X c #B7C5D1",
"<X c #ABD2D5",
"1X c #A4D1DC",
"2X c #ADD3DC",
"3X c #A7D7D6",
"4X c #B2D2D5",
"5X c #BCD4D3",
"6X c #B4D5DB",
"7X c #BBD4DA",
"8X c #B3DADB",
"9X c #BCDADB",
"0X c #BBD9D5",
"qX c #95C4E2",
"wX c #9BC4E3",
"eX c #9AC6EC",
"rX c #99C8E7",
"tX c #93C7EE",
"yX c #A4CAE3",
"uX c #A8CDE4",
"iX c #A5CAE9",
"pX c #A4C7E7",
"aX c #ACD2E4",
"sX c #A7D5E6",
"dX c #B3D4E2",
"fX c #B5DAE4",
"gX c #B4DDF1",
"hX c #A8CFF8",
"jX c #B7E2F3",
"kX c #C3CCCD",
"lX c #C8CECE",
"zX c #C3CED1",
"xX c #C5CED7",
"cX c #C4D2D4",
"vX c #CAD4D5",
"bX c #C4D3DA",
"nX c #CCD6D9",
"mX c #CCDADB",
"MX c #C3DAD7",
"NX c #D3DBDD",
"BX c #D9DBDD",
"VX c #C6D0CF",
"CX c #C6DBE4",
"ZX c #D3DDE1",
"AX c #DADFE3",
"SX c #DAE3E3",
"DX c #CFE1E1",
"FX c #E1E7E7",
/* pixels */
"h n C j h j j p f d G d g K F d g s g g G H H j s s = s g = a s V > V M ; m b : b 1 b V V R M | B c ",
"h C B j a s G t s c ,.F b F l b p I g B p j H j H h = & V = V n m , ^ X * m m A D p X ; 3 - # h B B ",
"H j s j L L f G  .x p f L G J P G g I H P B a C Z n M N M.Z o.D v.wXsXrXx.5 6 N.I.x.c.L.R * ^ 3 3 n ",
"G L G P c g c j p p j % g H B B G I 2.J j | - X.R V R ^ / / / / x.(.m.5 W W ) 1 4 1 * 1 4 N N 5 ^ W ",
"j H H j f f . c f L P L G p g G B P G g B @.B h 3.^ X.m m / S / S n W m +.+.^ n 3 o./ o.+.Q / W r.] ",
"C j p G h f j c L c L t p G B a I g B s H g C @.$.m O.N D o.x.c.N.c./ O.o.M.M.M.=./ +.N 4 / / Q ~ q ",
"C @.J C s H c H H f = g G g G g g p F F H @.B V V : 3 4 4 A / x.r.b.x.r.+.4 ) M.=.+.T ^ ^ A 4 ) 5 5 ",
"J H B  .G  . . .G . p g B a h s . = b = n ; V > M , # W 4 7 4 < 6 Q e.v.~ W , ] ) W *.&.! ) m.) p.u.",
"B G g s j B j = h s B - @.n n : 1 # 3 L.L.( B.M.] 2 ( E T B.n.T ~ 0 s.qX` 8 !.! $ 2 $ 5 e.p.Z.a.5.t.",
"V b V s - j j H H R Z - # M O., W V.) *.v.[ 2 ] *.7 7 E ! ] &.*.s.s.0 ! [ ! [ !.[ f.~.m.`.).=X=XuX*X",
"1 s 1 b k - - } | ..> ^ L.B.^ V.4 4 5 5 $ 8 2 _ ! _ _ ] _ ] ! [ ) ~ ( ' 0 v.*.n.s.!.y.y.d.y.`.`.e.Q ",
"+.# R L.R *.3.*.T > , T 3 3 4 W ) W ) p.! p.p.*.` n.n.W.W.W.[ n.B.B.!._.&.B.] W 7 0 ! ` q q 6.y.] ~ ",
"V.rXv.!.( , , # , M T T R E ( +.] p.m.m.(.!.m.p.[ ~ ! ! [ ) ] *.*.e *.W.` ` Q.W.Q.!.m.p.9 y.9 9 s.m.",
"4 ! 2 2 4 2 , ' *.' ' ' *.B.&.] Q.(.m.s.s.y.p.y.p.` p.~ ~ 0 ! ~ { { e { !.W.W._ ` m.m.(.(.~.^.y.y.p.",
"m.n.T n.' E ' ' *.*.*.*.E [ s._ q ` ` s.Y.f.y.T.i.Q.`.'.~.Z.y.s.0 _ { E 8 0 !.Q.n.y.T.s.i./././.k.T.",
"] _ ! ' E *._ E W.[ n.Q.f.e s.Y.Y.i.~.1X`./././.i.i.h.E.1X2Xi./.~.s.` e { 0 q y.Q.Y.i.T.6.d.E./.%X$X",
"< ! _._._.W.` ` s.k.R.$X$X{.R.%X2X&X$X{.R.R.h.E.7.R.E.R.h.h.R.$X<X<X&X&X%X%X7.6.7.T.T.'.i.'.d.Y.$X$X",
"m.m.s.{ [ ` ` 6.u.^.%X-XdXfX8X<X6X6X}.|. X6X<X<X8X<X&X<X6X6XfX9XCXMXMX6X4X<X<X2X'.E.i.].1X/./.i.%X&X",
"a.wX'.f.e e Y.E.R.aXdXuX$XR.|.{.H.oX7X9X5X9X4X@X X[.w..X.X9.0.0.|.E.|.8X9X&XJ.%X2X%XY.h./.3X8X|.|.|.",
"C.i.e E.|.3X3X8XfXR.7.8.R.-X4X#X7X5X5XcX5X#XOX5X5XMX5X0XOX[.[.OX4X@Xw.w.&XCX-Xj.$XfXE.7.E.8X8X6Xl.$X",
"~ '.`.sX/././.E.R.z.K.}.,X+X+XVXcXcXcXZXZXZXnXmXcXvXzXcXcX5XcXbXVXDXmX5X.X9X@X|.%X8X6.7.3X<X<Xk.e.p.",
"^.~.~.R.h.h.E.R.l.J.:X,XkXlXw.lXcXmXZXmXcXbXvXnXvXnXzXkXcXxXcXvXmXvXVXMX+X0X.XE.8X8X9.r /.E.T.i.y.p.",
"g.l.$Xl.h.$X$X0.}.:X7X>XkXK.+XK.+XOXzXMXvXNXmXvXcXnXlXzXbXcXcXmXVXVXmXMX#X0X#X[.9X X9.5.R.uXY.f.p.m.",
"F.z.dXdXdX-XJ.8.}.7X:XXXJ.G.xXCXbXmXZXSXNXcXlXlXkXlXkXvXmXcXOXcXvXVXNXMXcX[.@X7X9.E.|.8X/.d.Q.Q.~.~.",
"D.aX=XF.u.z.5.z.7X&X{.}.}.,XCXCXmXnXvXkXkXlXBXAXBXAXAXBXnXlXvXkXvXcXZX>XK.>X:X;X&X%X8X'.'.'.{ Y.yXsX",
"Z.e.k.a.l.l.$Xg.$XfX{.{.{.9X9X5XmXnXkX+XBXFXBXBXBXBXZXZXNXzXvXvX>XnXXXG.J.K.;XdX%XE.T.T.].].1X].`.8 ",
"~ 0 p.`.).Z.~.).i.~.%X$XJ.R.w.[.OXOXOXzXnXAXAXAXZXAXZXnXbXxX7X}.:X.X:X2X-X7.g.5.6.7.=XfXjXgXsX) 5 2 ",
"! v.~ m.d.k.f.Y.y.y.q h.R.|..X@X}.XX}.OX}.XXXXG.q.q.q.G.G.j.H.z.g.u.r y.e.q 9 r 6 ^.gXyXw 2 4 M T ..",
"b.b.C.a.i./.'.i.y.8 q 0 d.Y.$Xh.R.$X|.{.&X&X$X$X-X%X^.l.k.k.a.u.k.'.~.0 ` { sX=XdXgXaXS.4 n k ..-...",
"I.t.e.t.w R.^.1X`.'.0 8 e Q.6.h.g.h.^.k.l.k.k.d.a.Z.~.i.r.~.(.m.s.`.(._.!.s.] p.a.).C.e.W k k Y Y Y ",
"b.e.6 t.t.Z.5.a.).`.].^./.R.l.2X%Xg.g.5.7.z.=Xk.^.$X`.).S.`.`.`.hX` 7 7 E M ' ( ) m.v./ ( R } Y k } ",
"iXpXpXe.t.S.a.e.u.y.T.~.=Xl.^.uXdXuXaXl.aX=X`.y.Z.).).p.9 p.Q 6 ~ ) ) &.M.O.O.3.qXv.M.M.=.B.k O.O.| ",
"A x.C.C.yXyX*XaX=XaX^.m.yXa.b.x.Q v.Q +.p.W 4 A ^ S / +.c.) r.W W M.N.P.%.U o.%.U +.%.D %.%.2.@.$.%.",
"x.e.x.t.e.e.t.u.a.).u.a.b.r.x.M.+.=.^ ^ $.+.+.$.$.c.P.X.o.^ / c.Z / c./ D x.m D o.b b V V U ; J %.U ",
"x.o.N.I.b.b.Z.a.k.Z.A.b.b.) t./ m ^ =.+.$.( +.^ $.c.%.%.o.+.o.+.x./ X.c.1 D S D D D U.c.%.%.S U P | ",
"o.N.c.) / r.) r.t.Q v.v.V.) +.+.=.v.+.^ ^ ^ X.V V b V V D m : N./ D c.L.N.c.x.N.U.x.D c.D D m m b h ",
"R =.&.( v.V.+.v.v.) ) =.N Z n ^ c.+.^ +.+.+.O.X.X.@.U X.c.I.eXeXA.b.t.pX*Xb.C.C.S.t.a.e.e.C.t.e./ +.",
"=.&.| ( +.+.M.B.P.M.P.=.X.$.$.$.=.M.M.L.=.$.Z C Z H J V J G ; N.I.6 pXb.pXS.hXpXiXpXpXiXpXiXS.S.W / ",
"} C } O.#.| O.X.X.| =.R O.( +.O.=.O.^ R O.3.1.1.1.@.@.1.1.U %.%.S S D 1 D o.U.I.c.I.A / D hXhXeXeXeX",
"C H C C } k R } n C | } R } R -.R C R h V C k Y s f x B G V B V B J U G B V V : V V Z V o.U X.S 3 1 ",
"..k -.-.C #.C } ........| #.| #.#.3.@...C s c a H v z L  .H @.| c  .s H H a j H J B C - h C R Z J R ",
"k a k ....} } H C H } v H j j k  .| #. .,.,...<.L L L z K H J L 2. .2. .L  .} j g j #.4.1.....#.3.=.",
"a k f k c c  .c L H a j k ..} ..c a s & % i y z v y z c z H H  .a s j u a c c G H L J 4. .| @.3.#.-.",
"z v c c c c c L H }  .} | k | ..4.2.2.,.,.Y <.;.;.;.z f t c C 2.4.4.L H  .H H H G B j } j C V C R } ",
"z c c x x L x L f f P c L x c c g c c f v z v z ;.u y z u c ..#.1.#.O.3.@.n | k k h h } C +.| O.| | ",
"f K K v K :.:.P L x f f c L c L ,.P L t t u z u u y y i z y & - ( M ^ ( R M > | M ( L.M.N 3 , ( > h ",
"O O O x x + K K ,.P  .c P K K K x g c f z L >.>.v u y i 2.tXtXP.N.S.< r.pXr.A.(.qXqXwXwX(.S.Z.iXqXM.",
"O @ + + x d I o x x d K K ,.K H x c g c L L <.>.x i o o   % % P.iXI.pXI.eXiXV.eX/ V.V.wX).`.Z.rXqXwX",
"F + + + + + l + + O x + O x l x l l K x x d c c f v c x f f a % a n   %.1.> - & h - Z P.yXyXv.=.M./ ",
"I I I I x + I :.l + l x x x x + O O + t d p d p o d l l z x v c G P a j . f v } k v j M t.a.M V +.O."
};
