/* XPM */
static char *d43709787126463afe4092139696ba3eJr9qt3cOp2JPWBLT[] = {
/* columns rows colors chars-per-pixel */
"50 50 152 2 ",
"   c #9D5236",
".  c #96563A",
"X  c #9D553B",
"o  c #9E593E",
"O  c #A24C35",
"+  c #A2563C",
"@  c #AA5439",
"#  c #A45A3E",
"$  c #AA5A3E",
"%  c #A55B42",
"&  c #AA5D44",
"*  c #AF5F48",
"=  c #B35E43",
"-  c #B05E48",
";  c #9E6142",
":  c #A36245",
">  c #AB6146",
",  c #A6654A",
"<  c #AD644A",
"1  c #A6694E",
"2  c #AD6A4D",
"3  c #B26245",
"4  c #B2654B",
"5  c #B9654C",
"6  c #B3694E",
"7  c #BA6B4D",
"8  c #AE6D51",
"9  c #B76750",
"0  c #B46C52",
"q  c #BA6D54",
"w  c #BE6F58",
"e  c #B57255",
"r  c #BB7156",
"t  c #B97956",
"y  c #B67458",
"u  c #BD745A",
"i  c #B77A5D",
"p  c #BF795F",
"a  c #BC7B5F",
"s  c #BF795D",
"d  c #BD795D",
"f  c #BD7D61",
"g  c #BF7C61",
"h  c #BE7C61",
"j  c #C06A4F",
"k  c #C26E53",
"l  c #C26E59",
"z  c #C96E59",
"x  c #C17156",
"c  c #C07454",
"v  c #C07555",
"b  c #C27757",
"n  c #C27256",
"m  c #C07359",
"M  c #C0745A",
"N  c #C1745A",
"B  c #C1755B",
"V  c #C2755B",
"C  c #C1775A",
"Z  c #C0765B",
"A  c #C57658",
"S  c #C1755D",
"D  c #C1775C",
"F  c #C0765D",
"G  c #C2765C",
"H  c #C3765C",
"J  c #C1775E",
"K  c #C2765E",
"L  c #C4775D",
"P  c #C2755B",
"I  c #CA765D",
"U  c #C7785A",
"Y  c #C77D5A",
"T  c #C2785D",
"R  c #C0785F",
"E  c #C2785F",
"W  c #C4785E",
"Q  c #C5795F",
"!  c #C6795F",
"~  c #C57B5E",
"^  c #C47A5F",
"/  c #C17C5F",
"(  c #C4795E",
")  c #C87E5B",
"_  c #C97A5D",
"`  c #C77760",
"'  c #CA7661",
"]  c #C37960",
"[  c #C07A60",
"{  c #C37B62",
"}  c #C47860",
"|  c #C57B60",
" . c #C47A61",
".. c #C57B62",
"X. c #C37C60",
"o. c #C17E63",
"O. c #C67C61",
"+. c #C47C63",
"@. c #C77D62",
"#. c #C67C63",
"$. c #C57E62",
"%. c #C57D64",
"&. c #C77D64",
"*. c #C67E65",
"=. c #C57B61",
"-. c #C87C62",
";. c #C97D63",
":. c #C87E63",
">. c #C87C64",
",. c #C97F64",
"<. c #C87E65",
"1. c #CA7E64",
"2. c #CB7F65",
"3. c #C97F66",
"4. c #CB7F67",
"5. c #CA7D63",
"6. c #CE7F68",
"7. c #D07D63",
"8. c #BE8665",
"9. c #C48166",
"0. c #C78167",
"q. c #C58267",
"w. c #C48165",
"e. c #CB8166",
"r. c #CA8067",
"t. c #CC8166",
"y. c #C68368",
"u. c #C68569",
"i. c #CA846A",
"p. c #C8876B",
"a. c #CE846B",
"s. c #CA876C",
"d. c #CC8469",
"f. c #C6896A",
"g. c #CC896E",
"h. c #CC896D",
"j. c #D08367",
"k. c #D0846A",
"l. c #D0866B",
"z. c #D2856B",
"x. c #D3896F",
"c. c #CF8C71",
"v. c #CC8C71",
"b. c #D38D73",
"n. c #D48E74",
"m. c #D38D72",
"M. c #D98D73",
"N. c #CF9071",
"B. c #D29276",
"V. c #D49377",
"C. c #D19175",
"Z. c #DB9178",
/* pixels */
"< < * h 0 r 2 } w 0 9 w 8 , * 9 1 : ; & 6 8 6 4 e.< + 6 q > & 4 >.9 2 < h e y 1 h 1 8 , u 0 w > M ) ",
"* u 0 r 9 { y 9 p >.{ w w K h 0 X 8 f 8 6 s e : s ) s 4 6 I M 4 h w { y h y p.B.f f v.p.m.h +.{ v ) ",
"% 2 < 9 % 0 * % X , , + X % % X % 8 y e e e 0 > + 0 7 + & M m & & & 0 , , o 8 y 1 % 8 % 1 + > 0 & 3 ",
"q r 0 4.w r < w u 9 9 w p w w h p 2 8 h t 2 6 O.s M T W H P m m { u 4.o.n.*.*.f B.f h 8 %.{ *.P 7 c ",
"< - < u & % X 8 * X X % , % % < r % + < < # % r l.W W 2.m > & 4 % + * & a y y : h 2 < < h 0 9   r A ",
"< h u u & f q w } *.h w w 4.*.w 0 d s e e d m 0 -.t.2.! m w q 4 m P 4.w 0.a e.w.g.h 0.T a.p P x c U ",
"* 0 < 9 % w 0 0 1 9 < % * 9 < o X < 6 > # < 3 + & 6 0 & > q q > 6 6 r % > # < < 0 < < X &   & > @ > ",
"h 0 % u q h u 4.*.0 9 0 w 8 * 9 q s -.-.M r s -.P P M m H W H u r x ! 0 O.t w.e h 0 { p a.m m w 4 7 ",
"+ % * 9 * % % 9 X % % u w w 8 p 4 & % 6 6 > & 4 q 4 4 0 w r m ! k = 3 & r > $   b U > + q k $ 3 A M ",
"p K { *.h w u h - 0 0 4.u u 0 p H I H H H W W H r M H r r ! 2.2.7.A U x j.r b r l.w.U W A _ _ 7 } -.",
"8 < < 9 - * : % 9 0 0 *.9 9 * 9 4 q 9 & - 9 9 > # 4 6 + + 4 6 & 3 $ 3 = 4 $ > > 4 $ 7 M 3 7 z $ < < ",
"w w 0 u p h u w w } } c.p h 0 h I ' ' A A ! A w m -.W w 6 M W r c j A 7 A 5 v r r 6 H 7.A ! ) 7 0 0 ",
"8 9 8 9 w u u q % 8 < u < 9 < w k 5 5 q k 4 - 4 A q 6 q w q 6 4 j 3 j $ 7 3 3 3 3 c 3 3 j j @ @ %.o.",
"u u w w h h { u 0 w 9 h w h w +.l 5 5 A I 9 5 w -.q 6 M W u 6 4 k j j 5 c c t 3 7 t.7 3 U z = j y 8 ",
"w u u w w p p w w u 1 0 , q 8 0 q 5 - 9 5 9 q w 6 5 0 q u u 4 $ 5 5 k 3 k 7 7 7 3 k c 7 k k k U < 1 ",
"u { +.p p } ' } 4.4.w w - w 9 - 9 k 5 - 4 x H m > q b 6 r b e % $ = k 3 7 3 7 7 r 5 Y c $ $ k 3 % % ",
"> 8 r r 6 4 6 0 & r w m + $ & l - + % 0 q < > q O.< 4 e e.8 r 7 r 5 7 3 ) c c 7 Y c Y 5 e.c j.Y t.T ",
"u u r r r r q q 6 r 9 A 6 m q H w q q s s s r e r 0 r < e 4 e > 7 4 7 3 k 3 5 3 j 7 c 3 7 3 j 3 3 $ ",
"C.d.T b -.d.-.W q q > u q -.q 9 q v u q q M r < u t.M.e r r ) 6 U c ) c ) k A c 7 c ) 7 c j Y b A m ",
"e 4 > # & > & & P m 7 M w H 6 > 6 0 q 0 0 r q 4 # r W + + # 4 + 3 = 5 $ 7 3 7 3 @ $ 3 @ 3 $ 3 $ & & ",
"e.p.d.e.s r P } } t.-.k.m H w z w q q H 5.H m H -.-.x.m O.s -.H e.c U r t.) t.U j.t.j.Y j.A w.7 I z ",
"> 6 e 4 & # & 6 + 4 > 9 $ & & 3 & + $ 6 9 6 4 6 4 & 4 & 6 $ 4 6 3 # $   4 $ >   7 4 7 : 6 > 3 @ q - ",
"d.d.t.e.O.-.2.2.A -.H t.l -.H ' A -.-.2.7.k.2.' 2.I k.H 6.A k.k.j.w.w.r t.U e.b w.w.j.b j.e.j.w.l.1.",
"e 4 # > 4 0 9 4 0 6 + 4 % 3 + + # 4 6 + & 6 4   & & 9 + & + 6 4 6 3 7 > r > r 6 3 > 7 $ 4 % 3 < & & ",
"/ b d.) s O.} z.z.m.-.2.} M.2.' m 2.t.P H t.-.v r ! t.-.H H -.H } { { 2 T O.e.e / w.p.e T p 0.q M 0 ",
", # 3 > > q 4 q + + + 5 $ & $ z 9 > > 7 7 & > 6 9 3 6 M m > & q h < < < u > 2 < u % + + 0 + % + P q ",
"e.s w.w.d.Z.e.-.A m x z.P m m x.l.-.O.d.2.P Y h.e.r s d.t.s r -.a.u h h g.y p u n.p p d p.u h h O.t ",
"r < 6 6 r M > & 6 q > 4 & m 6 & > 0 r < : 6 6 < 6 0 6 > < r 0 % 2 0 u < p p +.2 < 0 p % 1 < e 0 r 0 ",
"T r O.W W e.r r q u 4 q 7 t.A r 0 / w.u e b d 8 s w.t 8 r / / e 8 8 f 2 h h u.e i g 0.8 h h r.f d e ",
"e e -.O.e.d.-.j.M r q t.w q 5 t.d e r w.w.e 6 e t 8 < 8 e e 6 e o.e h o.b.f o.u.h.0 8 8 s.i d 8 w.+.",
"6 2 M r P -.m -.W M w j.q q 4 e.Y 8 8 8.8.8 2 8 t 6 2 e t y e t e , 8 8 f , 8 0 g , 2 2 w.8 e 2 r e ",
"T r M s s W q r M W q T M x.t./ y.d.w.d w.f.f.e 2 a a e y w.w.8 d h s.e { h y.e e +.b.i w.8.g.w.a b ",
"r 6 < 6 q 6 > $ + 4 4 e 8.8.2 ; 0 0 8 8 8 y 8 1 . 8 f 8 < w u 0 , 9 w % - % - * * % p 1 9 i f h > > ",
"f.y.e.p.d.l.k.t.P } w.e.h.p.8.h.c.6.6.4.s.*.*.v.8.v.p.*.{ { h +.6.h *.u >.w } w 6.p 6.u *.h 8.v.m.m.",
"; ; < > < > 3 4 & % % 4 8 ; ; t 0 , , 8 8 : 1 f 8 ; o , 9 1 * < p < 9 < p * - - l - 9 X 1 1 1 : 6 4 ",
"w.w.w.w.O.O.) t.} -.w.h.l.s 8.h.6.' >.6.g.*.*.B.g h y *.6.x.c.6.6.u h w 6.w ' K 6.>.b.p 4.p.h h e.d.",
"e 6 2 6 6 8 4 4 4 q 6 < e 8 6 6 - < 9 < 0 0 8 1 1 8 8 < 0 w w , 8 0 p - w 0 K w - % h * 8 1 8 0 3 3 ",
"f.w.w.w.w.e.t.w.W t.W 9 b d.l.N.h >.{ { 4.g.*.f u h >.h { 4.{ w w w *.8 u w 6.+.w h Z.>.g.h *.g.r r ",
"t t e 8 e e r u q r 0 4 6 r b x.9 8 0 w h w 0 0 < 1 < 0 w w 0 w w w u 9 p 0 } w p 9 h 9 h u w y r r ",
"t w.w.8.t e b w.r r m -.) 7 u x.h 9 w { h 8 w 4.6.0 9 h h q 0 h *.0 0 y +.9 w u { * 9 % u h q 8 W W ",
"8 e e s t r e 6 P r r ! ! A q q 0 h h q w h { h >.h u f u u y q 0 w *.< 8 < h u 9 0 h S } h u w H M ",
"e r s t r 6 e e q 0 q w q 3 5 5 q 9 9 q w q w w w 0 9 9 0 0 9 0 w p +.< w 8 w < w y 9 < - 9 w h m r ",
"6 q u r e 6 e r r s m H l q z >.h 9 9 } h w w } S w q w u h h w h K *.w { h 4.y h } ' { >.>.` } >.-.",
"> > < > > 2 6 6 # : & > & & 4 9 0 < 8 y w w 9 w l l w w 9 q 0 8 w w p y { u { u 1 1 8 w q 9 - * 4 > ",
"I I l m W ) +.+.T / / O.2.2.' -.w h w u S ' ' l S S l w u h u 0 u u *.0 h 8 h y c.s.*.' ' 6.6.x.>.>.",
"l k q 5 9 6 0 0 < 2 < < > 4 & # % 6 < * 9 w w - - - - * * 0 2 * < * 8 : , o , , 8 * , % * 4 5 5 & & ",
"z I 7.I M r b w.h.h.h.O.) 2.-.W { h w h ' 6.>.' w ' ' p { i.r.h w y u w *.h h h h h h ' 6.6.' z >.{ ",
"O = 5 6 $ # < u < e q > & > 6 6 8 o X * < * * 9 - 9 9 * 9 0 0 , 0 * < , 0 , : . 8 % X % * - - 9 9 < ",
"6.w *.h e h h O.v ' U k A W w.w.t t Y / w.Y T b s W T e d i.u.g >.` 2.r { +.c.8.h h v.h 4.w +.w p u ",
"h 2 i 0 1 0 0 r 6 l j 5 j r 7 t t t t 8.Y d s s 0 r r 2 8 d f 0 l 9 u * 4 8 h 8 1 1 h 8 h 0 h w u h "
};
